%TF.GenerationSoftware,KiCad,Pcbnew,(6.0.9)*%
%TF.CreationDate,2023-11-13T18:20:47-08:00*%
%TF.ProjectId,music_card,6d757369-635f-4636-9172-642e6b696361,rev?*%
%TF.SameCoordinates,Original*%
%TF.FileFunction,Legend,Top*%
%TF.FilePolarity,Positive*%
%FSLAX46Y46*%
G04 Gerber Fmt 4.6, Leading zero omitted, Abs format (unit mm)*
G04 Created by KiCad (PCBNEW (6.0.9)) date 2023-11-13 18:20:47*
%MOMM*%
%LPD*%
G01*
G04 APERTURE LIST*
%ADD10C,0.046000*%
%ADD11C,0.200000*%
%ADD12C,0.150000*%
%ADD13C,0.120000*%
%ADD14C,0.152400*%
%ADD15C,0.100000*%
G04 APERTURE END LIST*
D10*
X151233918Y-113127781D02*
G75*
G03*
X151278609Y-113159178I151882J168681D01*
G01*
X147569853Y-110888828D02*
G75*
G03*
X147658077Y-111054004I540847J182728D01*
G01*
X151906938Y-104547026D02*
G75*
G03*
X151862809Y-104495726I-329338J-238674D01*
G01*
X148384563Y-107008859D02*
G75*
G03*
X148498313Y-107097224I188037J124659D01*
G01*
X151674853Y-102489242D02*
X151661966Y-102062924D01*
X150923313Y-117677602D02*
G75*
G03*
X151163821Y-117833825I865887J1069802D01*
G01*
X152514234Y-110295377D02*
G75*
G03*
X152460173Y-110238178I-54034J3077D01*
G01*
X151196095Y-113085423D02*
G75*
G03*
X151233923Y-113127776I214505J153523D01*
G01*
X151224959Y-110146783D02*
G75*
G03*
X151220189Y-110212501I450341J-65717D01*
G01*
X150041971Y-107068570D02*
X150490397Y-107036699D01*
X153293526Y-110294603D02*
G75*
G03*
X153228302Y-110521366I380474J-232197D01*
G01*
X153344511Y-106656026D02*
X153110527Y-106601936D01*
X148921729Y-104075548D02*
G75*
G03*
X148915520Y-104095461I1371J-11352D01*
G01*
X152075519Y-103984280D02*
X153838795Y-103925055D01*
X147249054Y-116904509D02*
G75*
G03*
X147145394Y-116928013I60346J-506491D01*
G01*
X151233915Y-112857597D02*
G75*
G03*
X151196091Y-112903339I211985J-213803D01*
G01*
X148657049Y-110198510D02*
G75*
G03*
X148314706Y-110230906I-15749J-1658590D01*
G01*
X151052723Y-104615334D02*
G75*
G03*
X151351634Y-104630713I257677J2095734D01*
G01*
X151170396Y-105144972D02*
G75*
G03*
X151196091Y-105195201I230004J85972D01*
G01*
X152713276Y-114141149D02*
X151643283Y-114087137D01*
X150982865Y-109450955D02*
G75*
G03*
X150794702Y-109671674I617335J-716845D01*
G01*
X149831671Y-104223167D02*
X149366577Y-104169455D01*
X152021606Y-110883479D02*
G75*
G03*
X152085196Y-110790969I-677306J533679D01*
G01*
X151170356Y-108025971D02*
G75*
G03*
X151161769Y-108075078I136244J-49129D01*
G01*
X148736397Y-103821461D02*
X147793092Y-103862169D01*
X153133333Y-109965472D02*
G75*
G03*
X153013247Y-110027744I316067J-756428D01*
G01*
X151606209Y-101825231D02*
G75*
G03*
X151541499Y-101796488I-64709J-58469D01*
G01*
X151597576Y-117687328D02*
X151961866Y-117645349D01*
X150316829Y-107150726D02*
X150074465Y-107102916D01*
X151437081Y-109740402D02*
G75*
G03*
X151286703Y-109922432I263119J-370498D01*
G01*
X149402527Y-110335484D02*
G75*
G03*
X149021482Y-110233504I-829927J-2338116D01*
G01*
X148216225Y-110943079D02*
G75*
G03*
X148439372Y-111033953I255375J307679D01*
G01*
X150041973Y-107068608D02*
G75*
G03*
X150036733Y-107084748I527J-9092D01*
G01*
X151588175Y-106653401D02*
G75*
G03*
X151557279Y-106640100I-42075J-55199D01*
G01*
X151474944Y-104399066D02*
X151041558Y-104344357D01*
X154096456Y-117168010D02*
X153457824Y-117127998D01*
X151725919Y-113316875D02*
G75*
G03*
X151768213Y-113366486I294781J208475D01*
G01*
X152598940Y-111321970D02*
G75*
G03*
X152790695Y-110930687I-1220940J840970D01*
G01*
X151196094Y-105195199D02*
G75*
G03*
X151233924Y-105240183I220106J146699D01*
G01*
X153047891Y-109646205D02*
X152743264Y-109751457D01*
X150904591Y-103493911D02*
G75*
G03*
X151078737Y-103572333I208309J230011D01*
G01*
X152551325Y-109553044D02*
G75*
G03*
X152445680Y-109459520I-656325J-634956D01*
G01*
X152016134Y-103656010D02*
X152143196Y-103678376D01*
X151348178Y-116682019D02*
G75*
G03*
X151759778Y-116603686I-298978J2691519D01*
G01*
X149949259Y-111227611D02*
G75*
G03*
X149870056Y-111208217I-79559J-153489D01*
G01*
X149036448Y-117246079D02*
X150618839Y-117294499D01*
X149366577Y-104169455D02*
X148964929Y-104118158D01*
X151696934Y-116245581D02*
G75*
G03*
X151726161Y-116297111I283566J126781D01*
G01*
X153776444Y-109989884D02*
G75*
G03*
X153706565Y-109925547I-92744J-30616D01*
G01*
X154147284Y-103859964D02*
G75*
G03*
X154194075Y-103795876I-85384J111464D01*
G01*
X153706564Y-109925550D02*
G75*
G03*
X153528761Y-109901092I-212464J-886050D01*
G01*
X152514215Y-110295376D02*
X152485627Y-110582061D01*
X151682949Y-108490748D02*
X151668636Y-108326165D01*
X152849126Y-103510925D02*
X152368553Y-103460395D01*
X151666959Y-116111748D02*
G75*
G03*
X151644291Y-116067456I-294259J-122652D01*
G01*
X152023464Y-109261050D02*
X151687549Y-109167462D01*
X151278608Y-112822215D02*
G75*
G03*
X151233916Y-112857598I135992J-217685D01*
G01*
X149870056Y-111208215D02*
G75*
G03*
X149768819Y-111222158I-456J-371185D01*
G01*
X152213322Y-117356593D02*
G75*
G03*
X152195137Y-117336662I-20022J-7D01*
G01*
X150609776Y-113855613D02*
X150943561Y-113800969D01*
X151391626Y-103110514D02*
X151163821Y-103226731D01*
X149021481Y-110233512D02*
G75*
G03*
X148657049Y-110198512I-384581J-2089588D01*
G01*
X152010009Y-117321567D02*
X152195137Y-117336662D01*
X151227054Y-109300621D02*
G75*
G03*
X150982859Y-109450948I346446J-836279D01*
G01*
X151395399Y-107718307D02*
G75*
G03*
X151349764Y-107646565I-79199J7D01*
G01*
X148834475Y-114209663D02*
X149289178Y-114241690D01*
X151391036Y-105503774D02*
X151395449Y-105706027D01*
X150865152Y-114325140D02*
X151285437Y-114352173D01*
X151759781Y-116603699D02*
G75*
G03*
X151860132Y-116506692I-37981J139699D01*
G01*
X151682419Y-116158915D02*
G75*
G03*
X151666956Y-116111749I-310519J-75685D01*
G01*
X151163826Y-103226741D02*
G75*
G03*
X150909235Y-103386587I769174J-1507759D01*
G01*
X147077846Y-117080877D02*
G75*
G03*
X147093820Y-117115944I138854J42077D01*
G01*
X147091052Y-104076977D02*
G75*
G03*
X147108427Y-104101434I67248J29377D01*
G01*
X147145402Y-116928036D02*
G75*
G03*
X147117479Y-116944320I25998J-76664D01*
G01*
X151392071Y-104753622D02*
G75*
G03*
X151394166Y-104664864I-195671J49022D01*
G01*
X148141895Y-110769184D02*
G75*
G03*
X148149698Y-110858023I121205J-34116D01*
G01*
X154180363Y-117341178D02*
G75*
G03*
X154190428Y-117306122I-133063J57178D01*
G01*
X151233926Y-116106301D02*
G75*
G03*
X151278609Y-116138598I142074J149501D01*
G01*
X151687549Y-109167462D02*
X151687549Y-108692154D01*
X151370418Y-115010999D02*
G75*
G03*
X151319619Y-114951223I-118818J-49501D01*
G01*
X151676711Y-105300095D02*
G75*
G03*
X151617445Y-105167322I-203011J-11005D01*
G01*
X151199025Y-106170248D02*
G75*
G03*
X151317246Y-106103289I-403725J850648D01*
G01*
X151786570Y-117310564D02*
X152010009Y-117321567D01*
X151696950Y-107794403D02*
G75*
G03*
X151687549Y-107838400I98250J-43997D01*
G01*
X151687558Y-116201576D02*
G75*
G03*
X151682428Y-116158913I-180158J-24D01*
G01*
X152445677Y-109459524D02*
G75*
G03*
X152323969Y-109380419I-616977J-816076D01*
G01*
X151961866Y-117645349D02*
X152372180Y-117599779D01*
X151645821Y-113089557D02*
G75*
G03*
X151619921Y-113056498I-149621J-90543D01*
G01*
X152105967Y-110351623D02*
X152275202Y-110292198D01*
X152201734Y-109759518D02*
G75*
G03*
X151940416Y-109649530I-439334J-678382D01*
G01*
X151726162Y-107742866D02*
G75*
G03*
X151696938Y-107794397I254938J-178634D01*
G01*
X151373677Y-114453284D02*
G75*
G03*
X151028410Y-114522951I383823J-2792616D01*
G01*
X150074765Y-113956053D02*
G75*
G03*
X150036733Y-113974660I16135J-81147D01*
G01*
X147646921Y-110581025D02*
G75*
G03*
X147563673Y-110734930I259579J-239875D01*
G01*
X150373099Y-104277419D02*
X149831671Y-104223167D01*
X151349111Y-113409205D02*
G75*
G03*
X151395449Y-113330251I-44011J78905D01*
G01*
X151677441Y-106120362D02*
X151687962Y-105710204D01*
X153228323Y-110521366D02*
G75*
G03*
X153291991Y-110739730I389377J-4934D01*
G01*
X151617437Y-108006526D02*
G75*
G03*
X151644291Y-107972520I-130837J130926D01*
G01*
X151696911Y-113265966D02*
G75*
G03*
X151725925Y-113316871I275089J123066D01*
G01*
X148594065Y-110630076D02*
G75*
G03*
X148299496Y-110646890I-99965J-837424D01*
G01*
X153925430Y-110855080D02*
G75*
G03*
X154092488Y-110609544I-587730J579480D01*
G01*
X151768216Y-113366483D02*
G75*
G03*
X151818192Y-113406930I238984J244183D01*
G01*
X148828636Y-107184723D02*
X149564122Y-107313403D01*
X151585177Y-106666532D02*
G75*
G03*
X151588186Y-106653387I-1377J7232D01*
G01*
X147072356Y-117044108D02*
G75*
G03*
X147077833Y-117080881I126244J8D01*
G01*
X151278609Y-107887821D02*
G75*
G03*
X151233915Y-107924207I122391J-195979D01*
G01*
X153484845Y-110924225D02*
G75*
G03*
X153709268Y-110966760I170755J287625D01*
G01*
X151373264Y-109179665D02*
G75*
G03*
X151391968Y-109068067I-379464J120965D01*
G01*
X151439264Y-110263292D02*
X151220189Y-110356586D01*
X150943561Y-113800969D02*
X151543004Y-113697116D01*
X151878263Y-113514995D02*
G75*
G03*
X151818192Y-113406930I-134263J-3905D01*
G01*
X152890965Y-110448842D02*
X152921249Y-110198213D01*
X152183955Y-109314655D02*
G75*
G03*
X152023464Y-109261050I-608755J-1555545D01*
G01*
X151678250Y-118257937D02*
X151670325Y-118029270D01*
X148442504Y-114176527D02*
X148834475Y-114209663D01*
X150676375Y-109948031D02*
G75*
G03*
X150635989Y-110260371I1187825J-312369D01*
G01*
X153171889Y-106869593D02*
G75*
G03*
X153365549Y-106797896I-85889J529393D01*
G01*
X151386829Y-113284104D02*
G75*
G03*
X151361127Y-113235225I-223829J-86496D01*
G01*
X151574601Y-106341928D02*
G75*
G03*
X151596921Y-106351757I30599J39228D01*
G01*
X154183297Y-110096493D02*
G75*
G03*
X154112432Y-109879661I-628497J-85407D01*
G01*
X151349760Y-107646575D02*
G75*
G03*
X151195443Y-107594197I-315060J-674725D01*
G01*
X151161759Y-112995915D02*
G75*
G03*
X151170351Y-113039069I112241J-85D01*
G01*
X151361120Y-113235230D02*
G75*
G03*
X151323294Y-113191162I-218020J-148870D01*
G01*
X151319619Y-114951223D02*
G75*
G03*
X151205584Y-114892401I-422219J-678577D01*
G01*
X151623005Y-117442152D02*
X151107369Y-117487187D01*
X151315623Y-106707360D02*
X150897959Y-106734416D01*
X151388533Y-111392191D02*
G75*
G03*
X151589117Y-111406487I200067J1392791D01*
G01*
X152790703Y-110930689D02*
G75*
G03*
X152890965Y-110448842I-2279103J725589D01*
G01*
X151696942Y-104814979D02*
G75*
G03*
X151687549Y-104858980I98458J-44021D01*
G01*
X151586211Y-115995311D02*
G75*
G03*
X151617445Y-116033442I206889J137611D01*
G01*
X151239728Y-110067858D02*
X151261217Y-109988823D01*
X152079507Y-110748765D02*
G75*
G03*
X152028577Y-110730142I-46507J-48235D01*
G01*
X151569795Y-106329362D02*
G75*
G03*
X151574604Y-106341924I12705J-2338D01*
G01*
X151028399Y-114522910D02*
G75*
G03*
X150909441Y-114630154I45701J-170290D01*
G01*
X151227049Y-109300609D02*
G75*
G03*
X151326327Y-109244823I-182949J441809D01*
G01*
X151687548Y-113222156D02*
G75*
G03*
X151682601Y-113179670I-184448J56D01*
G01*
X151623903Y-110536838D02*
X151916989Y-110422077D01*
X151818994Y-104671415D02*
X151891506Y-104617468D01*
X148384417Y-114051511D02*
G75*
G03*
X148394449Y-114154106I67483J-45189D01*
G01*
X148498578Y-113963245D02*
G75*
G03*
X148384381Y-114051487I74522J-214455D01*
G01*
X151626997Y-103736913D02*
X151100174Y-103758152D01*
X151196096Y-116061317D02*
G75*
G03*
X151233924Y-116106303I219904J146517D01*
G01*
X151622717Y-103264722D02*
G75*
G03*
X151653404Y-103195186I-106917J88722D01*
G01*
X151574630Y-114717718D02*
G75*
G03*
X151569839Y-114730602I8470J-10482D01*
G01*
X151374469Y-112684192D02*
G75*
G03*
X151391292Y-112555713I-659469J151692D01*
G01*
X149217324Y-116670520D02*
X147249055Y-116904514D01*
X151667684Y-113133057D02*
G75*
G03*
X151645822Y-113089556I-289284J-118143D01*
G01*
X150208867Y-110712318D02*
X149794413Y-110503139D01*
X148314706Y-110230908D02*
G75*
G03*
X148052912Y-110309276I290894J-1448192D01*
G01*
X149524060Y-104045658D02*
X150448361Y-104033094D01*
X149832319Y-116836102D02*
X150373099Y-116782318D01*
X150928089Y-107257109D02*
X150600236Y-107202619D01*
X150473049Y-117034987D02*
X149864866Y-117017168D01*
X153705006Y-110062919D02*
G75*
G03*
X153469308Y-110124802I-6J-479781D01*
G01*
X149270459Y-104049144D02*
X149524060Y-104045658D01*
X151623901Y-110536833D02*
G75*
G03*
X151526394Y-110590563I170399J-424567D01*
G01*
X151687962Y-115350352D02*
X151677441Y-114940194D01*
X150400024Y-106762774D02*
X149848538Y-106789691D01*
X150775218Y-110889583D02*
X150848591Y-110923963D01*
X151699602Y-112344672D02*
X151716759Y-111857298D01*
X151283947Y-111146245D02*
G75*
G03*
X151556190Y-111161882I174753J664745D01*
G01*
X154092497Y-110609548D02*
G75*
G03*
X154176295Y-110342565I-1141897J505048D01*
G01*
X148394459Y-114154096D02*
G75*
G03*
X148442504Y-114176527I54841J54796D01*
G01*
X151278606Y-107887815D02*
G75*
G03*
X151323303Y-107852749I-140506J225115D01*
G01*
X154114949Y-117391331D02*
G75*
G03*
X154162610Y-117367365I-12449J84131D01*
G01*
X152280337Y-109830998D02*
G75*
G03*
X152201724Y-109759534I-256237J-202902D01*
G01*
X153391726Y-114369943D02*
G75*
G03*
X153365785Y-114262372I-66226J40943D01*
G01*
X151021272Y-111026855D02*
G75*
G03*
X151283946Y-111146250I480128J707655D01*
G01*
X148394920Y-106906047D02*
G75*
G03*
X148384558Y-107008862I57780J-57753D01*
G01*
X147658083Y-111053999D02*
G75*
G03*
X147811567Y-111203784I599717J460999D01*
G01*
X152039921Y-117402184D02*
X151849340Y-117424794D01*
X148195262Y-110693766D02*
G75*
G03*
X148141894Y-110769184I79338J-112734D01*
G01*
X151687549Y-108692154D02*
X151682949Y-108490748D01*
X151594165Y-103616590D02*
X151830591Y-103634322D01*
X150489939Y-103775449D02*
X148736397Y-103821461D01*
X153838795Y-103925059D02*
G75*
G03*
X154068164Y-103896569I-44695J1297359D01*
G01*
X147176186Y-104133056D02*
X149162830Y-104381316D01*
X151278603Y-104921947D02*
G75*
G03*
X151347811Y-104857381I-87203J162847D01*
G01*
X151439740Y-101895283D02*
G75*
G03*
X151421034Y-102051009I954260J-193617D01*
G01*
X152460173Y-110238162D02*
G75*
G03*
X152418369Y-110244779I27J-135538D01*
G01*
X151644295Y-104993103D02*
G75*
G03*
X151666956Y-104948807I-273195J167703D01*
G01*
X151580963Y-117732277D02*
G75*
G03*
X151598062Y-117762869I196537J89777D01*
G01*
X150036748Y-107084730D02*
G75*
G03*
X150074465Y-107102916I54552J64930D01*
G01*
X151860175Y-116506705D02*
G75*
G03*
X151818994Y-116389141I-100175J30905D01*
G01*
X152082254Y-103714178D02*
X151626997Y-103736913D01*
X151196100Y-107972931D02*
G75*
G03*
X151170347Y-108025968I235600J-147169D01*
G01*
X153746253Y-103610883D02*
X153331608Y-103562446D01*
X151617439Y-108006528D02*
G75*
G03*
X151586214Y-108044667I176161J-176072D01*
G01*
X151810421Y-111070626D02*
G75*
G03*
X152021606Y-110883479I-414021J679926D01*
G01*
X152275202Y-110292198D02*
X152418369Y-110244779D01*
X150565176Y-110966581D02*
G75*
G03*
X150578438Y-111005839I53724J-3719D01*
G01*
X151589117Y-111406492D02*
G75*
G03*
X151805285Y-111381351I-417J945492D01*
G01*
X147093826Y-117115941D02*
G75*
G03*
X147117478Y-117144051I111774J70041D01*
G01*
X151822601Y-110105139D02*
X151679790Y-110163288D01*
X150735630Y-110881700D02*
G75*
G03*
X150702914Y-110885633I1870J-153600D01*
G01*
X151643385Y-119160805D02*
G75*
G03*
X151661966Y-118997632I-1050785J202305D01*
G01*
X152368553Y-103460395D02*
X151960138Y-103415025D01*
X151196096Y-112903343D02*
G75*
G03*
X151170280Y-112952014I219404J-147557D01*
G01*
X149530678Y-111292791D02*
X149768819Y-111222158D01*
X154193827Y-103725846D02*
G75*
G03*
X154148971Y-103670737I-101927J-37154D01*
G01*
X151453869Y-114369564D02*
X151716759Y-114406156D01*
X151849039Y-106393547D02*
X151596921Y-106351757D01*
X151391626Y-117950042D02*
X151408143Y-118607055D01*
X153765341Y-110041473D02*
G75*
G03*
X153777995Y-110017680I-34241J33473D01*
G01*
X151541499Y-119264060D02*
G75*
G03*
X151606217Y-119235332I1J87260D01*
G01*
X151581966Y-112986458D02*
G75*
G03*
X151591656Y-113020287I67934J1158D01*
G01*
X151196094Y-108174161D02*
G75*
G03*
X151233923Y-108219488I221206J146161D01*
G01*
X151369434Y-106040259D02*
G75*
G03*
X151391049Y-105943049I-254334J107559D01*
G01*
X150074761Y-113956035D02*
X150321373Y-113907818D01*
X153109421Y-114457585D02*
X153345518Y-114403388D01*
X153110527Y-106601936D02*
X152821067Y-106545367D01*
X151622710Y-103264716D02*
G75*
G03*
X151598062Y-103297687I312990J-259684D01*
G01*
X150933714Y-110970994D02*
X151021277Y-111026848D01*
X153291976Y-110739740D02*
G75*
G03*
X153484842Y-110924230I494924J324340D01*
G01*
X151768707Y-116347630D02*
G75*
G03*
X151818994Y-116389141I249993J251630D01*
G01*
X149526049Y-110933590D02*
G75*
G03*
X149444688Y-110821906I-117349J-10D01*
G01*
X151661966Y-118997632D02*
X151674853Y-118571314D01*
X152085167Y-110790952D02*
G75*
G03*
X152079512Y-110748760I-29267J17552D01*
G01*
X151617377Y-112910464D02*
G75*
G03*
X151590285Y-112951201I178423J-148036D01*
G01*
X151597579Y-117687354D02*
G75*
G03*
X151576989Y-117695631I4821J-41746D01*
G01*
X151577036Y-114752666D02*
G75*
G03*
X151593766Y-114779599I140264J68466D01*
G01*
X153365564Y-106797920D02*
G75*
G03*
X153391306Y-106690025I-40664J66720D01*
G01*
X151586211Y-108108611D02*
G75*
G03*
X151617445Y-108146742I206889J137611D01*
G01*
X151597123Y-114707435D02*
G75*
G03*
X151574604Y-114717686I7877J-47165D01*
G01*
X154191715Y-117267977D02*
G75*
G03*
X154183568Y-117232619I-129515J-11223D01*
G01*
X151199026Y-106170252D02*
G75*
G03*
X150948053Y-106315595I759974J-1601648D01*
G01*
X151150600Y-116441500D02*
X149217324Y-116670520D01*
X152195684Y-117377527D02*
X152039921Y-117402184D01*
X147080255Y-104006136D02*
G75*
G03*
X147081303Y-104043357I151245J-14364D01*
G01*
X148921730Y-104075553D02*
X149069219Y-104060138D01*
X151670325Y-118029270D02*
X151653404Y-117865370D01*
X151585159Y-106666440D02*
X151453869Y-106690736D01*
X151543882Y-110219318D02*
X151439264Y-110263292D01*
X149848538Y-106789691D02*
X149307761Y-106817855D01*
X151687962Y-105710204D02*
X151676694Y-105300096D01*
X149030477Y-110706889D02*
X149444688Y-110821906D01*
X153354911Y-109560395D02*
G75*
G03*
X153047891Y-109646205I558889J-2591805D01*
G01*
X151580953Y-103328274D02*
G75*
G03*
X151572617Y-103352775I117447J-53626D01*
G01*
X151408143Y-102453501D02*
X151391626Y-103110514D01*
X151606238Y-119235351D02*
G75*
G03*
X151643384Y-119160805I-114838J103751D01*
G01*
X151439741Y-119165273D02*
G75*
G03*
X151476994Y-119236510I141759J28773D01*
G01*
X151862815Y-104495720D02*
G75*
G03*
X151772153Y-104448478I-122815J-125080D01*
G01*
X151286698Y-109922430D02*
G75*
G03*
X151261217Y-109988823I532802J-242570D01*
G01*
X151617376Y-112910463D02*
G75*
G03*
X151643751Y-112855069I-96376J79863D01*
G01*
X151726155Y-104763441D02*
G75*
G03*
X151696938Y-104814977I255245J-178759D01*
G01*
X151395449Y-115348657D02*
X151391080Y-115554708D01*
X151161781Y-115963338D02*
G75*
G03*
X151170399Y-116011091I136819J38D01*
G01*
X151317251Y-106103296D02*
G75*
G03*
X151369443Y-106040263I-78951J118496D01*
G01*
X150490397Y-107036699D02*
X151013282Y-107004514D01*
X150422427Y-110610476D02*
G75*
G03*
X150545290Y-110543651I-565727J1186476D01*
G01*
X151196084Y-115865351D02*
G75*
G03*
X151170399Y-115915585I204116J-136049D01*
G01*
X150373099Y-116782318D02*
X151348179Y-116682024D01*
X148052915Y-110309283D02*
G75*
G03*
X147820467Y-110432456I475685J-1178617D01*
G01*
X152953961Y-110093015D02*
G75*
G03*
X152921249Y-110198213I302939J-151885D01*
G01*
X152855008Y-117549013D02*
X153339866Y-117495722D01*
X148149707Y-110858019D02*
G75*
G03*
X148216219Y-110943086I228493J110119D01*
G01*
X151224953Y-110146782D02*
X151239728Y-110067858D01*
X149360666Y-116995610D02*
X148930824Y-116972622D01*
X148829203Y-113875739D02*
G75*
G03*
X148498577Y-113963241I408697J-2212661D01*
G01*
X151677447Y-114940194D02*
G75*
G03*
X151618419Y-114807596I-202047J-10506D01*
G01*
X151617442Y-105027111D02*
G75*
G03*
X151644291Y-104993100I-130742J130811D01*
G01*
X151849151Y-114665493D02*
X152136910Y-114619646D01*
X152473304Y-106489810D02*
X152136676Y-106439292D01*
X151686661Y-110743503D02*
G75*
G03*
X151777850Y-110751097I91439J546703D01*
G01*
X150908300Y-106434137D02*
G75*
G03*
X151013088Y-106534236I145900J47837D01*
G01*
X151916989Y-110422077D02*
X152105967Y-110351623D01*
X149369338Y-116887932D02*
X149832319Y-116836102D01*
X151576568Y-105097218D02*
G75*
G03*
X151586214Y-105129189I57532J-82D01*
G01*
X148924960Y-116955594D02*
G75*
G03*
X148930824Y-116972622I6440J-7306D01*
G01*
X151772153Y-104448478D02*
X151474944Y-104399066D01*
X150057014Y-111293461D02*
G75*
G03*
X149949267Y-111227595I-522114J-733039D01*
G01*
X151395449Y-108772646D02*
X151391968Y-109068067D01*
X151385046Y-116395262D02*
G75*
G03*
X151392349Y-116308902I-151046J56262D01*
G01*
X154106735Y-103655815D02*
X153746253Y-103610883D01*
X152473683Y-114569187D02*
X152819338Y-114514089D01*
X151556189Y-111161878D02*
G75*
G03*
X151810423Y-111070629I-95289J665278D01*
G01*
X149564122Y-107313403D02*
X150852546Y-107527654D01*
X150578427Y-111005849D02*
G75*
G03*
X150638182Y-111057810I220773J193549D01*
G01*
X151644286Y-116067459D02*
G75*
G03*
X151617445Y-116033442I-158086J-97141D01*
G01*
X151597125Y-114707445D02*
X151849151Y-114665493D01*
X151586211Y-108044665D02*
G75*
G03*
X151576551Y-108076638I48289J-32035D01*
G01*
X151543005Y-113697120D02*
G75*
G03*
X151818739Y-113610196I-228905J1206920D01*
G01*
X152145808Y-103696682D02*
G75*
G03*
X152143196Y-103678376I-4608J8682D01*
G01*
X151576585Y-108076638D02*
G75*
G03*
X151586214Y-108108609I58015J38D01*
G01*
X151608199Y-110722702D02*
G75*
G03*
X151686662Y-110743499I150501J409402D01*
G01*
X154176293Y-110342565D02*
G75*
G03*
X154183289Y-110096494I-743193J144265D01*
G01*
X150794713Y-109671681D02*
G75*
G03*
X150676370Y-109948030I871487J-536719D01*
G01*
X147811575Y-111203773D02*
G75*
G03*
X148007518Y-111312303I529025J723973D01*
G01*
X151206742Y-113463893D02*
G75*
G03*
X151349115Y-113409211I-118642J521593D01*
G01*
X151233923Y-105240185D02*
G75*
G03*
X151278609Y-105272478I141677J148985D01*
G01*
X151170343Y-113039072D02*
G75*
G03*
X151196091Y-113085426I214957J89072D01*
G01*
X153365780Y-114262381D02*
G75*
G03*
X153171424Y-114190904I-281080J-464319D01*
G01*
X151421034Y-102051009D02*
X151408143Y-102453501D01*
X150279370Y-111432234D02*
X150589179Y-111589805D01*
X151278612Y-115788083D02*
G75*
G03*
X151338731Y-115737768I-90812J169583D01*
G01*
X153171424Y-114190903D02*
G75*
G03*
X152713276Y-114141149I-705424J-4361497D01*
G01*
X151598064Y-103297688D02*
G75*
G03*
X151580962Y-103328278I177136J-119112D01*
G01*
X151972906Y-111781843D02*
G75*
G03*
X152322341Y-111608005I-316706J1074743D01*
G01*
X151830591Y-103634322D02*
X152016134Y-103656010D01*
X148007518Y-111312304D02*
G75*
G03*
X148308102Y-111386894I420082J1049904D01*
G01*
X151233923Y-107924215D02*
G75*
G03*
X151196091Y-107972926I217777J-208185D01*
G01*
X153457824Y-117127998D02*
X152457167Y-117087218D01*
X151394170Y-104664863D02*
G75*
G03*
X151351634Y-104630713I-41670J-8337D01*
G01*
X151421039Y-119009547D02*
G75*
G03*
X151439745Y-119165272I971761J37747D01*
G01*
X151819019Y-107650871D02*
G75*
G03*
X151870550Y-107544698I-66919J98071D01*
G01*
X151013282Y-107004514D02*
X151643283Y-106973419D01*
X152372180Y-117599779D02*
X152855008Y-117549013D01*
X149307761Y-106817855D02*
X148843673Y-106850067D01*
X153596040Y-109541480D02*
G75*
G03*
X153354910Y-109560392I-50540J-902320D01*
G01*
X154162599Y-117367354D02*
G75*
G03*
X154180353Y-117341174I-58899J59054D01*
G01*
X151170390Y-115915582D02*
G75*
G03*
X151161769Y-115963338I128310J-47818D01*
G01*
X147077820Y-117007350D02*
G75*
G03*
X147072369Y-117044108I120480J-36650D01*
G01*
X151805283Y-111381344D02*
G75*
G03*
X152018384Y-111307207I-249583J1060744D01*
G01*
X149818891Y-114269716D02*
X150363557Y-114296615D01*
X151678250Y-102802619D02*
X151674853Y-102489242D01*
X150448361Y-104033094D02*
X152075519Y-103984280D01*
X151687545Y-116201576D02*
G75*
G03*
X151696938Y-116245579I107655J-24D01*
G01*
X153705006Y-110062932D02*
G75*
G03*
X153739648Y-110057419I-6J111632D01*
G01*
X151205816Y-111349328D02*
G75*
G03*
X151388532Y-111392195I334684J1015728D01*
G01*
X151618419Y-106252960D02*
G75*
G03*
X151593762Y-106280889I212481J-212440D01*
G01*
X151233912Y-108219499D02*
G75*
G03*
X151278609Y-108251898I140788J147199D01*
G01*
X151670325Y-103031286D02*
X151678250Y-102802619D01*
X151170392Y-116011093D02*
G75*
G03*
X151196091Y-116061321I229808J85893D01*
G01*
X151682418Y-107881061D02*
G75*
G03*
X151687549Y-107838400I-175618J42761D01*
G01*
X150363557Y-114296615D02*
X150865152Y-114325140D01*
X149564122Y-113747153D02*
X148829203Y-113875739D01*
X149155998Y-111374984D02*
G75*
G03*
X149530678Y-111292791I-290398J2218884D01*
G01*
X153777978Y-110017676D02*
G75*
G03*
X153776417Y-109989893I-52678J10976D01*
G01*
X151891506Y-104617469D02*
G75*
G03*
X151913803Y-104582446I-41406J50969D01*
G01*
X147793092Y-103862169D02*
X147178071Y-103904118D01*
X150879223Y-113528497D02*
X149564122Y-113747153D01*
X151338738Y-115737774D02*
G75*
G03*
X151373893Y-115667551I-151338J119674D01*
G01*
X153469309Y-110124804D02*
G75*
G03*
X153293550Y-110294618I238291J-422496D01*
G01*
X151278609Y-104921957D02*
G75*
G03*
X151233924Y-104954253I96691J-180843D01*
G01*
X151572648Y-103352782D02*
G75*
G03*
X151576989Y-103364925I11552J-2718D01*
G01*
X151818990Y-107650830D02*
G75*
G03*
X151768707Y-107692346I199110J-292370D01*
G01*
X153528761Y-109901095D02*
G75*
G03*
X153319363Y-109913125I-41861J-1099805D01*
G01*
X151577002Y-103364908D02*
G75*
G03*
X151597573Y-103373227I25398J33208D01*
G01*
X150905375Y-111729995D02*
G75*
G03*
X151147164Y-111811846I755625J1834095D01*
G01*
X151617444Y-105027113D02*
G75*
G03*
X151586214Y-105065247I176356J-176287D01*
G01*
X152743264Y-109751457D02*
X152551321Y-109553048D01*
X151351613Y-116206237D02*
G75*
G03*
X151278609Y-116138598I-166013J-105963D01*
G01*
X151161766Y-105097218D02*
G75*
G03*
X151170399Y-105144971I135934J-82D01*
G01*
X148721257Y-111406128D02*
G75*
G03*
X149155999Y-111374991I-47657J3715928D01*
G01*
X151391314Y-115107055D02*
X151395449Y-115348657D01*
X152197191Y-109950385D02*
G75*
G03*
X152279248Y-109889290I-93091J210685D01*
G01*
X153339866Y-117495722D02*
X153756840Y-117442386D01*
X151338605Y-105322519D02*
G75*
G03*
X151278609Y-105272478I-150605J-119581D01*
G01*
X148843673Y-106850067D02*
X148443393Y-106883419D01*
X151818989Y-104671408D02*
G75*
G03*
X151768707Y-104712926I199311J-292592D01*
G01*
X153756840Y-117442386D02*
X154114945Y-117391301D01*
X151674853Y-118571314D02*
X151678250Y-118257937D01*
X151161779Y-108075078D02*
G75*
G03*
X151170404Y-108123429I139721J-22D01*
G01*
X148915539Y-104095440D02*
G75*
G03*
X148964929Y-104118158I61261J68140D01*
G01*
X152323969Y-109380419D02*
G75*
G03*
X152183956Y-109314653I-566469J-1024081D01*
G01*
X150760213Y-111133392D02*
X150638182Y-111057810D01*
X147081292Y-104043359D02*
G75*
G03*
X147091055Y-104076976I132508J20259D01*
G01*
X151326329Y-109244825D02*
G75*
G03*
X151373253Y-109179661I-76029J104225D01*
G01*
X151315623Y-106707361D02*
G75*
G03*
X151453869Y-106690736I-90823J1338361D01*
G01*
X151391562Y-108513660D02*
X151395449Y-108772646D01*
X151278607Y-115788075D02*
G75*
G03*
X151233924Y-115820373I97193J-181525D01*
G01*
X153319362Y-109913117D02*
G75*
G03*
X153133331Y-109965468I121338J-787883D01*
G01*
X151870511Y-107544701D02*
G75*
G03*
X151804103Y-107449942I-111511J-7499D01*
G01*
X151617453Y-115893242D02*
G75*
G03*
X151676694Y-115760460I-143753J143742D01*
G01*
X151391320Y-115107055D02*
G75*
G03*
X151370411Y-115011002I-274020J-9345D01*
G01*
X151960138Y-103415025D02*
X151597573Y-103373227D01*
X151013283Y-114055960D02*
X150490397Y-114023520D01*
X151643283Y-106973419D02*
X152714231Y-106919363D01*
X150036703Y-113974626D02*
G75*
G03*
X150042256Y-113991316I6297J-7174D01*
G01*
X150589179Y-111589805D02*
X150905375Y-111729995D01*
X147563669Y-110734929D02*
G75*
G03*
X147569836Y-110888834I264631J-66471D01*
G01*
X151100174Y-103758152D02*
X150489939Y-103775449D01*
X151940418Y-109649522D02*
G75*
G03*
X151668699Y-109643279I-151318J-669678D01*
G01*
X151334014Y-116430646D02*
G75*
G03*
X151385032Y-116395257I86J54346D01*
G01*
X147117476Y-116944317D02*
G75*
G03*
X147093820Y-116972345I87424J-97783D01*
G01*
X151682599Y-113179671D02*
G75*
G03*
X151667683Y-113133057I-305399J-72029D01*
G01*
X151375147Y-108383246D02*
G75*
G03*
X151340187Y-108305704I-205847J-46154D01*
G01*
X151323289Y-113191167D02*
G75*
G03*
X151278609Y-113159178I-144289J-154333D01*
G01*
X151777850Y-110751096D02*
G75*
G03*
X151877414Y-110744757I250J781196D01*
G01*
X151041558Y-104344357D02*
X150373099Y-104277419D01*
X151586211Y-115931365D02*
G75*
G03*
X151576551Y-115963338I48289J-32035D01*
G01*
X151391558Y-108513660D02*
G75*
G03*
X151375127Y-108383251I-690358J-20740D01*
G01*
X148299496Y-110646892D02*
G75*
G03*
X148195275Y-110693784I69804J-294408D01*
G01*
X151013088Y-106534237D02*
G75*
G03*
X151341907Y-106605595I780512J2803337D01*
G01*
X153013243Y-110027738D02*
G75*
G03*
X152953972Y-110093020I87357J-138862D01*
G01*
X151391042Y-105503774D02*
G75*
G03*
X151373783Y-105392212I-514142J-22426D01*
G01*
X151676694Y-115760460D02*
X151687962Y-115350352D01*
X151476996Y-119236509D02*
G75*
G03*
X151541499Y-119264068I64504J61709D01*
G01*
X151593764Y-114779600D02*
G75*
G03*
X151618419Y-114807596I231936J179400D01*
G01*
X151849340Y-117424794D02*
X151623005Y-117442152D01*
X153391322Y-106690015D02*
G75*
G03*
X153344511Y-106656026I-64922J-40185D01*
G01*
X150775215Y-110889589D02*
G75*
G03*
X150735630Y-110881693I-38315J-88911D01*
G01*
X151643377Y-101899752D02*
G75*
G03*
X151606217Y-101825224I-152177J-29348D01*
G01*
X151590290Y-112951204D02*
G75*
G03*
X151581971Y-112986458I65210J-33996D01*
G01*
X149435818Y-111031112D02*
G75*
G03*
X149526009Y-110933590I-7618J97512D01*
G01*
X150909407Y-114630141D02*
G75*
G03*
X150949047Y-114754692I97793J-37459D01*
G01*
X151653421Y-117865368D02*
G75*
G03*
X151622713Y-117795837I-137621J-19232D01*
G01*
X152195684Y-117377524D02*
G75*
G03*
X152213329Y-117356593I-3584J20924D01*
G01*
X150897959Y-106734416D02*
X150400024Y-106762774D01*
X150702913Y-110885630D02*
G75*
G03*
X150662316Y-110897256I91487J-396170D01*
G01*
X152343684Y-111052617D02*
G75*
G03*
X152426681Y-110877275I-414084J303317D01*
G01*
X148443396Y-106883448D02*
G75*
G03*
X148394886Y-106906013I6804J-78052D01*
G01*
X151688279Y-112537050D02*
X151699602Y-112344672D01*
X151586198Y-105065236D02*
G75*
G03*
X151576551Y-105097218I47802J-31864D01*
G01*
X151392343Y-116308903D02*
G75*
G03*
X151351622Y-116206232I-286943J-54397D01*
G01*
X150852546Y-107527654D02*
X151195443Y-107594197D01*
X151668636Y-108326165D02*
X151647141Y-108201211D01*
X151643751Y-112855069D02*
X151668369Y-112711913D01*
X151233917Y-115820365D02*
G75*
G03*
X151196091Y-115865355I182383J-191735D01*
G01*
X154068163Y-103896563D02*
G75*
G03*
X154147294Y-103859977I-42163J195063D01*
G01*
X150618839Y-117294499D02*
X151521176Y-117306998D01*
X151220189Y-110356586D02*
X151220189Y-110212501D01*
X151170298Y-112952021D02*
G75*
G03*
X151161769Y-112995915I108602J-43879D01*
G01*
X151147164Y-111811846D02*
X151395449Y-111878441D01*
X152082255Y-103714199D02*
G75*
G03*
X152145788Y-103696645I-8055J152899D01*
G01*
X151576585Y-115963338D02*
G75*
G03*
X151586214Y-115995309I58015J38D01*
G01*
X148439372Y-111033952D02*
G75*
G03*
X148939486Y-111052320I458828J5675052D01*
G01*
X151395449Y-111878441D02*
X151395449Y-112313845D01*
X150662315Y-110897253D02*
G75*
G03*
X150620837Y-110913890I143085J-416747D01*
G01*
X152205274Y-111193850D02*
G75*
G03*
X152343690Y-111052621I-420274J550350D01*
G01*
X153968606Y-109697802D02*
G75*
G03*
X153794270Y-109587427I-418406J-467998D01*
G01*
X150620839Y-110913894D02*
G75*
G03*
X150584953Y-110933418I129361J-280506D01*
G01*
X151078737Y-103572333D02*
X151594165Y-103616590D01*
X151408143Y-118607055D02*
X151421034Y-119009547D01*
X151726160Y-116297112D02*
G75*
G03*
X151768707Y-116347630I304540J213312D01*
G01*
X147145394Y-117160453D02*
G75*
G03*
X147287128Y-117186604I158606J462453D01*
G01*
X151546874Y-110689416D02*
G75*
G03*
X151608197Y-110722708I144326J192716D01*
G01*
X153739645Y-110057408D02*
G75*
G03*
X153765335Y-110041467I-19445J60008D01*
G01*
X151386985Y-107760604D02*
G75*
G03*
X151395449Y-107718307I-101485J42304D01*
G01*
X150629042Y-110407089D02*
G75*
G03*
X150635989Y-110260371I-1547442J146789D01*
G01*
X151334014Y-116430700D02*
G75*
G03*
X151150600Y-116441500I-14J-1562600D01*
G01*
X150490397Y-114023520D02*
X150042256Y-113991316D01*
X151510487Y-110636702D02*
G75*
G03*
X151546873Y-110689417I96513J27702D01*
G01*
X151618405Y-106252946D02*
G75*
G03*
X151677441Y-106120362I-143305J143246D01*
G01*
X151526408Y-110590583D02*
G75*
G03*
X151510470Y-110636707I24892J-34417D01*
G01*
X152714231Y-106919362D02*
G75*
G03*
X153171886Y-106869577I-246231J4391962D01*
G01*
X150921915Y-117567771D02*
G75*
G03*
X150923318Y-117677596I46385J-54329D01*
G01*
X151679790Y-110163288D02*
X151543882Y-110219318D01*
X151666960Y-107928229D02*
G75*
G03*
X151682428Y-107881063I-292760J122129D01*
G01*
X150848591Y-110923963D02*
X150933714Y-110970994D01*
X153709267Y-110966755D02*
G75*
G03*
X153925437Y-110855087I-63067J387155D01*
G01*
X151521176Y-117306998D02*
X151786570Y-117310564D01*
X151206740Y-113463886D02*
X150879223Y-113528497D01*
X151163821Y-117833825D02*
X151391626Y-117950042D01*
X151768705Y-104712924D02*
G75*
G03*
X151726161Y-104763445I263395J-264976D01*
G01*
X149435818Y-111031118D02*
X148939486Y-111052320D01*
X149289178Y-114241690D02*
X149818891Y-114269716D01*
X151586219Y-105129186D02*
G75*
G03*
X151617445Y-105167322I207181J137786D01*
G01*
X151913765Y-104582437D02*
G75*
G03*
X151906942Y-104547023I-41665J10337D01*
G01*
X151818756Y-113610234D02*
G75*
G03*
X151878260Y-113514995I-41656J92234D01*
G01*
X147088510Y-103971022D02*
G75*
G03*
X147080256Y-104006136I125290J-47978D01*
G01*
X151233922Y-104954251D02*
G75*
G03*
X151196091Y-104999235I182578J-191949D01*
G01*
X151341907Y-106605595D02*
X151557279Y-106640100D01*
X152136910Y-114619646D02*
X152473683Y-114569187D01*
X150602842Y-110485910D02*
G75*
G03*
X150629047Y-110407089I-157442J96110D01*
G01*
X148966351Y-116936934D02*
X149369338Y-116887932D01*
X151682432Y-104901644D02*
G75*
G03*
X151687549Y-104858980I-175132J42644D01*
G01*
X151008830Y-111268046D02*
G75*
G03*
X151205816Y-111349327I654170J1306046D01*
G01*
X151541499Y-101796499D02*
G75*
G03*
X151476994Y-101824046I1J-89301D01*
G01*
X151340181Y-108305708D02*
G75*
G03*
X151278609Y-108251898I-147281J-106392D01*
G01*
X151373793Y-105392209D02*
G75*
G03*
X151338602Y-105322521I-185793J-50091D01*
G01*
X151395454Y-113330251D02*
G75*
G03*
X151386833Y-113284102I-127554J51D01*
G01*
X151285437Y-114352173D02*
X151453869Y-114369564D01*
X153794271Y-109587426D02*
G75*
G03*
X153596039Y-109541491I-231671J-549074D01*
G01*
X151950439Y-110053860D02*
X151822601Y-110105139D01*
X150584976Y-110933455D02*
G75*
G03*
X150565190Y-110966582I22724J-36045D01*
G01*
X151170384Y-105049459D02*
G75*
G03*
X151161769Y-105097218I127416J-47641D01*
G01*
X152821067Y-106545367D02*
X152473304Y-106489810D01*
X149069219Y-104060138D02*
X149270459Y-104049144D01*
X152819338Y-114514089D02*
X153109421Y-114457585D01*
X151591654Y-113020288D02*
G75*
G03*
X151619921Y-113056498I160546J96188D01*
G01*
X151647135Y-108201212D02*
G75*
G03*
X151617445Y-108146742I-107535J-23288D01*
G01*
X150600236Y-107202619D02*
X150316829Y-107150726D01*
X151598063Y-117762868D02*
G75*
G03*
X151622713Y-117795837I336737J226068D01*
G01*
X151768708Y-107692347D02*
G75*
G03*
X151726161Y-107742865I263092J-264753D01*
G01*
X154190428Y-117306122D02*
G75*
G03*
X154191718Y-117267977I-157628J24422D01*
G01*
X147108434Y-104101427D02*
G75*
G03*
X147176186Y-104133056I82866J89127D01*
G01*
X154183554Y-117232624D02*
G75*
G03*
X154096456Y-117168010I-94354J-36176D01*
G01*
X148966351Y-116936938D02*
G75*
G03*
X148924919Y-116955547I9449J-76462D01*
G01*
X152197189Y-109950380D02*
X151950439Y-110053860D01*
X150948062Y-106315608D02*
G75*
G03*
X150908316Y-106434132I59538J-85892D01*
G01*
X151522869Y-107361909D02*
X150928089Y-107257109D01*
X147093820Y-116972345D02*
G75*
G03*
X147077834Y-117007354I123080J-77355D01*
G01*
X151107371Y-117487204D02*
G75*
G03*
X150921901Y-117567754I39129J-343896D01*
G01*
X151361131Y-107807930D02*
G75*
G03*
X151386966Y-107760596I-213831J147430D01*
G01*
X151576997Y-117695641D02*
G75*
G03*
X151572617Y-117707781I7203J-9459D01*
G01*
X151323308Y-107852754D02*
G75*
G03*
X151361127Y-107807927I-210608J216054D01*
G01*
X153331608Y-103562446D02*
X152849126Y-103510925D01*
X149162830Y-104381316D02*
X151052723Y-104615337D01*
X151617439Y-115893228D02*
G75*
G03*
X151586214Y-115931367I176161J-176072D01*
G01*
X152322338Y-111608001D02*
G75*
G03*
X152598936Y-111321968I-718138J971201D01*
G01*
X151395449Y-112313845D02*
X151391292Y-112555713D01*
X151668697Y-109643268D02*
G75*
G03*
X151437062Y-109740375I100703J-565032D01*
G01*
X151339496Y-112763888D02*
G75*
G03*
X151374477Y-112684194I-192196J131888D01*
G01*
X151666959Y-104948808D02*
G75*
G03*
X151682428Y-104901643I-292359J122008D01*
G01*
X151644285Y-107972516D02*
G75*
G03*
X151666956Y-107928227I-271485J166916D01*
G01*
X152018384Y-111307206D02*
G75*
G03*
X152205267Y-111193841I-436084J929606D01*
G01*
X151373887Y-115667549D02*
G75*
G03*
X151391080Y-115554708I-508787J135249D01*
G01*
X148498311Y-107097229D02*
G75*
G03*
X148828636Y-107184723I736889J2114729D01*
G01*
X150422428Y-110610478D02*
X150208867Y-110712318D01*
X148308102Y-111386893D02*
G75*
G03*
X148721257Y-111406131I368498J3467793D01*
G01*
X151572619Y-117707781D02*
G75*
G03*
X151580962Y-117732278I127281J29681D01*
G01*
X151687544Y-113222156D02*
G75*
G03*
X151696906Y-113265968I107456J56D01*
G01*
X151196096Y-104999238D02*
G75*
G03*
X151170399Y-105049465I204404J-136262D01*
G01*
X151577025Y-106307607D02*
G75*
G03*
X151569839Y-106329370I74275J-36593D01*
G01*
X151170397Y-108123431D02*
G75*
G03*
X151196091Y-108174163I232403J85831D01*
G01*
X152279257Y-109889297D02*
G75*
G03*
X152280327Y-109831006I-34957J29797D01*
G01*
X152136676Y-106439292D02*
X151849039Y-106393547D01*
X151661960Y-102062924D02*
G75*
G03*
X151643384Y-101899751I-1070060J-39176D01*
G01*
X151804104Y-107449939D02*
G75*
G03*
X151522869Y-107361909I-529304J-1197761D01*
G01*
X147820475Y-110432468D02*
G75*
G03*
X147646924Y-110581028I546025J-813532D01*
G01*
X151653404Y-103195186D02*
X151670325Y-103031286D01*
X147287128Y-117186604D02*
X149036448Y-117246079D01*
X152028577Y-110730142D02*
X151877414Y-110744757D01*
X151008830Y-111268047D02*
X150760213Y-111133392D01*
X151593764Y-106280891D02*
G75*
G03*
X151577032Y-106307610I122336J-95209D01*
G01*
X151477011Y-101824062D02*
G75*
G03*
X151439745Y-101895284I104689J-100138D01*
G01*
X150545281Y-110543636D02*
G75*
G03*
X150602830Y-110485902I-91181J148436D01*
G01*
X154148964Y-103670748D02*
G75*
G03*
X154106735Y-103655815I-55564J-89952D01*
G01*
X151716759Y-114406156D02*
X151373678Y-114453291D01*
X151278615Y-112822226D02*
G75*
G03*
X151339499Y-112763890I-109215J174926D01*
G01*
X151716759Y-111857298D02*
X151972903Y-111781831D01*
X152457167Y-117087218D02*
X150473049Y-117034987D01*
X147117492Y-117144035D02*
G75*
G03*
X147145394Y-117160453I54108J60035D01*
G01*
X151395449Y-105706027D02*
X151391049Y-105943049D01*
X154194099Y-103795885D02*
G75*
G03*
X154193854Y-103725836I-96899J34685D01*
G01*
X154112433Y-109879661D02*
G75*
G03*
X153968614Y-109697793I-593633J-321639D01*
G01*
X150057019Y-111293454D02*
G75*
G03*
X150279370Y-111432234I1250581J1756154D01*
G01*
X150909257Y-103386616D02*
G75*
G03*
X150904593Y-103493909I42243J-55584D01*
G01*
X151569841Y-114730602D02*
G75*
G03*
X151577032Y-114752668I82559J14702D01*
G01*
X149864866Y-117017168D02*
X149360666Y-116995610D01*
X151668369Y-112711913D02*
X151688279Y-112537050D01*
X152426683Y-110877276D02*
G75*
G03*
X152485627Y-110582061I-2650383J682676D01*
G01*
X151643283Y-114087137D02*
X151013283Y-114055960D01*
X150949042Y-114754699D02*
G75*
G03*
X151205584Y-114892401I837358J1252199D01*
G01*
X150321373Y-113907818D02*
X150609776Y-113855613D01*
X149794412Y-110503141D02*
G75*
G03*
X149402526Y-110335487I-1520912J-3013259D01*
G01*
X149030477Y-110706889D02*
G75*
G03*
X148594065Y-110630079I-910477J-3894911D01*
G01*
X147178073Y-103904139D02*
G75*
G03*
X147088509Y-103971021I8327J-104561D01*
G01*
X153345521Y-114403400D02*
G75*
G03*
X153391685Y-114369918I-17721J73000D01*
G01*
X151347808Y-104857379D02*
G75*
G03*
X151392059Y-104753619I-305208J191479D01*
G01*
D11*
X161619047Y-129071428D02*
X162380952Y-129071428D01*
X113619047Y-129071428D02*
X114380952Y-129071428D01*
X114000000Y-129452380D02*
X114000000Y-128690476D01*
X113619047Y-96071428D02*
X114380952Y-96071428D01*
X114000000Y-96452380D02*
X114000000Y-95690476D01*
X161619047Y-96071428D02*
X162380952Y-96071428D01*
D12*
%TO.C,D8*%
X156286904Y-123802380D02*
X156286904Y-122802380D01*
X156525000Y-122802380D01*
X156667857Y-122850000D01*
X156763095Y-122945238D01*
X156810714Y-123040476D01*
X156858333Y-123230952D01*
X156858333Y-123373809D01*
X156810714Y-123564285D01*
X156763095Y-123659523D01*
X156667857Y-123754761D01*
X156525000Y-123802380D01*
X156286904Y-123802380D01*
X157429761Y-123230952D02*
X157334523Y-123183333D01*
X157286904Y-123135714D01*
X157239285Y-123040476D01*
X157239285Y-122992857D01*
X157286904Y-122897619D01*
X157334523Y-122850000D01*
X157429761Y-122802380D01*
X157620238Y-122802380D01*
X157715476Y-122850000D01*
X157763095Y-122897619D01*
X157810714Y-122992857D01*
X157810714Y-123040476D01*
X157763095Y-123135714D01*
X157715476Y-123183333D01*
X157620238Y-123230952D01*
X157429761Y-123230952D01*
X157334523Y-123278571D01*
X157286904Y-123326190D01*
X157239285Y-123421428D01*
X157239285Y-123611904D01*
X157286904Y-123707142D01*
X157334523Y-123754761D01*
X157429761Y-123802380D01*
X157620238Y-123802380D01*
X157715476Y-123754761D01*
X157763095Y-123707142D01*
X157810714Y-123611904D01*
X157810714Y-123421428D01*
X157763095Y-123326190D01*
X157715476Y-123278571D01*
X157620238Y-123230952D01*
%TO.C,VDD_THT2*%
X111073809Y-91202380D02*
X111407142Y-92202380D01*
X111740476Y-91202380D01*
X112073809Y-92202380D02*
X112073809Y-91202380D01*
X112311904Y-91202380D01*
X112454761Y-91250000D01*
X112550000Y-91345238D01*
X112597619Y-91440476D01*
X112645238Y-91630952D01*
X112645238Y-91773809D01*
X112597619Y-91964285D01*
X112550000Y-92059523D01*
X112454761Y-92154761D01*
X112311904Y-92202380D01*
X112073809Y-92202380D01*
X113073809Y-92202380D02*
X113073809Y-91202380D01*
X113311904Y-91202380D01*
X113454761Y-91250000D01*
X113550000Y-91345238D01*
X113597619Y-91440476D01*
X113645238Y-91630952D01*
X113645238Y-91773809D01*
X113597619Y-91964285D01*
X113550000Y-92059523D01*
X113454761Y-92154761D01*
X113311904Y-92202380D01*
X113073809Y-92202380D01*
X113835714Y-92297619D02*
X114597619Y-92297619D01*
X114692857Y-91202380D02*
X115264285Y-91202380D01*
X114978571Y-92202380D02*
X114978571Y-91202380D01*
X115597619Y-92202380D02*
X115597619Y-91202380D01*
X115597619Y-91678571D02*
X116169047Y-91678571D01*
X116169047Y-92202380D02*
X116169047Y-91202380D01*
X116502380Y-91202380D02*
X117073809Y-91202380D01*
X116788095Y-92202380D02*
X116788095Y-91202380D01*
X117359523Y-91297619D02*
X117407142Y-91250000D01*
X117502380Y-91202380D01*
X117740476Y-91202380D01*
X117835714Y-91250000D01*
X117883333Y-91297619D01*
X117930952Y-91392857D01*
X117930952Y-91488095D01*
X117883333Y-91630952D01*
X117311904Y-92202380D01*
X117930952Y-92202380D01*
%TO.C,R7*%
X125102380Y-102166666D02*
X124626190Y-102500000D01*
X125102380Y-102738095D02*
X124102380Y-102738095D01*
X124102380Y-102357142D01*
X124150000Y-102261904D01*
X124197619Y-102214285D01*
X124292857Y-102166666D01*
X124435714Y-102166666D01*
X124530952Y-102214285D01*
X124578571Y-102261904D01*
X124626190Y-102357142D01*
X124626190Y-102738095D01*
X124102380Y-101833333D02*
X124102380Y-101166666D01*
X125102380Y-101595238D01*
%TO.C,U1*%
X139452380Y-105919904D02*
X140261904Y-105919904D01*
X140357142Y-105872285D01*
X140404761Y-105824666D01*
X140452380Y-105729428D01*
X140452380Y-105538952D01*
X140404761Y-105443714D01*
X140357142Y-105396095D01*
X140261904Y-105348476D01*
X139452380Y-105348476D01*
X140452380Y-104348476D02*
X140452380Y-104919904D01*
X140452380Y-104634190D02*
X139452380Y-104634190D01*
X139595238Y-104729428D01*
X139690476Y-104824666D01*
X139738095Y-104919904D01*
%TO.C,D6*%
X116802380Y-117738095D02*
X115802380Y-117738095D01*
X115802380Y-117500000D01*
X115850000Y-117357142D01*
X115945238Y-117261904D01*
X116040476Y-117214285D01*
X116230952Y-117166666D01*
X116373809Y-117166666D01*
X116564285Y-117214285D01*
X116659523Y-117261904D01*
X116754761Y-117357142D01*
X116802380Y-117500000D01*
X116802380Y-117738095D01*
X115802380Y-116309523D02*
X115802380Y-116500000D01*
X115850000Y-116595238D01*
X115897619Y-116642857D01*
X116040476Y-116738095D01*
X116230952Y-116785714D01*
X116611904Y-116785714D01*
X116707142Y-116738095D01*
X116754761Y-116690476D01*
X116802380Y-116595238D01*
X116802380Y-116404761D01*
X116754761Y-116309523D01*
X116707142Y-116261904D01*
X116611904Y-116214285D01*
X116373809Y-116214285D01*
X116278571Y-116261904D01*
X116230952Y-116309523D01*
X116183333Y-116404761D01*
X116183333Y-116595238D01*
X116230952Y-116690476D01*
X116278571Y-116738095D01*
X116373809Y-116785714D01*
%TO.C,GND_THT1*%
X159145238Y-91250000D02*
X159050000Y-91202380D01*
X158907142Y-91202380D01*
X158764285Y-91250000D01*
X158669047Y-91345238D01*
X158621428Y-91440476D01*
X158573809Y-91630952D01*
X158573809Y-91773809D01*
X158621428Y-91964285D01*
X158669047Y-92059523D01*
X158764285Y-92154761D01*
X158907142Y-92202380D01*
X159002380Y-92202380D01*
X159145238Y-92154761D01*
X159192857Y-92107142D01*
X159192857Y-91773809D01*
X159002380Y-91773809D01*
X159621428Y-92202380D02*
X159621428Y-91202380D01*
X160192857Y-92202380D01*
X160192857Y-91202380D01*
X160669047Y-92202380D02*
X160669047Y-91202380D01*
X160907142Y-91202380D01*
X161050000Y-91250000D01*
X161145238Y-91345238D01*
X161192857Y-91440476D01*
X161240476Y-91630952D01*
X161240476Y-91773809D01*
X161192857Y-91964285D01*
X161145238Y-92059523D01*
X161050000Y-92154761D01*
X160907142Y-92202380D01*
X160669047Y-92202380D01*
X161430952Y-92297619D02*
X162192857Y-92297619D01*
X162288095Y-91202380D02*
X162859523Y-91202380D01*
X162573809Y-92202380D02*
X162573809Y-91202380D01*
X163192857Y-92202380D02*
X163192857Y-91202380D01*
X163192857Y-91678571D02*
X163764285Y-91678571D01*
X163764285Y-92202380D02*
X163764285Y-91202380D01*
X164097619Y-91202380D02*
X164669047Y-91202380D01*
X164383333Y-92202380D02*
X164383333Y-91202380D01*
X165526190Y-92202380D02*
X164954761Y-92202380D01*
X165240476Y-92202380D02*
X165240476Y-91202380D01*
X165145238Y-91345238D01*
X165050000Y-91440476D01*
X164954761Y-91488095D01*
%TO.C,R1*%
X137802380Y-102166666D02*
X137326190Y-102500000D01*
X137802380Y-102738095D02*
X136802380Y-102738095D01*
X136802380Y-102357142D01*
X136850000Y-102261904D01*
X136897619Y-102214285D01*
X136992857Y-102166666D01*
X137135714Y-102166666D01*
X137230952Y-102214285D01*
X137278571Y-102261904D01*
X137326190Y-102357142D01*
X137326190Y-102738095D01*
X137802380Y-101214285D02*
X137802380Y-101785714D01*
X137802380Y-101500000D02*
X136802380Y-101500000D01*
X136945238Y-101595238D01*
X137040476Y-101690476D01*
X137088095Y-101785714D01*
%TO.C,D3*%
X155802380Y-117738095D02*
X154802380Y-117738095D01*
X154802380Y-117500000D01*
X154850000Y-117357142D01*
X154945238Y-117261904D01*
X155040476Y-117214285D01*
X155230952Y-117166666D01*
X155373809Y-117166666D01*
X155564285Y-117214285D01*
X155659523Y-117261904D01*
X155754761Y-117357142D01*
X155802380Y-117500000D01*
X155802380Y-117738095D01*
X154802380Y-116833333D02*
X154802380Y-116214285D01*
X155183333Y-116547619D01*
X155183333Y-116404761D01*
X155230952Y-116309523D01*
X155278571Y-116261904D01*
X155373809Y-116214285D01*
X155611904Y-116214285D01*
X155707142Y-116261904D01*
X155754761Y-116309523D01*
X155802380Y-116404761D01*
X155802380Y-116690476D01*
X155754761Y-116785714D01*
X155707142Y-116833333D01*
%TO.C,GND_THT2*%
X159145238Y-128250000D02*
X159050000Y-128202380D01*
X158907142Y-128202380D01*
X158764285Y-128250000D01*
X158669047Y-128345238D01*
X158621428Y-128440476D01*
X158573809Y-128630952D01*
X158573809Y-128773809D01*
X158621428Y-128964285D01*
X158669047Y-129059523D01*
X158764285Y-129154761D01*
X158907142Y-129202380D01*
X159002380Y-129202380D01*
X159145238Y-129154761D01*
X159192857Y-129107142D01*
X159192857Y-128773809D01*
X159002380Y-128773809D01*
X159621428Y-129202380D02*
X159621428Y-128202380D01*
X160192857Y-129202380D01*
X160192857Y-128202380D01*
X160669047Y-129202380D02*
X160669047Y-128202380D01*
X160907142Y-128202380D01*
X161050000Y-128250000D01*
X161145238Y-128345238D01*
X161192857Y-128440476D01*
X161240476Y-128630952D01*
X161240476Y-128773809D01*
X161192857Y-128964285D01*
X161145238Y-129059523D01*
X161050000Y-129154761D01*
X160907142Y-129202380D01*
X160669047Y-129202380D01*
X161430952Y-129297619D02*
X162192857Y-129297619D01*
X162288095Y-128202380D02*
X162859523Y-128202380D01*
X162573809Y-129202380D02*
X162573809Y-128202380D01*
X163192857Y-129202380D02*
X163192857Y-128202380D01*
X163192857Y-128678571D02*
X163764285Y-128678571D01*
X163764285Y-129202380D02*
X163764285Y-128202380D01*
X164097619Y-128202380D02*
X164669047Y-128202380D01*
X164383333Y-129202380D02*
X164383333Y-128202380D01*
X164954761Y-128297619D02*
X165002380Y-128250000D01*
X165097619Y-128202380D01*
X165335714Y-128202380D01*
X165430952Y-128250000D01*
X165478571Y-128297619D01*
X165526190Y-128392857D01*
X165526190Y-128488095D01*
X165478571Y-128630952D01*
X164907142Y-129202380D01*
X165526190Y-129202380D01*
%TO.C,R3*%
X129802380Y-102166666D02*
X129326190Y-102500000D01*
X129802380Y-102738095D02*
X128802380Y-102738095D01*
X128802380Y-102357142D01*
X128850000Y-102261904D01*
X128897619Y-102214285D01*
X128992857Y-102166666D01*
X129135714Y-102166666D01*
X129230952Y-102214285D01*
X129278571Y-102261904D01*
X129326190Y-102357142D01*
X129326190Y-102738095D01*
X128802380Y-101833333D02*
X128802380Y-101214285D01*
X129183333Y-101547619D01*
X129183333Y-101404761D01*
X129230952Y-101309523D01*
X129278571Y-101261904D01*
X129373809Y-101214285D01*
X129611904Y-101214285D01*
X129707142Y-101261904D01*
X129754761Y-101309523D01*
X129802380Y-101404761D01*
X129802380Y-101690476D01*
X129754761Y-101785714D01*
X129707142Y-101833333D01*
%TO.C,SW1*%
X148666666Y-126404761D02*
X148809523Y-126452380D01*
X149047619Y-126452380D01*
X149142857Y-126404761D01*
X149190476Y-126357142D01*
X149238095Y-126261904D01*
X149238095Y-126166666D01*
X149190476Y-126071428D01*
X149142857Y-126023809D01*
X149047619Y-125976190D01*
X148857142Y-125928571D01*
X148761904Y-125880952D01*
X148714285Y-125833333D01*
X148666666Y-125738095D01*
X148666666Y-125642857D01*
X148714285Y-125547619D01*
X148761904Y-125500000D01*
X148857142Y-125452380D01*
X149095238Y-125452380D01*
X149238095Y-125500000D01*
X149571428Y-125452380D02*
X149809523Y-126452380D01*
X150000000Y-125738095D01*
X150190476Y-126452380D01*
X150428571Y-125452380D01*
X151333333Y-126452380D02*
X150761904Y-126452380D01*
X151047619Y-126452380D02*
X151047619Y-125452380D01*
X150952380Y-125595238D01*
X150857142Y-125690476D01*
X150761904Y-125738095D01*
%TO.C,R5*%
X133802380Y-102166666D02*
X133326190Y-102500000D01*
X133802380Y-102738095D02*
X132802380Y-102738095D01*
X132802380Y-102357142D01*
X132850000Y-102261904D01*
X132897619Y-102214285D01*
X132992857Y-102166666D01*
X133135714Y-102166666D01*
X133230952Y-102214285D01*
X133278571Y-102261904D01*
X133326190Y-102357142D01*
X133326190Y-102738095D01*
X132802380Y-101261904D02*
X132802380Y-101738095D01*
X133278571Y-101785714D01*
X133230952Y-101738095D01*
X133183333Y-101642857D01*
X133183333Y-101404761D01*
X133230952Y-101309523D01*
X133278571Y-101261904D01*
X133373809Y-101214285D01*
X133611904Y-101214285D01*
X133707142Y-101261904D01*
X133754761Y-101309523D01*
X133802380Y-101404761D01*
X133802380Y-101642857D01*
X133754761Y-101738095D01*
X133707142Y-101785714D01*
%TO.C,pull_down1*%
X130071428Y-99435714D02*
X130071428Y-100435714D01*
X130071428Y-99483333D02*
X130166666Y-99435714D01*
X130357142Y-99435714D01*
X130452380Y-99483333D01*
X130500000Y-99530952D01*
X130547619Y-99626190D01*
X130547619Y-99911904D01*
X130500000Y-100007142D01*
X130452380Y-100054761D01*
X130357142Y-100102380D01*
X130166666Y-100102380D01*
X130071428Y-100054761D01*
X131404761Y-99435714D02*
X131404761Y-100102380D01*
X130976190Y-99435714D02*
X130976190Y-99959523D01*
X131023809Y-100054761D01*
X131119047Y-100102380D01*
X131261904Y-100102380D01*
X131357142Y-100054761D01*
X131404761Y-100007142D01*
X132023809Y-100102380D02*
X131928571Y-100054761D01*
X131880952Y-99959523D01*
X131880952Y-99102380D01*
X132547619Y-100102380D02*
X132452380Y-100054761D01*
X132404761Y-99959523D01*
X132404761Y-99102380D01*
X132690476Y-100197619D02*
X133452380Y-100197619D01*
X134119047Y-100102380D02*
X134119047Y-99102380D01*
X134119047Y-100054761D02*
X134023809Y-100102380D01*
X133833333Y-100102380D01*
X133738095Y-100054761D01*
X133690476Y-100007142D01*
X133642857Y-99911904D01*
X133642857Y-99626190D01*
X133690476Y-99530952D01*
X133738095Y-99483333D01*
X133833333Y-99435714D01*
X134023809Y-99435714D01*
X134119047Y-99483333D01*
X134738095Y-100102380D02*
X134642857Y-100054761D01*
X134595238Y-100007142D01*
X134547619Y-99911904D01*
X134547619Y-99626190D01*
X134595238Y-99530952D01*
X134642857Y-99483333D01*
X134738095Y-99435714D01*
X134880952Y-99435714D01*
X134976190Y-99483333D01*
X135023809Y-99530952D01*
X135071428Y-99626190D01*
X135071428Y-99911904D01*
X135023809Y-100007142D01*
X134976190Y-100054761D01*
X134880952Y-100102380D01*
X134738095Y-100102380D01*
X135404761Y-99435714D02*
X135595238Y-100102380D01*
X135785714Y-99626190D01*
X135976190Y-100102380D01*
X136166666Y-99435714D01*
X136547619Y-99435714D02*
X136547619Y-100102380D01*
X136547619Y-99530952D02*
X136595238Y-99483333D01*
X136690476Y-99435714D01*
X136833333Y-99435714D01*
X136928571Y-99483333D01*
X136976190Y-99578571D01*
X136976190Y-100102380D01*
X137976190Y-100102380D02*
X137404761Y-100102380D01*
X137690476Y-100102380D02*
X137690476Y-99102380D01*
X137595238Y-99245238D01*
X137500000Y-99340476D01*
X137404761Y-99388095D01*
%TO.C,D1*%
X117261904Y-127102380D02*
X117261904Y-126102380D01*
X117500000Y-126102380D01*
X117642857Y-126150000D01*
X117738095Y-126245238D01*
X117785714Y-126340476D01*
X117833333Y-126530952D01*
X117833333Y-126673809D01*
X117785714Y-126864285D01*
X117738095Y-126959523D01*
X117642857Y-127054761D01*
X117500000Y-127102380D01*
X117261904Y-127102380D01*
X118785714Y-127102380D02*
X118214285Y-127102380D01*
X118500000Y-127102380D02*
X118500000Y-126102380D01*
X118404761Y-126245238D01*
X118309523Y-126340476D01*
X118214285Y-126388095D01*
%TO.C,D5*%
X156286904Y-107802380D02*
X156286904Y-106802380D01*
X156525000Y-106802380D01*
X156667857Y-106850000D01*
X156763095Y-106945238D01*
X156810714Y-107040476D01*
X156858333Y-107230952D01*
X156858333Y-107373809D01*
X156810714Y-107564285D01*
X156763095Y-107659523D01*
X156667857Y-107754761D01*
X156525000Y-107802380D01*
X156286904Y-107802380D01*
X157763095Y-106802380D02*
X157286904Y-106802380D01*
X157239285Y-107278571D01*
X157286904Y-107230952D01*
X157382142Y-107183333D01*
X157620238Y-107183333D01*
X157715476Y-107230952D01*
X157763095Y-107278571D01*
X157810714Y-107373809D01*
X157810714Y-107611904D01*
X157763095Y-107707142D01*
X157715476Y-107754761D01*
X157620238Y-107802380D01*
X157382142Y-107802380D01*
X157286904Y-107754761D01*
X157239285Y-107707142D01*
%TO.C,R2*%
X145102380Y-102166666D02*
X144626190Y-102500000D01*
X145102380Y-102738095D02*
X144102380Y-102738095D01*
X144102380Y-102357142D01*
X144150000Y-102261904D01*
X144197619Y-102214285D01*
X144292857Y-102166666D01*
X144435714Y-102166666D01*
X144530952Y-102214285D01*
X144578571Y-102261904D01*
X144626190Y-102357142D01*
X144626190Y-102738095D01*
X144197619Y-101785714D02*
X144150000Y-101738095D01*
X144102380Y-101642857D01*
X144102380Y-101404761D01*
X144150000Y-101309523D01*
X144197619Y-101261904D01*
X144292857Y-101214285D01*
X144388095Y-101214285D01*
X144530952Y-101261904D01*
X145102380Y-101833333D01*
X145102380Y-101214285D01*
%TO.C,U2*%
X122590220Y-105227541D02*
X122590220Y-105466088D01*
X122351672Y-105370669D02*
X122590220Y-105466088D01*
X122828767Y-105370669D01*
X122447091Y-105656926D02*
X122590220Y-105466088D01*
X122733348Y-105656926D01*
%TO.C,D4*%
X116802380Y-101738095D02*
X115802380Y-101738095D01*
X115802380Y-101500000D01*
X115850000Y-101357142D01*
X115945238Y-101261904D01*
X116040476Y-101214285D01*
X116230952Y-101166666D01*
X116373809Y-101166666D01*
X116564285Y-101214285D01*
X116659523Y-101261904D01*
X116754761Y-101357142D01*
X116802380Y-101500000D01*
X116802380Y-101738095D01*
X116135714Y-100309523D02*
X116802380Y-100309523D01*
X115754761Y-100547619D02*
X116469047Y-100785714D01*
X116469047Y-100166666D01*
%TO.C,D2*%
X117261904Y-111102380D02*
X117261904Y-110102380D01*
X117500000Y-110102380D01*
X117642857Y-110150000D01*
X117738095Y-110245238D01*
X117785714Y-110340476D01*
X117833333Y-110530952D01*
X117833333Y-110673809D01*
X117785714Y-110864285D01*
X117738095Y-110959523D01*
X117642857Y-111054761D01*
X117500000Y-111102380D01*
X117261904Y-111102380D01*
X118214285Y-110197619D02*
X118261904Y-110150000D01*
X118357142Y-110102380D01*
X118595238Y-110102380D01*
X118690476Y-110150000D01*
X118738095Y-110197619D01*
X118785714Y-110292857D01*
X118785714Y-110388095D01*
X118738095Y-110530952D01*
X118166666Y-111102380D01*
X118785714Y-111102380D01*
%TO.C,pull_down2*%
X124071428Y-99785714D02*
X124071428Y-100785714D01*
X124071428Y-99833333D02*
X124166666Y-99785714D01*
X124357142Y-99785714D01*
X124452380Y-99833333D01*
X124500000Y-99880952D01*
X124547619Y-99976190D01*
X124547619Y-100261904D01*
X124500000Y-100357142D01*
X124452380Y-100404761D01*
X124357142Y-100452380D01*
X124166666Y-100452380D01*
X124071428Y-100404761D01*
X125404761Y-99785714D02*
X125404761Y-100452380D01*
X124976190Y-99785714D02*
X124976190Y-100309523D01*
X125023809Y-100404761D01*
X125119047Y-100452380D01*
X125261904Y-100452380D01*
X125357142Y-100404761D01*
X125404761Y-100357142D01*
X126023809Y-100452380D02*
X125928571Y-100404761D01*
X125880952Y-100309523D01*
X125880952Y-99452380D01*
X126547619Y-100452380D02*
X126452380Y-100404761D01*
X126404761Y-100309523D01*
X126404761Y-99452380D01*
X126690476Y-100547619D02*
X127452380Y-100547619D01*
X128119047Y-100452380D02*
X128119047Y-99452380D01*
X128119047Y-100404761D02*
X128023809Y-100452380D01*
X127833333Y-100452380D01*
X127738095Y-100404761D01*
X127690476Y-100357142D01*
X127642857Y-100261904D01*
X127642857Y-99976190D01*
X127690476Y-99880952D01*
X127738095Y-99833333D01*
X127833333Y-99785714D01*
X128023809Y-99785714D01*
X128119047Y-99833333D01*
X128738095Y-100452380D02*
X128642857Y-100404761D01*
X128595238Y-100357142D01*
X128547619Y-100261904D01*
X128547619Y-99976190D01*
X128595238Y-99880952D01*
X128642857Y-99833333D01*
X128738095Y-99785714D01*
X128880952Y-99785714D01*
X128976190Y-99833333D01*
X129023809Y-99880952D01*
X129071428Y-99976190D01*
X129071428Y-100261904D01*
X129023809Y-100357142D01*
X128976190Y-100404761D01*
X128880952Y-100452380D01*
X128738095Y-100452380D01*
X129404761Y-99785714D02*
X129595238Y-100452380D01*
X129785714Y-99976190D01*
X129976190Y-100452380D01*
X130166666Y-99785714D01*
X130547619Y-99785714D02*
X130547619Y-100452380D01*
X130547619Y-99880952D02*
X130595238Y-99833333D01*
X130690476Y-99785714D01*
X130833333Y-99785714D01*
X130928571Y-99833333D01*
X130976190Y-99928571D01*
X130976190Y-100452380D01*
X131404761Y-99547619D02*
X131452380Y-99500000D01*
X131547619Y-99452380D01*
X131785714Y-99452380D01*
X131880952Y-99500000D01*
X131928571Y-99547619D01*
X131976190Y-99642857D01*
X131976190Y-99738095D01*
X131928571Y-99880952D01*
X131357142Y-100452380D01*
X131976190Y-100452380D01*
%TO.C,BZ1*%
X139119047Y-128428571D02*
X139261904Y-128476190D01*
X139309523Y-128523809D01*
X139357142Y-128619047D01*
X139357142Y-128761904D01*
X139309523Y-128857142D01*
X139261904Y-128904761D01*
X139166666Y-128952380D01*
X138785714Y-128952380D01*
X138785714Y-127952380D01*
X139119047Y-127952380D01*
X139214285Y-128000000D01*
X139261904Y-128047619D01*
X139309523Y-128142857D01*
X139309523Y-128238095D01*
X139261904Y-128333333D01*
X139214285Y-128380952D01*
X139119047Y-128428571D01*
X138785714Y-128428571D01*
X139690476Y-127952380D02*
X140357142Y-127952380D01*
X139690476Y-128952380D01*
X140357142Y-128952380D01*
X141261904Y-128952380D02*
X140690476Y-128952380D01*
X140976190Y-128952380D02*
X140976190Y-127952380D01*
X140880952Y-128095238D01*
X140785714Y-128190476D01*
X140690476Y-128238095D01*
%TO.C,pull_up1*%
X136047619Y-96135714D02*
X136047619Y-97135714D01*
X136047619Y-96183333D02*
X136142857Y-96135714D01*
X136333333Y-96135714D01*
X136428571Y-96183333D01*
X136476190Y-96230952D01*
X136523809Y-96326190D01*
X136523809Y-96611904D01*
X136476190Y-96707142D01*
X136428571Y-96754761D01*
X136333333Y-96802380D01*
X136142857Y-96802380D01*
X136047619Y-96754761D01*
X137380952Y-96135714D02*
X137380952Y-96802380D01*
X136952380Y-96135714D02*
X136952380Y-96659523D01*
X137000000Y-96754761D01*
X137095238Y-96802380D01*
X137238095Y-96802380D01*
X137333333Y-96754761D01*
X137380952Y-96707142D01*
X138000000Y-96802380D02*
X137904761Y-96754761D01*
X137857142Y-96659523D01*
X137857142Y-95802380D01*
X138523809Y-96802380D02*
X138428571Y-96754761D01*
X138380952Y-96659523D01*
X138380952Y-95802380D01*
X138666666Y-96897619D02*
X139428571Y-96897619D01*
X140095238Y-96135714D02*
X140095238Y-96802380D01*
X139666666Y-96135714D02*
X139666666Y-96659523D01*
X139714285Y-96754761D01*
X139809523Y-96802380D01*
X139952380Y-96802380D01*
X140047619Y-96754761D01*
X140095238Y-96707142D01*
X140571428Y-96135714D02*
X140571428Y-97135714D01*
X140571428Y-96183333D02*
X140666666Y-96135714D01*
X140857142Y-96135714D01*
X140952380Y-96183333D01*
X141000000Y-96230952D01*
X141047619Y-96326190D01*
X141047619Y-96611904D01*
X141000000Y-96707142D01*
X140952380Y-96754761D01*
X140857142Y-96802380D01*
X140666666Y-96802380D01*
X140571428Y-96754761D01*
X142000000Y-96802380D02*
X141428571Y-96802380D01*
X141714285Y-96802380D02*
X141714285Y-95802380D01*
X141619047Y-95945238D01*
X141523809Y-96040476D01*
X141428571Y-96088095D01*
%TO.C,R6*%
X129102380Y-102166666D02*
X128626190Y-102500000D01*
X129102380Y-102738095D02*
X128102380Y-102738095D01*
X128102380Y-102357142D01*
X128150000Y-102261904D01*
X128197619Y-102214285D01*
X128292857Y-102166666D01*
X128435714Y-102166666D01*
X128530952Y-102214285D01*
X128578571Y-102261904D01*
X128626190Y-102357142D01*
X128626190Y-102738095D01*
X128102380Y-101309523D02*
X128102380Y-101500000D01*
X128150000Y-101595238D01*
X128197619Y-101642857D01*
X128340476Y-101738095D01*
X128530952Y-101785714D01*
X128911904Y-101785714D01*
X129007142Y-101738095D01*
X129054761Y-101690476D01*
X129102380Y-101595238D01*
X129102380Y-101404761D01*
X129054761Y-101309523D01*
X129007142Y-101261904D01*
X128911904Y-101214285D01*
X128673809Y-101214285D01*
X128578571Y-101261904D01*
X128530952Y-101309523D01*
X128483333Y-101404761D01*
X128483333Y-101595238D01*
X128530952Y-101690476D01*
X128578571Y-101738095D01*
X128673809Y-101785714D01*
%TO.C,VDD_THT1*%
X111073809Y-128202380D02*
X111407142Y-129202380D01*
X111740476Y-128202380D01*
X112073809Y-129202380D02*
X112073809Y-128202380D01*
X112311904Y-128202380D01*
X112454761Y-128250000D01*
X112550000Y-128345238D01*
X112597619Y-128440476D01*
X112645238Y-128630952D01*
X112645238Y-128773809D01*
X112597619Y-128964285D01*
X112550000Y-129059523D01*
X112454761Y-129154761D01*
X112311904Y-129202380D01*
X112073809Y-129202380D01*
X113073809Y-129202380D02*
X113073809Y-128202380D01*
X113311904Y-128202380D01*
X113454761Y-128250000D01*
X113550000Y-128345238D01*
X113597619Y-128440476D01*
X113645238Y-128630952D01*
X113645238Y-128773809D01*
X113597619Y-128964285D01*
X113550000Y-129059523D01*
X113454761Y-129154761D01*
X113311904Y-129202380D01*
X113073809Y-129202380D01*
X113835714Y-129297619D02*
X114597619Y-129297619D01*
X114692857Y-128202380D02*
X115264285Y-128202380D01*
X114978571Y-129202380D02*
X114978571Y-128202380D01*
X115597619Y-129202380D02*
X115597619Y-128202380D01*
X115597619Y-128678571D02*
X116169047Y-128678571D01*
X116169047Y-129202380D02*
X116169047Y-128202380D01*
X116502380Y-128202380D02*
X117073809Y-128202380D01*
X116788095Y-129202380D02*
X116788095Y-128202380D01*
X117930952Y-129202380D02*
X117359523Y-129202380D01*
X117645238Y-129202380D02*
X117645238Y-128202380D01*
X117550000Y-128345238D01*
X117454761Y-128440476D01*
X117359523Y-128488095D01*
%TO.C,R4*%
X143833333Y-96802380D02*
X143500000Y-96326190D01*
X143261904Y-96802380D02*
X143261904Y-95802380D01*
X143642857Y-95802380D01*
X143738095Y-95850000D01*
X143785714Y-95897619D01*
X143833333Y-95992857D01*
X143833333Y-96135714D01*
X143785714Y-96230952D01*
X143738095Y-96278571D01*
X143642857Y-96326190D01*
X143261904Y-96326190D01*
X144690476Y-96135714D02*
X144690476Y-96802380D01*
X144452380Y-95754761D02*
X144214285Y-96469047D01*
X144833333Y-96469047D01*
%TO.C,pull_down3*%
X120071428Y-96135714D02*
X120071428Y-97135714D01*
X120071428Y-96183333D02*
X120166666Y-96135714D01*
X120357142Y-96135714D01*
X120452380Y-96183333D01*
X120500000Y-96230952D01*
X120547619Y-96326190D01*
X120547619Y-96611904D01*
X120500000Y-96707142D01*
X120452380Y-96754761D01*
X120357142Y-96802380D01*
X120166666Y-96802380D01*
X120071428Y-96754761D01*
X121404761Y-96135714D02*
X121404761Y-96802380D01*
X120976190Y-96135714D02*
X120976190Y-96659523D01*
X121023809Y-96754761D01*
X121119047Y-96802380D01*
X121261904Y-96802380D01*
X121357142Y-96754761D01*
X121404761Y-96707142D01*
X122023809Y-96802380D02*
X121928571Y-96754761D01*
X121880952Y-96659523D01*
X121880952Y-95802380D01*
X122547619Y-96802380D02*
X122452380Y-96754761D01*
X122404761Y-96659523D01*
X122404761Y-95802380D01*
X122690476Y-96897619D02*
X123452380Y-96897619D01*
X124119047Y-96802380D02*
X124119047Y-95802380D01*
X124119047Y-96754761D02*
X124023809Y-96802380D01*
X123833333Y-96802380D01*
X123738095Y-96754761D01*
X123690476Y-96707142D01*
X123642857Y-96611904D01*
X123642857Y-96326190D01*
X123690476Y-96230952D01*
X123738095Y-96183333D01*
X123833333Y-96135714D01*
X124023809Y-96135714D01*
X124119047Y-96183333D01*
X124738095Y-96802380D02*
X124642857Y-96754761D01*
X124595238Y-96707142D01*
X124547619Y-96611904D01*
X124547619Y-96326190D01*
X124595238Y-96230952D01*
X124642857Y-96183333D01*
X124738095Y-96135714D01*
X124880952Y-96135714D01*
X124976190Y-96183333D01*
X125023809Y-96230952D01*
X125071428Y-96326190D01*
X125071428Y-96611904D01*
X125023809Y-96707142D01*
X124976190Y-96754761D01*
X124880952Y-96802380D01*
X124738095Y-96802380D01*
X125404761Y-96135714D02*
X125595238Y-96802380D01*
X125785714Y-96326190D01*
X125976190Y-96802380D01*
X126166666Y-96135714D01*
X126547619Y-96135714D02*
X126547619Y-96802380D01*
X126547619Y-96230952D02*
X126595238Y-96183333D01*
X126690476Y-96135714D01*
X126833333Y-96135714D01*
X126928571Y-96183333D01*
X126976190Y-96278571D01*
X126976190Y-96802380D01*
X127357142Y-95802380D02*
X127976190Y-95802380D01*
X127642857Y-96183333D01*
X127785714Y-96183333D01*
X127880952Y-96230952D01*
X127928571Y-96278571D01*
X127976190Y-96373809D01*
X127976190Y-96611904D01*
X127928571Y-96707142D01*
X127880952Y-96754761D01*
X127785714Y-96802380D01*
X127500000Y-96802380D01*
X127404761Y-96754761D01*
X127357142Y-96707142D01*
%TO.C,D7*%
X155802380Y-101763095D02*
X154802380Y-101763095D01*
X154802380Y-101525000D01*
X154850000Y-101382142D01*
X154945238Y-101286904D01*
X155040476Y-101239285D01*
X155230952Y-101191666D01*
X155373809Y-101191666D01*
X155564285Y-101239285D01*
X155659523Y-101286904D01*
X155754761Y-101382142D01*
X155802380Y-101525000D01*
X155802380Y-101763095D01*
X154802380Y-100858333D02*
X154802380Y-100191666D01*
X155802380Y-100620238D01*
D13*
%TO.C,D8*%
X155165000Y-124040000D02*
X155165000Y-125960000D01*
X158025000Y-124040000D02*
X155165000Y-124040000D01*
X155165000Y-125960000D02*
X158025000Y-125960000D01*
%TO.C,R7*%
X123735000Y-101772936D02*
X123735000Y-102227064D01*
X122265000Y-101772936D02*
X122265000Y-102227064D01*
%TO.C,D6*%
X117040000Y-116000000D02*
X117040000Y-118860000D01*
X117040000Y-118860000D02*
X118960000Y-118860000D01*
X118960000Y-118860000D02*
X118960000Y-116000000D01*
%TO.C,R1*%
X138265000Y-102227064D02*
X138265000Y-101772936D01*
X139735000Y-102227064D02*
X139735000Y-101772936D01*
%TO.C,D3*%
X157960000Y-118860000D02*
X157960000Y-116000000D01*
X156040000Y-116000000D02*
X156040000Y-118860000D01*
X156040000Y-118860000D02*
X157960000Y-118860000D01*
%TO.C,R3*%
X131735000Y-102227064D02*
X131735000Y-101772936D01*
X130265000Y-102227064D02*
X130265000Y-101772936D01*
D14*
%TO.C,SW1*%
X152324100Y-126386659D02*
X152324100Y-125613341D01*
X147675900Y-125613341D02*
X147675900Y-126386659D01*
X152324100Y-124171200D02*
X147675900Y-124171200D01*
X147675900Y-127828800D02*
X152324100Y-127828800D01*
D13*
%TO.C,R5*%
X135735000Y-102227064D02*
X135735000Y-101772936D01*
X134265000Y-102227064D02*
X134265000Y-101772936D01*
%TO.C,pull_down1*%
X134227064Y-98735000D02*
X133772936Y-98735000D01*
X134227064Y-97265000D02*
X133772936Y-97265000D01*
%TO.C,D1*%
X119860000Y-124040000D02*
X117000000Y-124040000D01*
X119860000Y-125960000D02*
X119860000Y-124040000D01*
X117000000Y-125960000D02*
X119860000Y-125960000D01*
%TO.C,D5*%
X158025000Y-108040000D02*
X155165000Y-108040000D01*
X155165000Y-108040000D02*
X155165000Y-109960000D01*
X155165000Y-109960000D02*
X158025000Y-109960000D01*
%TO.C,R2*%
X142265000Y-101772936D02*
X142265000Y-102227064D01*
X143735000Y-101772936D02*
X143735000Y-102227064D01*
D14*
%TO.C,U2*%
X127304800Y-105156000D02*
X126695200Y-105156000D01*
X123444000Y-110261400D02*
X123444000Y-110718600D01*
X130556000Y-115798600D02*
X130556000Y-115341400D01*
X130556000Y-113258600D02*
X130556000Y-112801400D01*
X130556000Y-123418600D02*
X130556000Y-122961400D01*
X130556000Y-108178600D02*
X130556000Y-107721400D01*
X123444000Y-117881400D02*
X123444000Y-118338600D01*
X123444000Y-128041400D02*
X123444000Y-128524000D01*
X130556000Y-125958600D02*
X130556000Y-125501400D01*
X130556000Y-128524000D02*
X130556000Y-128041400D01*
X126695200Y-105156000D02*
X123444000Y-105156000D01*
X123444000Y-128524000D02*
X130556000Y-128524000D01*
X123444000Y-112801400D02*
X123444000Y-113258600D01*
X130556000Y-118338600D02*
X130556000Y-117881400D01*
X123444000Y-107772200D02*
X123444000Y-108178600D01*
X123444000Y-105156000D02*
X123444000Y-105587800D01*
X130556000Y-105156000D02*
X127304800Y-105156000D01*
X130556000Y-120878600D02*
X130556000Y-120421400D01*
X130556000Y-105638600D02*
X130556000Y-105156000D01*
X123444000Y-120421400D02*
X123444000Y-120878600D01*
X123444000Y-122961400D02*
X123444000Y-123418600D01*
X123444000Y-125501400D02*
X123444000Y-125958600D01*
X130556000Y-110718600D02*
X130556000Y-110261400D01*
X123444000Y-115341400D02*
X123444000Y-115798600D01*
D15*
X126695200Y-105156000D02*
G75*
G03*
X127304800Y-105156000I304800J0D01*
G01*
D13*
%TO.C,D4*%
X117040000Y-100000000D02*
X117040000Y-102860000D01*
X118960000Y-102860000D02*
X118960000Y-100000000D01*
X117040000Y-102860000D02*
X118960000Y-102860000D01*
%TO.C,D2*%
X119860000Y-109960000D02*
X119860000Y-108040000D01*
X119860000Y-108040000D02*
X117000000Y-108040000D01*
X117000000Y-109960000D02*
X119860000Y-109960000D01*
%TO.C,pull_down2*%
X129227064Y-98735000D02*
X128772936Y-98735000D01*
X129227064Y-97265000D02*
X128772936Y-97265000D01*
%TO.C,BZ1*%
X144610000Y-124960000D02*
X144940000Y-124960000D01*
X144610000Y-124960000D02*
X144610000Y-127610000D01*
X144610000Y-127610000D02*
X135390000Y-127610000D01*
X135390000Y-118390000D02*
X144610000Y-118390000D01*
X135390000Y-127610000D02*
X135390000Y-124960000D01*
X135390000Y-121040000D02*
X135390000Y-118390000D01*
X144610000Y-118390000D02*
X144610000Y-121040000D01*
%TO.C,pull_up1*%
X138772936Y-98735000D02*
X139227064Y-98735000D01*
X138772936Y-97265000D02*
X139227064Y-97265000D01*
%TO.C,R6*%
X127735000Y-101772936D02*
X127735000Y-102227064D01*
X126265000Y-101772936D02*
X126265000Y-102227064D01*
%TO.C,R4*%
X143772936Y-98735000D02*
X144227064Y-98735000D01*
X143772936Y-97265000D02*
X144227064Y-97265000D01*
%TO.C,pull_down3*%
X123772936Y-98735000D02*
X124227064Y-98735000D01*
X123772936Y-97265000D02*
X124227064Y-97265000D01*
%TO.C,D7*%
X156040000Y-102885000D02*
X157960000Y-102885000D01*
X157960000Y-102885000D02*
X157960000Y-100025000D01*
X156040000Y-100025000D02*
X156040000Y-102885000D01*
%TD*%
M02*
