%TF.GenerationSoftware,KiCad,Pcbnew,(6.0.9)*%
%TF.CreationDate,2023-11-13T18:20:47-08:00*%
%TF.ProjectId,music_card,6d757369-635f-4636-9172-642e6b696361,rev?*%
%TF.SameCoordinates,Original*%
%TF.FileFunction,AssemblyDrawing,Top*%
%FSLAX46Y46*%
G04 Gerber Fmt 4.6, Leading zero omitted, Abs format (unit mm)*
G04 Created by KiCad (PCBNEW (6.0.9)) date 2023-11-13 18:20:47*
%MOMM*%
%LPD*%
G01*
G04 APERTURE LIST*
%ADD10C,0.150000*%
%ADD11C,0.080000*%
%ADD12C,0.100000*%
%ADD13C,0.203200*%
%ADD14C,0.010000*%
%ADD15C,0.025400*%
%ADD16C,0.152400*%
G04 APERTURE END LIST*
D10*
%TO.C,D8*%
X156532142Y-123452380D02*
X156055952Y-123452380D01*
X156055952Y-122452380D01*
X156865476Y-122928571D02*
X157198809Y-122928571D01*
X157341666Y-123452380D02*
X156865476Y-123452380D01*
X156865476Y-122452380D01*
X157341666Y-122452380D01*
X157770238Y-123452380D02*
X157770238Y-122452380D01*
X158008333Y-122452380D01*
X158151190Y-122500000D01*
X158246428Y-122595238D01*
X158294047Y-122690476D01*
X158341666Y-122880952D01*
X158341666Y-123023809D01*
X158294047Y-123214285D01*
X158246428Y-123309523D01*
X158151190Y-123404761D01*
X158008333Y-123452380D01*
X157770238Y-123452380D01*
D11*
X156655952Y-125226190D02*
X156655952Y-124726190D01*
X156775000Y-124726190D01*
X156846428Y-124750000D01*
X156894047Y-124797619D01*
X156917857Y-124845238D01*
X156941666Y-124940476D01*
X156941666Y-125011904D01*
X156917857Y-125107142D01*
X156894047Y-125154761D01*
X156846428Y-125202380D01*
X156775000Y-125226190D01*
X156655952Y-125226190D01*
X157227380Y-124940476D02*
X157179761Y-124916666D01*
X157155952Y-124892857D01*
X157132142Y-124845238D01*
X157132142Y-124821428D01*
X157155952Y-124773809D01*
X157179761Y-124750000D01*
X157227380Y-124726190D01*
X157322619Y-124726190D01*
X157370238Y-124750000D01*
X157394047Y-124773809D01*
X157417857Y-124821428D01*
X157417857Y-124845238D01*
X157394047Y-124892857D01*
X157370238Y-124916666D01*
X157322619Y-124940476D01*
X157227380Y-124940476D01*
X157179761Y-124964285D01*
X157155952Y-124988095D01*
X157132142Y-125035714D01*
X157132142Y-125130952D01*
X157155952Y-125178571D01*
X157179761Y-125202380D01*
X157227380Y-125226190D01*
X157322619Y-125226190D01*
X157370238Y-125202380D01*
X157394047Y-125178571D01*
X157417857Y-125130952D01*
X157417857Y-125035714D01*
X157394047Y-124988095D01*
X157370238Y-124964285D01*
X157322619Y-124940476D01*
D10*
%TO.C,VDD_THT2*%
X111550000Y-95252380D02*
X111883333Y-96252380D01*
X112216666Y-95252380D01*
X112550000Y-96252380D02*
X112550000Y-95252380D01*
X112788095Y-95252380D01*
X112930952Y-95300000D01*
X113026190Y-95395238D01*
X113073809Y-95490476D01*
X113121428Y-95680952D01*
X113121428Y-95823809D01*
X113073809Y-96014285D01*
X113026190Y-96109523D01*
X112930952Y-96204761D01*
X112788095Y-96252380D01*
X112550000Y-96252380D01*
X113550000Y-96252380D02*
X113550000Y-95252380D01*
X113788095Y-95252380D01*
X113930952Y-95300000D01*
X114026190Y-95395238D01*
X114073809Y-95490476D01*
X114121428Y-95680952D01*
X114121428Y-95823809D01*
X114073809Y-96014285D01*
X114026190Y-96109523D01*
X113930952Y-96204761D01*
X113788095Y-96252380D01*
X113550000Y-96252380D01*
X114311904Y-96347619D02*
X115073809Y-96347619D01*
X115169047Y-95252380D02*
X115740476Y-95252380D01*
X115454761Y-96252380D02*
X115454761Y-95252380D01*
X116073809Y-96252380D02*
X116073809Y-95252380D01*
X116073809Y-95728571D02*
X116645238Y-95728571D01*
X116645238Y-96252380D02*
X116645238Y-95252380D01*
X116978571Y-95252380D02*
X117550000Y-95252380D01*
X117264285Y-96252380D02*
X117264285Y-95252380D01*
%TO.C,R7*%
X124547619Y-103738095D02*
X124500000Y-103690476D01*
X124452380Y-103595238D01*
X124452380Y-103357142D01*
X124500000Y-103261904D01*
X124547619Y-103214285D01*
X124642857Y-103166666D01*
X124738095Y-103166666D01*
X124880952Y-103214285D01*
X125452380Y-103785714D01*
X125452380Y-103166666D01*
X124547619Y-102785714D02*
X124500000Y-102738095D01*
X124452380Y-102642857D01*
X124452380Y-102404761D01*
X124500000Y-102309523D01*
X124547619Y-102261904D01*
X124642857Y-102214285D01*
X124738095Y-102214285D01*
X124880952Y-102261904D01*
X125452380Y-102833333D01*
X125452380Y-102214285D01*
X124452380Y-101595238D02*
X124452380Y-101500000D01*
X124500000Y-101404761D01*
X124547619Y-101357142D01*
X124642857Y-101309523D01*
X124833333Y-101261904D01*
X125071428Y-101261904D01*
X125261904Y-101309523D01*
X125357142Y-101357142D01*
X125404761Y-101404761D01*
X125452380Y-101500000D01*
X125452380Y-101595238D01*
X125404761Y-101690476D01*
X125357142Y-101738095D01*
X125261904Y-101785714D01*
X125071428Y-101833333D01*
X124833333Y-101833333D01*
X124642857Y-101785714D01*
X124547619Y-101738095D01*
X124500000Y-101690476D01*
X124452380Y-101595238D01*
X125452380Y-100261904D02*
X124976190Y-100595238D01*
X125452380Y-100833333D02*
X124452380Y-100833333D01*
X124452380Y-100452380D01*
X124500000Y-100357142D01*
X124547619Y-100309523D01*
X124642857Y-100261904D01*
X124785714Y-100261904D01*
X124880952Y-100309523D01*
X124928571Y-100357142D01*
X124976190Y-100452380D01*
X124976190Y-100833333D01*
D11*
X123226190Y-102083333D02*
X122988095Y-102250000D01*
X123226190Y-102369047D02*
X122726190Y-102369047D01*
X122726190Y-102178571D01*
X122750000Y-102130952D01*
X122773809Y-102107142D01*
X122821428Y-102083333D01*
X122892857Y-102083333D01*
X122940476Y-102107142D01*
X122964285Y-102130952D01*
X122988095Y-102178571D01*
X122988095Y-102369047D01*
X122726190Y-101916666D02*
X122726190Y-101583333D01*
X123226190Y-101797619D01*
D10*
%TO.C,U1*%
X141337380Y-114833333D02*
X140337380Y-114833333D01*
X141051666Y-114500000D01*
X140337380Y-114166666D01*
X141337380Y-114166666D01*
X141337380Y-113690476D02*
X140337380Y-113690476D01*
X141051666Y-113357142D01*
X140337380Y-113023809D01*
X141337380Y-113023809D01*
X141337380Y-112547619D02*
X140337380Y-112547619D01*
X140337380Y-112166666D01*
X140385000Y-112071428D01*
X140432619Y-112023809D01*
X140527857Y-111976190D01*
X140670714Y-111976190D01*
X140765952Y-112023809D01*
X140813571Y-112071428D01*
X140861190Y-112166666D01*
X140861190Y-112547619D01*
X141432619Y-110880952D02*
X141385000Y-110976190D01*
X141289761Y-111071428D01*
X141146904Y-111214285D01*
X141099285Y-111309523D01*
X141099285Y-111404761D01*
X141337380Y-111357142D02*
X141289761Y-111452380D01*
X141194523Y-111547619D01*
X141004047Y-111595238D01*
X140670714Y-111595238D01*
X140480238Y-111547619D01*
X140385000Y-111452380D01*
X140337380Y-111357142D01*
X140337380Y-111166666D01*
X140385000Y-111071428D01*
X140480238Y-110976190D01*
X140670714Y-110928571D01*
X141004047Y-110928571D01*
X141194523Y-110976190D01*
X141289761Y-111071428D01*
X141337380Y-111166666D01*
X141337380Y-111357142D01*
X140337380Y-110595238D02*
X140337380Y-109976190D01*
X140718333Y-110309523D01*
X140718333Y-110166666D01*
X140765952Y-110071428D01*
X140813571Y-110023809D01*
X140908809Y-109976190D01*
X141146904Y-109976190D01*
X141242142Y-110023809D01*
X141289761Y-110071428D01*
X141337380Y-110166666D01*
X141337380Y-110452380D01*
X141289761Y-110547619D01*
X141242142Y-110595238D01*
X141337380Y-109500000D02*
X141337380Y-109309523D01*
X141289761Y-109214285D01*
X141242142Y-109166666D01*
X141099285Y-109071428D01*
X140908809Y-109023809D01*
X140527857Y-109023809D01*
X140432619Y-109071428D01*
X140385000Y-109119047D01*
X140337380Y-109214285D01*
X140337380Y-109404761D01*
X140385000Y-109500000D01*
X140432619Y-109547619D01*
X140527857Y-109595238D01*
X140765952Y-109595238D01*
X140861190Y-109547619D01*
X140908809Y-109500000D01*
X140956428Y-109404761D01*
X140956428Y-109214285D01*
X140908809Y-109119047D01*
X140861190Y-109071428D01*
X140765952Y-109023809D01*
X140337380Y-108404761D02*
X140337380Y-108309523D01*
X140385000Y-108214285D01*
X140432619Y-108166666D01*
X140527857Y-108119047D01*
X140718333Y-108071428D01*
X140956428Y-108071428D01*
X141146904Y-108119047D01*
X141242142Y-108166666D01*
X141289761Y-108214285D01*
X141337380Y-108309523D01*
X141337380Y-108404761D01*
X141289761Y-108500000D01*
X141242142Y-108547619D01*
X141146904Y-108595238D01*
X140956428Y-108642857D01*
X140718333Y-108642857D01*
X140527857Y-108595238D01*
X140432619Y-108547619D01*
X140385000Y-108500000D01*
X140337380Y-108404761D01*
X140670714Y-107214285D02*
X141337380Y-107214285D01*
X140289761Y-107452380D02*
X141004047Y-107690476D01*
X141004047Y-107071428D01*
%TO.C,D6*%
X117357142Y-114452380D02*
X116880952Y-114452380D01*
X116880952Y-113452380D01*
X117690476Y-113928571D02*
X118023809Y-113928571D01*
X118166666Y-114452380D02*
X117690476Y-114452380D01*
X117690476Y-113452380D01*
X118166666Y-113452380D01*
X118595238Y-114452380D02*
X118595238Y-113452380D01*
X118833333Y-113452380D01*
X118976190Y-113500000D01*
X119071428Y-113595238D01*
X119119047Y-113690476D01*
X119166666Y-113880952D01*
X119166666Y-114023809D01*
X119119047Y-114214285D01*
X119071428Y-114309523D01*
X118976190Y-114404761D01*
X118833333Y-114452380D01*
X118595238Y-114452380D01*
D11*
X118226190Y-117369047D02*
X117726190Y-117369047D01*
X117726190Y-117250000D01*
X117750000Y-117178571D01*
X117797619Y-117130952D01*
X117845238Y-117107142D01*
X117940476Y-117083333D01*
X118011904Y-117083333D01*
X118107142Y-117107142D01*
X118154761Y-117130952D01*
X118202380Y-117178571D01*
X118226190Y-117250000D01*
X118226190Y-117369047D01*
X117726190Y-116654761D02*
X117726190Y-116750000D01*
X117750000Y-116797619D01*
X117773809Y-116821428D01*
X117845238Y-116869047D01*
X117940476Y-116892857D01*
X118130952Y-116892857D01*
X118178571Y-116869047D01*
X118202380Y-116845238D01*
X118226190Y-116797619D01*
X118226190Y-116702380D01*
X118202380Y-116654761D01*
X118178571Y-116630952D01*
X118130952Y-116607142D01*
X118011904Y-116607142D01*
X117964285Y-116630952D01*
X117940476Y-116654761D01*
X117916666Y-116702380D01*
X117916666Y-116797619D01*
X117940476Y-116845238D01*
X117964285Y-116869047D01*
X118011904Y-116892857D01*
D10*
%TO.C,GND_THT1*%
X159621428Y-95300000D02*
X159526190Y-95252380D01*
X159383333Y-95252380D01*
X159240476Y-95300000D01*
X159145238Y-95395238D01*
X159097619Y-95490476D01*
X159050000Y-95680952D01*
X159050000Y-95823809D01*
X159097619Y-96014285D01*
X159145238Y-96109523D01*
X159240476Y-96204761D01*
X159383333Y-96252380D01*
X159478571Y-96252380D01*
X159621428Y-96204761D01*
X159669047Y-96157142D01*
X159669047Y-95823809D01*
X159478571Y-95823809D01*
X160097619Y-96252380D02*
X160097619Y-95252380D01*
X160669047Y-96252380D01*
X160669047Y-95252380D01*
X161145238Y-96252380D02*
X161145238Y-95252380D01*
X161383333Y-95252380D01*
X161526190Y-95300000D01*
X161621428Y-95395238D01*
X161669047Y-95490476D01*
X161716666Y-95680952D01*
X161716666Y-95823809D01*
X161669047Y-96014285D01*
X161621428Y-96109523D01*
X161526190Y-96204761D01*
X161383333Y-96252380D01*
X161145238Y-96252380D01*
X161907142Y-96347619D02*
X162669047Y-96347619D01*
X162764285Y-95252380D02*
X163335714Y-95252380D01*
X163050000Y-96252380D02*
X163050000Y-95252380D01*
X163669047Y-96252380D02*
X163669047Y-95252380D01*
X163669047Y-95728571D02*
X164240476Y-95728571D01*
X164240476Y-96252380D02*
X164240476Y-95252380D01*
X164573809Y-95252380D02*
X165145238Y-95252380D01*
X164859523Y-96252380D02*
X164859523Y-95252380D01*
%TO.C,R1*%
X140547619Y-103738095D02*
X140500000Y-103690476D01*
X140452380Y-103595238D01*
X140452380Y-103357142D01*
X140500000Y-103261904D01*
X140547619Y-103214285D01*
X140642857Y-103166666D01*
X140738095Y-103166666D01*
X140880952Y-103214285D01*
X141452380Y-103785714D01*
X141452380Y-103166666D01*
X140547619Y-102785714D02*
X140500000Y-102738095D01*
X140452380Y-102642857D01*
X140452380Y-102404761D01*
X140500000Y-102309523D01*
X140547619Y-102261904D01*
X140642857Y-102214285D01*
X140738095Y-102214285D01*
X140880952Y-102261904D01*
X141452380Y-102833333D01*
X141452380Y-102214285D01*
X140452380Y-101595238D02*
X140452380Y-101500000D01*
X140500000Y-101404761D01*
X140547619Y-101357142D01*
X140642857Y-101309523D01*
X140833333Y-101261904D01*
X141071428Y-101261904D01*
X141261904Y-101309523D01*
X141357142Y-101357142D01*
X141404761Y-101404761D01*
X141452380Y-101500000D01*
X141452380Y-101595238D01*
X141404761Y-101690476D01*
X141357142Y-101738095D01*
X141261904Y-101785714D01*
X141071428Y-101833333D01*
X140833333Y-101833333D01*
X140642857Y-101785714D01*
X140547619Y-101738095D01*
X140500000Y-101690476D01*
X140452380Y-101595238D01*
X141452380Y-100261904D02*
X140976190Y-100595238D01*
X141452380Y-100833333D02*
X140452380Y-100833333D01*
X140452380Y-100452380D01*
X140500000Y-100357142D01*
X140547619Y-100309523D01*
X140642857Y-100261904D01*
X140785714Y-100261904D01*
X140880952Y-100309523D01*
X140928571Y-100357142D01*
X140976190Y-100452380D01*
X140976190Y-100833333D01*
D11*
X139226190Y-102083333D02*
X138988095Y-102250000D01*
X139226190Y-102369047D02*
X138726190Y-102369047D01*
X138726190Y-102178571D01*
X138750000Y-102130952D01*
X138773809Y-102107142D01*
X138821428Y-102083333D01*
X138892857Y-102083333D01*
X138940476Y-102107142D01*
X138964285Y-102130952D01*
X138988095Y-102178571D01*
X138988095Y-102369047D01*
X139226190Y-101607142D02*
X139226190Y-101892857D01*
X139226190Y-101750000D02*
X138726190Y-101750000D01*
X138797619Y-101797619D01*
X138845238Y-101845238D01*
X138869047Y-101892857D01*
D10*
%TO.C,D3*%
X156357142Y-114452380D02*
X155880952Y-114452380D01*
X155880952Y-113452380D01*
X156690476Y-113928571D02*
X157023809Y-113928571D01*
X157166666Y-114452380D02*
X156690476Y-114452380D01*
X156690476Y-113452380D01*
X157166666Y-113452380D01*
X157595238Y-114452380D02*
X157595238Y-113452380D01*
X157833333Y-113452380D01*
X157976190Y-113500000D01*
X158071428Y-113595238D01*
X158119047Y-113690476D01*
X158166666Y-113880952D01*
X158166666Y-114023809D01*
X158119047Y-114214285D01*
X158071428Y-114309523D01*
X157976190Y-114404761D01*
X157833333Y-114452380D01*
X157595238Y-114452380D01*
D11*
X157226190Y-117369047D02*
X156726190Y-117369047D01*
X156726190Y-117250000D01*
X156750000Y-117178571D01*
X156797619Y-117130952D01*
X156845238Y-117107142D01*
X156940476Y-117083333D01*
X157011904Y-117083333D01*
X157107142Y-117107142D01*
X157154761Y-117130952D01*
X157202380Y-117178571D01*
X157226190Y-117250000D01*
X157226190Y-117369047D01*
X156726190Y-116916666D02*
X156726190Y-116607142D01*
X156916666Y-116773809D01*
X156916666Y-116702380D01*
X156940476Y-116654761D01*
X156964285Y-116630952D01*
X157011904Y-116607142D01*
X157130952Y-116607142D01*
X157178571Y-116630952D01*
X157202380Y-116654761D01*
X157226190Y-116702380D01*
X157226190Y-116845238D01*
X157202380Y-116892857D01*
X157178571Y-116916666D01*
D10*
%TO.C,GND_THT2*%
X159621428Y-132300000D02*
X159526190Y-132252380D01*
X159383333Y-132252380D01*
X159240476Y-132300000D01*
X159145238Y-132395238D01*
X159097619Y-132490476D01*
X159050000Y-132680952D01*
X159050000Y-132823809D01*
X159097619Y-133014285D01*
X159145238Y-133109523D01*
X159240476Y-133204761D01*
X159383333Y-133252380D01*
X159478571Y-133252380D01*
X159621428Y-133204761D01*
X159669047Y-133157142D01*
X159669047Y-132823809D01*
X159478571Y-132823809D01*
X160097619Y-133252380D02*
X160097619Y-132252380D01*
X160669047Y-133252380D01*
X160669047Y-132252380D01*
X161145238Y-133252380D02*
X161145238Y-132252380D01*
X161383333Y-132252380D01*
X161526190Y-132300000D01*
X161621428Y-132395238D01*
X161669047Y-132490476D01*
X161716666Y-132680952D01*
X161716666Y-132823809D01*
X161669047Y-133014285D01*
X161621428Y-133109523D01*
X161526190Y-133204761D01*
X161383333Y-133252380D01*
X161145238Y-133252380D01*
X161907142Y-133347619D02*
X162669047Y-133347619D01*
X162764285Y-132252380D02*
X163335714Y-132252380D01*
X163050000Y-133252380D02*
X163050000Y-132252380D01*
X163669047Y-133252380D02*
X163669047Y-132252380D01*
X163669047Y-132728571D02*
X164240476Y-132728571D01*
X164240476Y-133252380D02*
X164240476Y-132252380D01*
X164573809Y-132252380D02*
X165145238Y-132252380D01*
X164859523Y-133252380D02*
X164859523Y-132252380D01*
%TO.C,R3*%
X132547619Y-103738095D02*
X132500000Y-103690476D01*
X132452380Y-103595238D01*
X132452380Y-103357142D01*
X132500000Y-103261904D01*
X132547619Y-103214285D01*
X132642857Y-103166666D01*
X132738095Y-103166666D01*
X132880952Y-103214285D01*
X133452380Y-103785714D01*
X133452380Y-103166666D01*
X132547619Y-102785714D02*
X132500000Y-102738095D01*
X132452380Y-102642857D01*
X132452380Y-102404761D01*
X132500000Y-102309523D01*
X132547619Y-102261904D01*
X132642857Y-102214285D01*
X132738095Y-102214285D01*
X132880952Y-102261904D01*
X133452380Y-102833333D01*
X133452380Y-102214285D01*
X132452380Y-101595238D02*
X132452380Y-101500000D01*
X132500000Y-101404761D01*
X132547619Y-101357142D01*
X132642857Y-101309523D01*
X132833333Y-101261904D01*
X133071428Y-101261904D01*
X133261904Y-101309523D01*
X133357142Y-101357142D01*
X133404761Y-101404761D01*
X133452380Y-101500000D01*
X133452380Y-101595238D01*
X133404761Y-101690476D01*
X133357142Y-101738095D01*
X133261904Y-101785714D01*
X133071428Y-101833333D01*
X132833333Y-101833333D01*
X132642857Y-101785714D01*
X132547619Y-101738095D01*
X132500000Y-101690476D01*
X132452380Y-101595238D01*
X133452380Y-100261904D02*
X132976190Y-100595238D01*
X133452380Y-100833333D02*
X132452380Y-100833333D01*
X132452380Y-100452380D01*
X132500000Y-100357142D01*
X132547619Y-100309523D01*
X132642857Y-100261904D01*
X132785714Y-100261904D01*
X132880952Y-100309523D01*
X132928571Y-100357142D01*
X132976190Y-100452380D01*
X132976190Y-100833333D01*
D11*
X131226190Y-102083333D02*
X130988095Y-102250000D01*
X131226190Y-102369047D02*
X130726190Y-102369047D01*
X130726190Y-102178571D01*
X130750000Y-102130952D01*
X130773809Y-102107142D01*
X130821428Y-102083333D01*
X130892857Y-102083333D01*
X130940476Y-102107142D01*
X130964285Y-102130952D01*
X130988095Y-102178571D01*
X130988095Y-102369047D01*
X130726190Y-101916666D02*
X130726190Y-101607142D01*
X130916666Y-101773809D01*
X130916666Y-101702380D01*
X130940476Y-101654761D01*
X130964285Y-101630952D01*
X131011904Y-101607142D01*
X131130952Y-101607142D01*
X131178571Y-101630952D01*
X131202380Y-101654761D01*
X131226190Y-101702380D01*
X131226190Y-101845238D01*
X131202380Y-101892857D01*
X131178571Y-101916666D01*
D10*
%TO.C,SW1*%
X148666666Y-126404761D02*
X148809523Y-126452380D01*
X149047619Y-126452380D01*
X149142857Y-126404761D01*
X149190476Y-126357142D01*
X149238095Y-126261904D01*
X149238095Y-126166666D01*
X149190476Y-126071428D01*
X149142857Y-126023809D01*
X149047619Y-125976190D01*
X148857142Y-125928571D01*
X148761904Y-125880952D01*
X148714285Y-125833333D01*
X148666666Y-125738095D01*
X148666666Y-125642857D01*
X148714285Y-125547619D01*
X148761904Y-125500000D01*
X148857142Y-125452380D01*
X149095238Y-125452380D01*
X149238095Y-125500000D01*
X149571428Y-125452380D02*
X149809523Y-126452380D01*
X150000000Y-125738095D01*
X150190476Y-126452380D01*
X150428571Y-125452380D01*
X151333333Y-126452380D02*
X150761904Y-126452380D01*
X151047619Y-126452380D02*
X151047619Y-125452380D01*
X150952380Y-125595238D01*
X150857142Y-125690476D01*
X150761904Y-125738095D01*
%TO.C,R5*%
X136547619Y-103738095D02*
X136500000Y-103690476D01*
X136452380Y-103595238D01*
X136452380Y-103357142D01*
X136500000Y-103261904D01*
X136547619Y-103214285D01*
X136642857Y-103166666D01*
X136738095Y-103166666D01*
X136880952Y-103214285D01*
X137452380Y-103785714D01*
X137452380Y-103166666D01*
X136547619Y-102785714D02*
X136500000Y-102738095D01*
X136452380Y-102642857D01*
X136452380Y-102404761D01*
X136500000Y-102309523D01*
X136547619Y-102261904D01*
X136642857Y-102214285D01*
X136738095Y-102214285D01*
X136880952Y-102261904D01*
X137452380Y-102833333D01*
X137452380Y-102214285D01*
X136452380Y-101595238D02*
X136452380Y-101500000D01*
X136500000Y-101404761D01*
X136547619Y-101357142D01*
X136642857Y-101309523D01*
X136833333Y-101261904D01*
X137071428Y-101261904D01*
X137261904Y-101309523D01*
X137357142Y-101357142D01*
X137404761Y-101404761D01*
X137452380Y-101500000D01*
X137452380Y-101595238D01*
X137404761Y-101690476D01*
X137357142Y-101738095D01*
X137261904Y-101785714D01*
X137071428Y-101833333D01*
X136833333Y-101833333D01*
X136642857Y-101785714D01*
X136547619Y-101738095D01*
X136500000Y-101690476D01*
X136452380Y-101595238D01*
X137452380Y-100261904D02*
X136976190Y-100595238D01*
X137452380Y-100833333D02*
X136452380Y-100833333D01*
X136452380Y-100452380D01*
X136500000Y-100357142D01*
X136547619Y-100309523D01*
X136642857Y-100261904D01*
X136785714Y-100261904D01*
X136880952Y-100309523D01*
X136928571Y-100357142D01*
X136976190Y-100452380D01*
X136976190Y-100833333D01*
D11*
X135226190Y-102083333D02*
X134988095Y-102250000D01*
X135226190Y-102369047D02*
X134726190Y-102369047D01*
X134726190Y-102178571D01*
X134750000Y-102130952D01*
X134773809Y-102107142D01*
X134821428Y-102083333D01*
X134892857Y-102083333D01*
X134940476Y-102107142D01*
X134964285Y-102130952D01*
X134988095Y-102178571D01*
X134988095Y-102369047D01*
X134726190Y-101630952D02*
X134726190Y-101869047D01*
X134964285Y-101892857D01*
X134940476Y-101869047D01*
X134916666Y-101821428D01*
X134916666Y-101702380D01*
X134940476Y-101654761D01*
X134964285Y-101630952D01*
X135011904Y-101607142D01*
X135130952Y-101607142D01*
X135178571Y-101630952D01*
X135202380Y-101654761D01*
X135226190Y-101702380D01*
X135226190Y-101821428D01*
X135202380Y-101869047D01*
X135178571Y-101892857D01*
D10*
%TO.C,pull_down1*%
X133880952Y-96452380D02*
X133309523Y-96452380D01*
X133595238Y-96452380D02*
X133595238Y-95452380D01*
X133500000Y-95595238D01*
X133404761Y-95690476D01*
X133309523Y-95738095D01*
X134309523Y-96452380D02*
X134309523Y-95452380D01*
X134404761Y-96071428D02*
X134690476Y-96452380D01*
X134690476Y-95785714D02*
X134309523Y-96166666D01*
D11*
X132035714Y-97892857D02*
X132035714Y-98392857D01*
X132035714Y-97916666D02*
X132083333Y-97892857D01*
X132178571Y-97892857D01*
X132226190Y-97916666D01*
X132250000Y-97940476D01*
X132273809Y-97988095D01*
X132273809Y-98130952D01*
X132250000Y-98178571D01*
X132226190Y-98202380D01*
X132178571Y-98226190D01*
X132083333Y-98226190D01*
X132035714Y-98202380D01*
X132702380Y-97892857D02*
X132702380Y-98226190D01*
X132488095Y-97892857D02*
X132488095Y-98154761D01*
X132511904Y-98202380D01*
X132559523Y-98226190D01*
X132630952Y-98226190D01*
X132678571Y-98202380D01*
X132702380Y-98178571D01*
X133011904Y-98226190D02*
X132964285Y-98202380D01*
X132940476Y-98154761D01*
X132940476Y-97726190D01*
X133273809Y-98226190D02*
X133226190Y-98202380D01*
X133202380Y-98154761D01*
X133202380Y-97726190D01*
X133345238Y-98273809D02*
X133726190Y-98273809D01*
X134059523Y-98226190D02*
X134059523Y-97726190D01*
X134059523Y-98202380D02*
X134011904Y-98226190D01*
X133916666Y-98226190D01*
X133869047Y-98202380D01*
X133845238Y-98178571D01*
X133821428Y-98130952D01*
X133821428Y-97988095D01*
X133845238Y-97940476D01*
X133869047Y-97916666D01*
X133916666Y-97892857D01*
X134011904Y-97892857D01*
X134059523Y-97916666D01*
X134369047Y-98226190D02*
X134321428Y-98202380D01*
X134297619Y-98178571D01*
X134273809Y-98130952D01*
X134273809Y-97988095D01*
X134297619Y-97940476D01*
X134321428Y-97916666D01*
X134369047Y-97892857D01*
X134440476Y-97892857D01*
X134488095Y-97916666D01*
X134511904Y-97940476D01*
X134535714Y-97988095D01*
X134535714Y-98130952D01*
X134511904Y-98178571D01*
X134488095Y-98202380D01*
X134440476Y-98226190D01*
X134369047Y-98226190D01*
X134702380Y-97892857D02*
X134797619Y-98226190D01*
X134892857Y-97988095D01*
X134988095Y-98226190D01*
X135083333Y-97892857D01*
X135273809Y-97892857D02*
X135273809Y-98226190D01*
X135273809Y-97940476D02*
X135297619Y-97916666D01*
X135345238Y-97892857D01*
X135416666Y-97892857D01*
X135464285Y-97916666D01*
X135488095Y-97964285D01*
X135488095Y-98226190D01*
X135988095Y-98226190D02*
X135702380Y-98226190D01*
X135845238Y-98226190D02*
X135845238Y-97726190D01*
X135797619Y-97797619D01*
X135750000Y-97845238D01*
X135702380Y-97869047D01*
D10*
%TO.C,D1*%
X117357142Y-123802380D02*
X116880952Y-123802380D01*
X116880952Y-122802380D01*
X117690476Y-123278571D02*
X118023809Y-123278571D01*
X118166666Y-123802380D02*
X117690476Y-123802380D01*
X117690476Y-122802380D01*
X118166666Y-122802380D01*
X118595238Y-123802380D02*
X118595238Y-122802380D01*
X118833333Y-122802380D01*
X118976190Y-122850000D01*
X119071428Y-122945238D01*
X119119047Y-123040476D01*
X119166666Y-123230952D01*
X119166666Y-123373809D01*
X119119047Y-123564285D01*
X119071428Y-123659523D01*
X118976190Y-123754761D01*
X118833333Y-123802380D01*
X118595238Y-123802380D01*
D11*
X117630952Y-125226190D02*
X117630952Y-124726190D01*
X117750000Y-124726190D01*
X117821428Y-124750000D01*
X117869047Y-124797619D01*
X117892857Y-124845238D01*
X117916666Y-124940476D01*
X117916666Y-125011904D01*
X117892857Y-125107142D01*
X117869047Y-125154761D01*
X117821428Y-125202380D01*
X117750000Y-125226190D01*
X117630952Y-125226190D01*
X118392857Y-125226190D02*
X118107142Y-125226190D01*
X118250000Y-125226190D02*
X118250000Y-124726190D01*
X118202380Y-124797619D01*
X118154761Y-124845238D01*
X118107142Y-124869047D01*
D10*
%TO.C,D5*%
X156532142Y-107452380D02*
X156055952Y-107452380D01*
X156055952Y-106452380D01*
X156865476Y-106928571D02*
X157198809Y-106928571D01*
X157341666Y-107452380D02*
X156865476Y-107452380D01*
X156865476Y-106452380D01*
X157341666Y-106452380D01*
X157770238Y-107452380D02*
X157770238Y-106452380D01*
X158008333Y-106452380D01*
X158151190Y-106500000D01*
X158246428Y-106595238D01*
X158294047Y-106690476D01*
X158341666Y-106880952D01*
X158341666Y-107023809D01*
X158294047Y-107214285D01*
X158246428Y-107309523D01*
X158151190Y-107404761D01*
X158008333Y-107452380D01*
X157770238Y-107452380D01*
D11*
X156655952Y-109226190D02*
X156655952Y-108726190D01*
X156775000Y-108726190D01*
X156846428Y-108750000D01*
X156894047Y-108797619D01*
X156917857Y-108845238D01*
X156941666Y-108940476D01*
X156941666Y-109011904D01*
X156917857Y-109107142D01*
X156894047Y-109154761D01*
X156846428Y-109202380D01*
X156775000Y-109226190D01*
X156655952Y-109226190D01*
X157394047Y-108726190D02*
X157155952Y-108726190D01*
X157132142Y-108964285D01*
X157155952Y-108940476D01*
X157203571Y-108916666D01*
X157322619Y-108916666D01*
X157370238Y-108940476D01*
X157394047Y-108964285D01*
X157417857Y-109011904D01*
X157417857Y-109130952D01*
X157394047Y-109178571D01*
X157370238Y-109202380D01*
X157322619Y-109226190D01*
X157203571Y-109226190D01*
X157155952Y-109202380D01*
X157132142Y-109178571D01*
D10*
%TO.C,R2*%
X144547619Y-103738095D02*
X144500000Y-103690476D01*
X144452380Y-103595238D01*
X144452380Y-103357142D01*
X144500000Y-103261904D01*
X144547619Y-103214285D01*
X144642857Y-103166666D01*
X144738095Y-103166666D01*
X144880952Y-103214285D01*
X145452380Y-103785714D01*
X145452380Y-103166666D01*
X144547619Y-102785714D02*
X144500000Y-102738095D01*
X144452380Y-102642857D01*
X144452380Y-102404761D01*
X144500000Y-102309523D01*
X144547619Y-102261904D01*
X144642857Y-102214285D01*
X144738095Y-102214285D01*
X144880952Y-102261904D01*
X145452380Y-102833333D01*
X145452380Y-102214285D01*
X144452380Y-101595238D02*
X144452380Y-101500000D01*
X144500000Y-101404761D01*
X144547619Y-101357142D01*
X144642857Y-101309523D01*
X144833333Y-101261904D01*
X145071428Y-101261904D01*
X145261904Y-101309523D01*
X145357142Y-101357142D01*
X145404761Y-101404761D01*
X145452380Y-101500000D01*
X145452380Y-101595238D01*
X145404761Y-101690476D01*
X145357142Y-101738095D01*
X145261904Y-101785714D01*
X145071428Y-101833333D01*
X144833333Y-101833333D01*
X144642857Y-101785714D01*
X144547619Y-101738095D01*
X144500000Y-101690476D01*
X144452380Y-101595238D01*
X145452380Y-100261904D02*
X144976190Y-100595238D01*
X145452380Y-100833333D02*
X144452380Y-100833333D01*
X144452380Y-100452380D01*
X144500000Y-100357142D01*
X144547619Y-100309523D01*
X144642857Y-100261904D01*
X144785714Y-100261904D01*
X144880952Y-100309523D01*
X144928571Y-100357142D01*
X144976190Y-100452380D01*
X144976190Y-100833333D01*
D11*
X143226190Y-102083333D02*
X142988095Y-102250000D01*
X143226190Y-102369047D02*
X142726190Y-102369047D01*
X142726190Y-102178571D01*
X142750000Y-102130952D01*
X142773809Y-102107142D01*
X142821428Y-102083333D01*
X142892857Y-102083333D01*
X142940476Y-102107142D01*
X142964285Y-102130952D01*
X142988095Y-102178571D01*
X142988095Y-102369047D01*
X142773809Y-101892857D02*
X142750000Y-101869047D01*
X142726190Y-101821428D01*
X142726190Y-101702380D01*
X142750000Y-101654761D01*
X142773809Y-101630952D01*
X142821428Y-101607142D01*
X142869047Y-101607142D01*
X142940476Y-101630952D01*
X143226190Y-101916666D01*
X143226190Y-101607142D01*
D10*
%TO.C,U2*%
X121183987Y-131743044D02*
X121183987Y-130100524D01*
X121809709Y-130100524D01*
X121966140Y-130178740D01*
X122044355Y-130256955D01*
X122122570Y-130413385D01*
X122122570Y-130648031D01*
X122044355Y-130804461D01*
X121966140Y-130882677D01*
X121809709Y-130960892D01*
X121183987Y-130960892D01*
X122826507Y-131743044D02*
X122826507Y-130100524D01*
X124547242Y-131586614D02*
X124469027Y-131664829D01*
X124234381Y-131743044D01*
X124077951Y-131743044D01*
X123843305Y-131664829D01*
X123686875Y-131508399D01*
X123608660Y-131351968D01*
X123530444Y-131039107D01*
X123530444Y-130804461D01*
X123608660Y-130491600D01*
X123686875Y-130335170D01*
X123843305Y-130178740D01*
X124077951Y-130100524D01*
X124234381Y-130100524D01*
X124469027Y-130178740D01*
X124547242Y-130256955D01*
X126111547Y-131743044D02*
X125172964Y-131743044D01*
X125642256Y-131743044D02*
X125642256Y-130100524D01*
X125485825Y-130335170D01*
X125329395Y-130491600D01*
X125172964Y-130569816D01*
X127519421Y-130100524D02*
X127206560Y-130100524D01*
X127050130Y-130178740D01*
X126971915Y-130256955D01*
X126815484Y-130491600D01*
X126737269Y-130804461D01*
X126737269Y-131430183D01*
X126815484Y-131586614D01*
X126893700Y-131664829D01*
X127050130Y-131743044D01*
X127362991Y-131743044D01*
X127519421Y-131664829D01*
X127597637Y-131586614D01*
X127675852Y-131430183D01*
X127675852Y-131039107D01*
X127597637Y-130882677D01*
X127519421Y-130804461D01*
X127362991Y-130726246D01*
X127050130Y-130726246D01*
X126893700Y-130804461D01*
X126815484Y-130882677D01*
X126737269Y-131039107D01*
X128927296Y-130882677D02*
X128379789Y-130882677D01*
X128379789Y-131743044D02*
X128379789Y-130100524D01*
X129161941Y-130100524D01*
X130491600Y-130100524D02*
X130178740Y-130100524D01*
X130022309Y-130178740D01*
X129944094Y-130256955D01*
X129787663Y-130491600D01*
X129709448Y-130804461D01*
X129709448Y-131430183D01*
X129787663Y-131586614D01*
X129865879Y-131664829D01*
X130022309Y-131743044D01*
X130335170Y-131743044D01*
X130491600Y-131664829D01*
X130569816Y-131586614D01*
X130648031Y-131430183D01*
X130648031Y-131039107D01*
X130569816Y-130882677D01*
X130491600Y-130804461D01*
X130335170Y-130726246D01*
X130022309Y-130726246D01*
X129865879Y-130804461D01*
X129787663Y-130882677D01*
X129709448Y-131039107D01*
X131273753Y-130256955D02*
X131351968Y-130178740D01*
X131508399Y-130100524D01*
X131899475Y-130100524D01*
X132055905Y-130178740D01*
X132134120Y-130256955D01*
X132212336Y-130413385D01*
X132212336Y-130569816D01*
X132134120Y-130804461D01*
X131195538Y-131743044D01*
X132212336Y-131743044D01*
X132759842Y-130100524D02*
X133854856Y-130100524D01*
X133150919Y-131743044D01*
X134480578Y-131117322D02*
X135732021Y-131117322D01*
X136357743Y-131743044D02*
X137218111Y-130648031D01*
X136357743Y-130648031D02*
X137218111Y-131743044D01*
X137687402Y-131743044D02*
X138547770Y-130648031D01*
X137687402Y-130648031D02*
X138547770Y-131743044D01*
X139173492Y-131743044D02*
X139173492Y-130100524D01*
X139955644Y-131743044D02*
X139955644Y-130100524D01*
X140581366Y-130100524D01*
X140737797Y-130178740D01*
X140816012Y-130256955D01*
X140894227Y-130413385D01*
X140894227Y-130648031D01*
X140816012Y-130804461D01*
X140737797Y-130882677D01*
X140581366Y-130960892D01*
X139955644Y-130960892D01*
X122590550Y-105228363D02*
X122590550Y-105466901D01*
X122352012Y-105371486D02*
X122590550Y-105466901D01*
X122829087Y-105371486D01*
X122447427Y-105657731D02*
X122590550Y-105466901D01*
X122733672Y-105657731D01*
%TO.C,D4*%
X117357142Y-98452380D02*
X116880952Y-98452380D01*
X116880952Y-97452380D01*
X117690476Y-97928571D02*
X118023809Y-97928571D01*
X118166666Y-98452380D02*
X117690476Y-98452380D01*
X117690476Y-97452380D01*
X118166666Y-97452380D01*
X118595238Y-98452380D02*
X118595238Y-97452380D01*
X118833333Y-97452380D01*
X118976190Y-97500000D01*
X119071428Y-97595238D01*
X119119047Y-97690476D01*
X119166666Y-97880952D01*
X119166666Y-98023809D01*
X119119047Y-98214285D01*
X119071428Y-98309523D01*
X118976190Y-98404761D01*
X118833333Y-98452380D01*
X118595238Y-98452380D01*
D11*
X118226190Y-101369047D02*
X117726190Y-101369047D01*
X117726190Y-101250000D01*
X117750000Y-101178571D01*
X117797619Y-101130952D01*
X117845238Y-101107142D01*
X117940476Y-101083333D01*
X118011904Y-101083333D01*
X118107142Y-101107142D01*
X118154761Y-101130952D01*
X118202380Y-101178571D01*
X118226190Y-101250000D01*
X118226190Y-101369047D01*
X117892857Y-100654761D02*
X118226190Y-100654761D01*
X117702380Y-100773809D02*
X118059523Y-100892857D01*
X118059523Y-100583333D01*
D10*
%TO.C,D2*%
X117357142Y-107802380D02*
X116880952Y-107802380D01*
X116880952Y-106802380D01*
X117690476Y-107278571D02*
X118023809Y-107278571D01*
X118166666Y-107802380D02*
X117690476Y-107802380D01*
X117690476Y-106802380D01*
X118166666Y-106802380D01*
X118595238Y-107802380D02*
X118595238Y-106802380D01*
X118833333Y-106802380D01*
X118976190Y-106850000D01*
X119071428Y-106945238D01*
X119119047Y-107040476D01*
X119166666Y-107230952D01*
X119166666Y-107373809D01*
X119119047Y-107564285D01*
X119071428Y-107659523D01*
X118976190Y-107754761D01*
X118833333Y-107802380D01*
X118595238Y-107802380D01*
D11*
X117630952Y-109226190D02*
X117630952Y-108726190D01*
X117750000Y-108726190D01*
X117821428Y-108750000D01*
X117869047Y-108797619D01*
X117892857Y-108845238D01*
X117916666Y-108940476D01*
X117916666Y-109011904D01*
X117892857Y-109107142D01*
X117869047Y-109154761D01*
X117821428Y-109202380D01*
X117750000Y-109226190D01*
X117630952Y-109226190D01*
X118107142Y-108773809D02*
X118130952Y-108750000D01*
X118178571Y-108726190D01*
X118297619Y-108726190D01*
X118345238Y-108750000D01*
X118369047Y-108773809D01*
X118392857Y-108821428D01*
X118392857Y-108869047D01*
X118369047Y-108940476D01*
X118083333Y-109226190D01*
X118392857Y-109226190D01*
D10*
%TO.C,pull_down2*%
X128880952Y-96452380D02*
X128309523Y-96452380D01*
X128595238Y-96452380D02*
X128595238Y-95452380D01*
X128500000Y-95595238D01*
X128404761Y-95690476D01*
X128309523Y-95738095D01*
X129309523Y-96452380D02*
X129309523Y-95452380D01*
X129404761Y-96071428D02*
X129690476Y-96452380D01*
X129690476Y-95785714D02*
X129309523Y-96166666D01*
D11*
X127035714Y-97892857D02*
X127035714Y-98392857D01*
X127035714Y-97916666D02*
X127083333Y-97892857D01*
X127178571Y-97892857D01*
X127226190Y-97916666D01*
X127250000Y-97940476D01*
X127273809Y-97988095D01*
X127273809Y-98130952D01*
X127250000Y-98178571D01*
X127226190Y-98202380D01*
X127178571Y-98226190D01*
X127083333Y-98226190D01*
X127035714Y-98202380D01*
X127702380Y-97892857D02*
X127702380Y-98226190D01*
X127488095Y-97892857D02*
X127488095Y-98154761D01*
X127511904Y-98202380D01*
X127559523Y-98226190D01*
X127630952Y-98226190D01*
X127678571Y-98202380D01*
X127702380Y-98178571D01*
X128011904Y-98226190D02*
X127964285Y-98202380D01*
X127940476Y-98154761D01*
X127940476Y-97726190D01*
X128273809Y-98226190D02*
X128226190Y-98202380D01*
X128202380Y-98154761D01*
X128202380Y-97726190D01*
X128345238Y-98273809D02*
X128726190Y-98273809D01*
X129059523Y-98226190D02*
X129059523Y-97726190D01*
X129059523Y-98202380D02*
X129011904Y-98226190D01*
X128916666Y-98226190D01*
X128869047Y-98202380D01*
X128845238Y-98178571D01*
X128821428Y-98130952D01*
X128821428Y-97988095D01*
X128845238Y-97940476D01*
X128869047Y-97916666D01*
X128916666Y-97892857D01*
X129011904Y-97892857D01*
X129059523Y-97916666D01*
X129369047Y-98226190D02*
X129321428Y-98202380D01*
X129297619Y-98178571D01*
X129273809Y-98130952D01*
X129273809Y-97988095D01*
X129297619Y-97940476D01*
X129321428Y-97916666D01*
X129369047Y-97892857D01*
X129440476Y-97892857D01*
X129488095Y-97916666D01*
X129511904Y-97940476D01*
X129535714Y-97988095D01*
X129535714Y-98130952D01*
X129511904Y-98178571D01*
X129488095Y-98202380D01*
X129440476Y-98226190D01*
X129369047Y-98226190D01*
X129702380Y-97892857D02*
X129797619Y-98226190D01*
X129892857Y-97988095D01*
X129988095Y-98226190D01*
X130083333Y-97892857D01*
X130273809Y-97892857D02*
X130273809Y-98226190D01*
X130273809Y-97940476D02*
X130297619Y-97916666D01*
X130345238Y-97892857D01*
X130416666Y-97892857D01*
X130464285Y-97916666D01*
X130488095Y-97964285D01*
X130488095Y-98226190D01*
X130702380Y-97773809D02*
X130726190Y-97750000D01*
X130773809Y-97726190D01*
X130892857Y-97726190D01*
X130940476Y-97750000D01*
X130964285Y-97773809D01*
X130988095Y-97821428D01*
X130988095Y-97869047D01*
X130964285Y-97940476D01*
X130678571Y-98226190D01*
X130988095Y-98226190D01*
D10*
%TO.C,BZ1*%
X133428571Y-123452380D02*
X133428571Y-122452380D01*
X133809523Y-122452380D01*
X133904761Y-122500000D01*
X133952380Y-122547619D01*
X134000000Y-122642857D01*
X134000000Y-122785714D01*
X133952380Y-122880952D01*
X133904761Y-122928571D01*
X133809523Y-122976190D01*
X133428571Y-122976190D01*
X134428571Y-123452380D02*
X134428571Y-122452380D01*
X135000000Y-123452380D02*
X134571428Y-122880952D01*
X135000000Y-122452380D02*
X134428571Y-123023809D01*
X135428571Y-123452380D02*
X135428571Y-122452380D01*
X135761904Y-123166666D01*
X136095238Y-122452380D01*
X136095238Y-123452380D01*
X137142857Y-123357142D02*
X137095238Y-123404761D01*
X136952380Y-123452380D01*
X136857142Y-123452380D01*
X136714285Y-123404761D01*
X136619047Y-123309523D01*
X136571428Y-123214285D01*
X136523809Y-123023809D01*
X136523809Y-122880952D01*
X136571428Y-122690476D01*
X136619047Y-122595238D01*
X136714285Y-122500000D01*
X136857142Y-122452380D01*
X136952380Y-122452380D01*
X137095238Y-122500000D01*
X137142857Y-122547619D01*
X137523809Y-123404761D02*
X137666666Y-123452380D01*
X137904761Y-123452380D01*
X138000000Y-123404761D01*
X138047619Y-123357142D01*
X138095238Y-123261904D01*
X138095238Y-123166666D01*
X138047619Y-123071428D01*
X138000000Y-123023809D01*
X137904761Y-122976190D01*
X137714285Y-122928571D01*
X137619047Y-122880952D01*
X137571428Y-122833333D01*
X137523809Y-122738095D01*
X137523809Y-122642857D01*
X137571428Y-122547619D01*
X137619047Y-122500000D01*
X137714285Y-122452380D01*
X137952380Y-122452380D01*
X138095238Y-122500000D01*
X138714285Y-122452380D02*
X138809523Y-122452380D01*
X138904761Y-122500000D01*
X138952380Y-122547619D01*
X139000000Y-122642857D01*
X139047619Y-122833333D01*
X139047619Y-123071428D01*
X139000000Y-123261904D01*
X138952380Y-123357142D01*
X138904761Y-123404761D01*
X138809523Y-123452380D01*
X138714285Y-123452380D01*
X138619047Y-123404761D01*
X138571428Y-123357142D01*
X138523809Y-123261904D01*
X138476190Y-123071428D01*
X138476190Y-122833333D01*
X138523809Y-122642857D01*
X138571428Y-122547619D01*
X138619047Y-122500000D01*
X138714285Y-122452380D01*
X139523809Y-123452380D02*
X139714285Y-123452380D01*
X139809523Y-123404761D01*
X139857142Y-123357142D01*
X139952380Y-123214285D01*
X140000000Y-123023809D01*
X140000000Y-122642857D01*
X139952380Y-122547619D01*
X139904761Y-122500000D01*
X139809523Y-122452380D01*
X139619047Y-122452380D01*
X139523809Y-122500000D01*
X139476190Y-122547619D01*
X139428571Y-122642857D01*
X139428571Y-122880952D01*
X139476190Y-122976190D01*
X139523809Y-123023809D01*
X139619047Y-123071428D01*
X139809523Y-123071428D01*
X139904761Y-123023809D01*
X139952380Y-122976190D01*
X140000000Y-122880952D01*
X140619047Y-122452380D02*
X140714285Y-122452380D01*
X140809523Y-122500000D01*
X140857142Y-122547619D01*
X140904761Y-122642857D01*
X140952380Y-122833333D01*
X140952380Y-123071428D01*
X140904761Y-123261904D01*
X140857142Y-123357142D01*
X140809523Y-123404761D01*
X140714285Y-123452380D01*
X140619047Y-123452380D01*
X140523809Y-123404761D01*
X140476190Y-123357142D01*
X140428571Y-123261904D01*
X140380952Y-123071428D01*
X140380952Y-122833333D01*
X140428571Y-122642857D01*
X140476190Y-122547619D01*
X140523809Y-122500000D01*
X140619047Y-122452380D01*
X141428571Y-123452380D02*
X141619047Y-123452380D01*
X141714285Y-123404761D01*
X141761904Y-123357142D01*
X141857142Y-123214285D01*
X141904761Y-123023809D01*
X141904761Y-122642857D01*
X141857142Y-122547619D01*
X141809523Y-122500000D01*
X141714285Y-122452380D01*
X141523809Y-122452380D01*
X141428571Y-122500000D01*
X141380952Y-122547619D01*
X141333333Y-122642857D01*
X141333333Y-122880952D01*
X141380952Y-122976190D01*
X141428571Y-123023809D01*
X141523809Y-123071428D01*
X141714285Y-123071428D01*
X141809523Y-123023809D01*
X141857142Y-122976190D01*
X141904761Y-122880952D01*
X142333333Y-122928571D02*
X142666666Y-122928571D01*
X142809523Y-123452380D02*
X142333333Y-123452380D01*
X142333333Y-122452380D01*
X142809523Y-122452380D01*
X143666666Y-122785714D02*
X143666666Y-123452380D01*
X143428571Y-122404761D02*
X143190476Y-123119047D01*
X143809523Y-123119047D01*
X144380952Y-122452380D02*
X144476190Y-122452380D01*
X144571428Y-122500000D01*
X144619047Y-122547619D01*
X144666666Y-122642857D01*
X144714285Y-122833333D01*
X144714285Y-123071428D01*
X144666666Y-123261904D01*
X144619047Y-123357142D01*
X144571428Y-123404761D01*
X144476190Y-123452380D01*
X144380952Y-123452380D01*
X144285714Y-123404761D01*
X144238095Y-123357142D01*
X144190476Y-123261904D01*
X144142857Y-123071428D01*
X144142857Y-122833333D01*
X144190476Y-122642857D01*
X144238095Y-122547619D01*
X144285714Y-122500000D01*
X144380952Y-122452380D01*
X145333333Y-122452380D02*
X145428571Y-122452380D01*
X145523809Y-122500000D01*
X145571428Y-122547619D01*
X145619047Y-122642857D01*
X145666666Y-122833333D01*
X145666666Y-123071428D01*
X145619047Y-123261904D01*
X145571428Y-123357142D01*
X145523809Y-123404761D01*
X145428571Y-123452380D01*
X145333333Y-123452380D01*
X145238095Y-123404761D01*
X145190476Y-123357142D01*
X145142857Y-123261904D01*
X145095238Y-123071428D01*
X145095238Y-122833333D01*
X145142857Y-122642857D01*
X145190476Y-122547619D01*
X145238095Y-122500000D01*
X145333333Y-122452380D01*
X146285714Y-122452380D02*
X146380952Y-122452380D01*
X146476190Y-122500000D01*
X146523809Y-122547619D01*
X146571428Y-122642857D01*
X146619047Y-122833333D01*
X146619047Y-123071428D01*
X146571428Y-123261904D01*
X146523809Y-123357142D01*
X146476190Y-123404761D01*
X146380952Y-123452380D01*
X146285714Y-123452380D01*
X146190476Y-123404761D01*
X146142857Y-123357142D01*
X146095238Y-123261904D01*
X146047619Y-123071428D01*
X146047619Y-122833333D01*
X146095238Y-122642857D01*
X146142857Y-122547619D01*
X146190476Y-122500000D01*
X146285714Y-122452380D01*
X139595238Y-122928571D02*
X139738095Y-122976190D01*
X139785714Y-123023809D01*
X139833333Y-123119047D01*
X139833333Y-123261904D01*
X139785714Y-123357142D01*
X139738095Y-123404761D01*
X139642857Y-123452380D01*
X139261904Y-123452380D01*
X139261904Y-122452380D01*
X139595238Y-122452380D01*
X139690476Y-122500000D01*
X139738095Y-122547619D01*
X139785714Y-122642857D01*
X139785714Y-122738095D01*
X139738095Y-122833333D01*
X139690476Y-122880952D01*
X139595238Y-122928571D01*
X139261904Y-122928571D01*
X140166666Y-122452380D02*
X140833333Y-122452380D01*
X140166666Y-123452380D01*
X140833333Y-123452380D01*
%TO.C,pull_up1*%
X138880952Y-96452380D02*
X138309523Y-96452380D01*
X138595238Y-96452380D02*
X138595238Y-95452380D01*
X138500000Y-95595238D01*
X138404761Y-95690476D01*
X138309523Y-95738095D01*
X139309523Y-96452380D02*
X139309523Y-95452380D01*
X139404761Y-96071428D02*
X139690476Y-96452380D01*
X139690476Y-95785714D02*
X139309523Y-96166666D01*
D11*
X137523809Y-97892857D02*
X137523809Y-98392857D01*
X137523809Y-97916666D02*
X137571428Y-97892857D01*
X137666666Y-97892857D01*
X137714285Y-97916666D01*
X137738095Y-97940476D01*
X137761904Y-97988095D01*
X137761904Y-98130952D01*
X137738095Y-98178571D01*
X137714285Y-98202380D01*
X137666666Y-98226190D01*
X137571428Y-98226190D01*
X137523809Y-98202380D01*
X138190476Y-97892857D02*
X138190476Y-98226190D01*
X137976190Y-97892857D02*
X137976190Y-98154761D01*
X138000000Y-98202380D01*
X138047619Y-98226190D01*
X138119047Y-98226190D01*
X138166666Y-98202380D01*
X138190476Y-98178571D01*
X138500000Y-98226190D02*
X138452380Y-98202380D01*
X138428571Y-98154761D01*
X138428571Y-97726190D01*
X138761904Y-98226190D02*
X138714285Y-98202380D01*
X138690476Y-98154761D01*
X138690476Y-97726190D01*
X138833333Y-98273809D02*
X139214285Y-98273809D01*
X139547619Y-97892857D02*
X139547619Y-98226190D01*
X139333333Y-97892857D02*
X139333333Y-98154761D01*
X139357142Y-98202380D01*
X139404761Y-98226190D01*
X139476190Y-98226190D01*
X139523809Y-98202380D01*
X139547619Y-98178571D01*
X139785714Y-97892857D02*
X139785714Y-98392857D01*
X139785714Y-97916666D02*
X139833333Y-97892857D01*
X139928571Y-97892857D01*
X139976190Y-97916666D01*
X140000000Y-97940476D01*
X140023809Y-97988095D01*
X140023809Y-98130952D01*
X140000000Y-98178571D01*
X139976190Y-98202380D01*
X139928571Y-98226190D01*
X139833333Y-98226190D01*
X139785714Y-98202380D01*
X140500000Y-98226190D02*
X140214285Y-98226190D01*
X140357142Y-98226190D02*
X140357142Y-97726190D01*
X140309523Y-97797619D01*
X140261904Y-97845238D01*
X140214285Y-97869047D01*
D10*
%TO.C,R6*%
X128547619Y-103738095D02*
X128500000Y-103690476D01*
X128452380Y-103595238D01*
X128452380Y-103357142D01*
X128500000Y-103261904D01*
X128547619Y-103214285D01*
X128642857Y-103166666D01*
X128738095Y-103166666D01*
X128880952Y-103214285D01*
X129452380Y-103785714D01*
X129452380Y-103166666D01*
X128547619Y-102785714D02*
X128500000Y-102738095D01*
X128452380Y-102642857D01*
X128452380Y-102404761D01*
X128500000Y-102309523D01*
X128547619Y-102261904D01*
X128642857Y-102214285D01*
X128738095Y-102214285D01*
X128880952Y-102261904D01*
X129452380Y-102833333D01*
X129452380Y-102214285D01*
X128452380Y-101595238D02*
X128452380Y-101500000D01*
X128500000Y-101404761D01*
X128547619Y-101357142D01*
X128642857Y-101309523D01*
X128833333Y-101261904D01*
X129071428Y-101261904D01*
X129261904Y-101309523D01*
X129357142Y-101357142D01*
X129404761Y-101404761D01*
X129452380Y-101500000D01*
X129452380Y-101595238D01*
X129404761Y-101690476D01*
X129357142Y-101738095D01*
X129261904Y-101785714D01*
X129071428Y-101833333D01*
X128833333Y-101833333D01*
X128642857Y-101785714D01*
X128547619Y-101738095D01*
X128500000Y-101690476D01*
X128452380Y-101595238D01*
X129452380Y-100261904D02*
X128976190Y-100595238D01*
X129452380Y-100833333D02*
X128452380Y-100833333D01*
X128452380Y-100452380D01*
X128500000Y-100357142D01*
X128547619Y-100309523D01*
X128642857Y-100261904D01*
X128785714Y-100261904D01*
X128880952Y-100309523D01*
X128928571Y-100357142D01*
X128976190Y-100452380D01*
X128976190Y-100833333D01*
D11*
X127226190Y-102083333D02*
X126988095Y-102250000D01*
X127226190Y-102369047D02*
X126726190Y-102369047D01*
X126726190Y-102178571D01*
X126750000Y-102130952D01*
X126773809Y-102107142D01*
X126821428Y-102083333D01*
X126892857Y-102083333D01*
X126940476Y-102107142D01*
X126964285Y-102130952D01*
X126988095Y-102178571D01*
X126988095Y-102369047D01*
X126726190Y-101654761D02*
X126726190Y-101750000D01*
X126750000Y-101797619D01*
X126773809Y-101821428D01*
X126845238Y-101869047D01*
X126940476Y-101892857D01*
X127130952Y-101892857D01*
X127178571Y-101869047D01*
X127202380Y-101845238D01*
X127226190Y-101797619D01*
X127226190Y-101702380D01*
X127202380Y-101654761D01*
X127178571Y-101630952D01*
X127130952Y-101607142D01*
X127011904Y-101607142D01*
X126964285Y-101630952D01*
X126940476Y-101654761D01*
X126916666Y-101702380D01*
X126916666Y-101797619D01*
X126940476Y-101845238D01*
X126964285Y-101869047D01*
X127011904Y-101892857D01*
D10*
%TO.C,VDD_THT1*%
X111550000Y-132252380D02*
X111883333Y-133252380D01*
X112216666Y-132252380D01*
X112550000Y-133252380D02*
X112550000Y-132252380D01*
X112788095Y-132252380D01*
X112930952Y-132300000D01*
X113026190Y-132395238D01*
X113073809Y-132490476D01*
X113121428Y-132680952D01*
X113121428Y-132823809D01*
X113073809Y-133014285D01*
X113026190Y-133109523D01*
X112930952Y-133204761D01*
X112788095Y-133252380D01*
X112550000Y-133252380D01*
X113550000Y-133252380D02*
X113550000Y-132252380D01*
X113788095Y-132252380D01*
X113930952Y-132300000D01*
X114026190Y-132395238D01*
X114073809Y-132490476D01*
X114121428Y-132680952D01*
X114121428Y-132823809D01*
X114073809Y-133014285D01*
X114026190Y-133109523D01*
X113930952Y-133204761D01*
X113788095Y-133252380D01*
X113550000Y-133252380D01*
X114311904Y-133347619D02*
X115073809Y-133347619D01*
X115169047Y-132252380D02*
X115740476Y-132252380D01*
X115454761Y-133252380D02*
X115454761Y-132252380D01*
X116073809Y-133252380D02*
X116073809Y-132252380D01*
X116073809Y-132728571D02*
X116645238Y-132728571D01*
X116645238Y-133252380D02*
X116645238Y-132252380D01*
X116978571Y-132252380D02*
X117550000Y-132252380D01*
X117264285Y-133252380D02*
X117264285Y-132252380D01*
%TO.C,R4*%
X143714285Y-96452380D02*
X143142857Y-96452380D01*
X143428571Y-96452380D02*
X143428571Y-95452380D01*
X143333333Y-95595238D01*
X143238095Y-95690476D01*
X143142857Y-95738095D01*
X144142857Y-96452380D02*
X144142857Y-95452380D01*
X144476190Y-96166666D01*
X144809523Y-95452380D01*
X144809523Y-96452380D01*
D11*
X143916666Y-98226190D02*
X143750000Y-97988095D01*
X143630952Y-98226190D02*
X143630952Y-97726190D01*
X143821428Y-97726190D01*
X143869047Y-97750000D01*
X143892857Y-97773809D01*
X143916666Y-97821428D01*
X143916666Y-97892857D01*
X143892857Y-97940476D01*
X143869047Y-97964285D01*
X143821428Y-97988095D01*
X143630952Y-97988095D01*
X144345238Y-97892857D02*
X144345238Y-98226190D01*
X144226190Y-97702380D02*
X144107142Y-98059523D01*
X144416666Y-98059523D01*
D10*
%TO.C,pull_down3*%
X123880952Y-96452380D02*
X123309523Y-96452380D01*
X123595238Y-96452380D02*
X123595238Y-95452380D01*
X123500000Y-95595238D01*
X123404761Y-95690476D01*
X123309523Y-95738095D01*
X124309523Y-96452380D02*
X124309523Y-95452380D01*
X124404761Y-96071428D02*
X124690476Y-96452380D01*
X124690476Y-95785714D02*
X124309523Y-96166666D01*
D11*
X122035714Y-97892857D02*
X122035714Y-98392857D01*
X122035714Y-97916666D02*
X122083333Y-97892857D01*
X122178571Y-97892857D01*
X122226190Y-97916666D01*
X122250000Y-97940476D01*
X122273809Y-97988095D01*
X122273809Y-98130952D01*
X122250000Y-98178571D01*
X122226190Y-98202380D01*
X122178571Y-98226190D01*
X122083333Y-98226190D01*
X122035714Y-98202380D01*
X122702380Y-97892857D02*
X122702380Y-98226190D01*
X122488095Y-97892857D02*
X122488095Y-98154761D01*
X122511904Y-98202380D01*
X122559523Y-98226190D01*
X122630952Y-98226190D01*
X122678571Y-98202380D01*
X122702380Y-98178571D01*
X123011904Y-98226190D02*
X122964285Y-98202380D01*
X122940476Y-98154761D01*
X122940476Y-97726190D01*
X123273809Y-98226190D02*
X123226190Y-98202380D01*
X123202380Y-98154761D01*
X123202380Y-97726190D01*
X123345238Y-98273809D02*
X123726190Y-98273809D01*
X124059523Y-98226190D02*
X124059523Y-97726190D01*
X124059523Y-98202380D02*
X124011904Y-98226190D01*
X123916666Y-98226190D01*
X123869047Y-98202380D01*
X123845238Y-98178571D01*
X123821428Y-98130952D01*
X123821428Y-97988095D01*
X123845238Y-97940476D01*
X123869047Y-97916666D01*
X123916666Y-97892857D01*
X124011904Y-97892857D01*
X124059523Y-97916666D01*
X124369047Y-98226190D02*
X124321428Y-98202380D01*
X124297619Y-98178571D01*
X124273809Y-98130952D01*
X124273809Y-97988095D01*
X124297619Y-97940476D01*
X124321428Y-97916666D01*
X124369047Y-97892857D01*
X124440476Y-97892857D01*
X124488095Y-97916666D01*
X124511904Y-97940476D01*
X124535714Y-97988095D01*
X124535714Y-98130952D01*
X124511904Y-98178571D01*
X124488095Y-98202380D01*
X124440476Y-98226190D01*
X124369047Y-98226190D01*
X124702380Y-97892857D02*
X124797619Y-98226190D01*
X124892857Y-97988095D01*
X124988095Y-98226190D01*
X125083333Y-97892857D01*
X125273809Y-97892857D02*
X125273809Y-98226190D01*
X125273809Y-97940476D02*
X125297619Y-97916666D01*
X125345238Y-97892857D01*
X125416666Y-97892857D01*
X125464285Y-97916666D01*
X125488095Y-97964285D01*
X125488095Y-98226190D01*
X125678571Y-97726190D02*
X125988095Y-97726190D01*
X125821428Y-97916666D01*
X125892857Y-97916666D01*
X125940476Y-97940476D01*
X125964285Y-97964285D01*
X125988095Y-98011904D01*
X125988095Y-98130952D01*
X125964285Y-98178571D01*
X125940476Y-98202380D01*
X125892857Y-98226190D01*
X125750000Y-98226190D01*
X125702380Y-98202380D01*
X125678571Y-98178571D01*
D10*
%TO.C,D7*%
X156357142Y-98452380D02*
X155880952Y-98452380D01*
X155880952Y-97452380D01*
X156690476Y-97928571D02*
X157023809Y-97928571D01*
X157166666Y-98452380D02*
X156690476Y-98452380D01*
X156690476Y-97452380D01*
X157166666Y-97452380D01*
X157595238Y-98452380D02*
X157595238Y-97452380D01*
X157833333Y-97452380D01*
X157976190Y-97500000D01*
X158071428Y-97595238D01*
X158119047Y-97690476D01*
X158166666Y-97880952D01*
X158166666Y-98023809D01*
X158119047Y-98214285D01*
X158071428Y-98309523D01*
X157976190Y-98404761D01*
X157833333Y-98452380D01*
X157595238Y-98452380D01*
D11*
X157226190Y-101394047D02*
X156726190Y-101394047D01*
X156726190Y-101275000D01*
X156750000Y-101203571D01*
X156797619Y-101155952D01*
X156845238Y-101132142D01*
X156940476Y-101108333D01*
X157011904Y-101108333D01*
X157107142Y-101132142D01*
X157154761Y-101155952D01*
X157202380Y-101203571D01*
X157226190Y-101275000D01*
X157226190Y-101394047D01*
X156726190Y-100941666D02*
X156726190Y-100608333D01*
X157226190Y-100822619D01*
D12*
%TO.C,D8*%
X158025000Y-125600000D02*
X158025000Y-124400000D01*
X156025000Y-124700000D02*
X156025000Y-125600000D01*
X156325000Y-124400000D02*
X156025000Y-124700000D01*
X158025000Y-124400000D02*
X156325000Y-124400000D01*
X156025000Y-125600000D02*
X158025000Y-125600000D01*
%TO.C,VDD_THT2*%
X113550000Y-94950000D02*
X113550000Y-93150000D01*
X115500000Y-94950000D02*
X113550000Y-94950000D01*
X115500000Y-93200000D02*
X115500000Y-94950000D01*
X115525000Y-93150000D02*
X113575000Y-93150000D01*
%TO.C,R7*%
X122375000Y-101000000D02*
X123625000Y-101000000D01*
X123625000Y-103000000D02*
X122375000Y-103000000D01*
X123625000Y-101000000D02*
X123625000Y-103000000D01*
X122375000Y-103000000D02*
X122375000Y-101000000D01*
D13*
%TO.C,U1*%
X144440000Y-111140000D02*
X144440000Y-114670000D01*
X136830000Y-115940000D02*
X136830000Y-114670000D01*
X137330000Y-114670000D02*
X137330000Y-111140000D01*
X137330000Y-114670000D02*
X137330000Y-109870000D01*
X137330000Y-110860000D02*
X137330000Y-109870000D01*
X136830000Y-106060000D02*
X137330000Y-106060000D01*
X144440000Y-115940000D02*
X137330000Y-115940000D01*
X136830000Y-114670000D02*
X136830000Y-111140000D01*
X136830000Y-114670000D02*
X136830000Y-109870000D01*
X144440000Y-106060000D02*
X144440000Y-109870000D01*
X144440000Y-109870000D02*
X144440000Y-114670000D01*
X137330000Y-106060000D02*
X144440000Y-106060000D01*
X137330000Y-109870000D02*
X137330000Y-106060000D01*
X144440000Y-109870000D02*
X144440000Y-110860000D01*
X136830000Y-110860000D02*
X136830000Y-106060000D01*
X137330000Y-115940000D02*
X137330000Y-114670000D01*
X144440000Y-114670000D02*
X144440000Y-115940000D01*
X137330000Y-115940000D02*
X136830000Y-115940000D01*
G36*
X136730000Y-109340000D02*
G01*
X135630000Y-109340000D01*
X135630000Y-108850000D01*
X136730000Y-108850000D01*
X136730000Y-109340000D01*
G37*
D14*
X136730000Y-109340000D02*
X135630000Y-109340000D01*
X135630000Y-108850000D01*
X136730000Y-108850000D01*
X136730000Y-109340000D01*
G36*
X145640000Y-109340000D02*
G01*
X144540000Y-109340000D01*
X144540000Y-108850000D01*
X145640000Y-108850000D01*
X145640000Y-109340000D01*
G37*
X145640000Y-109340000D02*
X144540000Y-109340000D01*
X144540000Y-108850000D01*
X145640000Y-108850000D01*
X145640000Y-109340000D01*
G36*
X145640000Y-110610000D02*
G01*
X144540000Y-110610000D01*
X144540000Y-110120000D01*
X145640000Y-110120000D01*
X145640000Y-110610000D01*
G37*
X145640000Y-110610000D02*
X144540000Y-110610000D01*
X144540000Y-110120000D01*
X145640000Y-110120000D01*
X145640000Y-110610000D01*
G36*
X136730000Y-106800000D02*
G01*
X135630000Y-106800000D01*
X135630000Y-106310000D01*
X136730000Y-106310000D01*
X136730000Y-106800000D01*
G37*
X136730000Y-106800000D02*
X135630000Y-106800000D01*
X135630000Y-106310000D01*
X136730000Y-106310000D01*
X136730000Y-106800000D01*
G36*
X145640000Y-113150000D02*
G01*
X144540000Y-113150000D01*
X144540000Y-112660000D01*
X145640000Y-112660000D01*
X145640000Y-113150000D01*
G37*
X145640000Y-113150000D02*
X144540000Y-113150000D01*
X144540000Y-112660000D01*
X145640000Y-112660000D01*
X145640000Y-113150000D01*
G36*
X136730000Y-111880000D02*
G01*
X135630000Y-111880000D01*
X135630000Y-111390000D01*
X136730000Y-111390000D01*
X136730000Y-111880000D01*
G37*
X136730000Y-111880000D02*
X135630000Y-111880000D01*
X135630000Y-111390000D01*
X136730000Y-111390000D01*
X136730000Y-111880000D01*
G36*
X145640000Y-111880000D02*
G01*
X144540000Y-111880000D01*
X144540000Y-111390000D01*
X145640000Y-111390000D01*
X145640000Y-111880000D01*
G37*
X145640000Y-111880000D02*
X144540000Y-111880000D01*
X144540000Y-111390000D01*
X145640000Y-111390000D01*
X145640000Y-111880000D01*
G36*
X136730000Y-115690000D02*
G01*
X135630000Y-115690000D01*
X135630000Y-115200000D01*
X136730000Y-115200000D01*
X136730000Y-115690000D01*
G37*
X136730000Y-115690000D02*
X135630000Y-115690000D01*
X135630000Y-115200000D01*
X136730000Y-115200000D01*
X136730000Y-115690000D01*
G36*
X145640000Y-106800000D02*
G01*
X144540000Y-106800000D01*
X144540000Y-106310000D01*
X145640000Y-106310000D01*
X145640000Y-106800000D01*
G37*
X145640000Y-106800000D02*
X144540000Y-106800000D01*
X144540000Y-106310000D01*
X145640000Y-106310000D01*
X145640000Y-106800000D01*
G36*
X136730000Y-114420000D02*
G01*
X135630000Y-114420000D01*
X135630000Y-113930000D01*
X136730000Y-113930000D01*
X136730000Y-114420000D01*
G37*
X136730000Y-114420000D02*
X135630000Y-114420000D01*
X135630000Y-113930000D01*
X136730000Y-113930000D01*
X136730000Y-114420000D01*
G36*
X145640000Y-108070000D02*
G01*
X144540000Y-108070000D01*
X144540000Y-107580000D01*
X145640000Y-107580000D01*
X145640000Y-108070000D01*
G37*
X145640000Y-108070000D02*
X144540000Y-108070000D01*
X144540000Y-107580000D01*
X145640000Y-107580000D01*
X145640000Y-108070000D01*
G36*
X145640000Y-115690000D02*
G01*
X144540000Y-115690000D01*
X144540000Y-115200000D01*
X145640000Y-115200000D01*
X145640000Y-115690000D01*
G37*
X145640000Y-115690000D02*
X144540000Y-115690000D01*
X144540000Y-115200000D01*
X145640000Y-115200000D01*
X145640000Y-115690000D01*
G36*
X145640000Y-114420000D02*
G01*
X144540000Y-114420000D01*
X144540000Y-113930000D01*
X145640000Y-113930000D01*
X145640000Y-114420000D01*
G37*
X145640000Y-114420000D02*
X144540000Y-114420000D01*
X144540000Y-113930000D01*
X145640000Y-113930000D01*
X145640000Y-114420000D01*
G36*
X136730000Y-110610000D02*
G01*
X135630000Y-110610000D01*
X135630000Y-110120000D01*
X136730000Y-110120000D01*
X136730000Y-110610000D01*
G37*
X136730000Y-110610000D02*
X135630000Y-110610000D01*
X135630000Y-110120000D01*
X136730000Y-110120000D01*
X136730000Y-110610000D01*
G36*
X136730000Y-108070000D02*
G01*
X135630000Y-108070000D01*
X135630000Y-107580000D01*
X136730000Y-107580000D01*
X136730000Y-108070000D01*
G37*
X136730000Y-108070000D02*
X135630000Y-108070000D01*
X135630000Y-107580000D01*
X136730000Y-107580000D01*
X136730000Y-108070000D01*
G36*
X136730000Y-113150000D02*
G01*
X135630000Y-113150000D01*
X135630000Y-112660000D01*
X136730000Y-112660000D01*
X136730000Y-113150000D01*
G37*
X136730000Y-113150000D02*
X135630000Y-113150000D01*
X135630000Y-112660000D01*
X136730000Y-112660000D01*
X136730000Y-113150000D01*
D12*
%TO.C,D6*%
X117400000Y-116000000D02*
X117400000Y-117700000D01*
X118600000Y-118000000D02*
X118600000Y-116000000D01*
X117400000Y-117700000D02*
X117700000Y-118000000D01*
X117700000Y-118000000D02*
X118600000Y-118000000D01*
X118600000Y-116000000D02*
X117400000Y-116000000D01*
%TO.C,GND_THT1*%
X163025000Y-93150000D02*
X161075000Y-93150000D01*
X161050000Y-94950000D02*
X161050000Y-93150000D01*
X163000000Y-94950000D02*
X161050000Y-94950000D01*
X163000000Y-93200000D02*
X163000000Y-94950000D01*
%TO.C,R1*%
X139625000Y-103000000D02*
X138375000Y-103000000D01*
X138375000Y-101000000D02*
X139625000Y-101000000D01*
X139625000Y-101000000D02*
X139625000Y-103000000D01*
X138375000Y-103000000D02*
X138375000Y-101000000D01*
%TO.C,D3*%
X156400000Y-116000000D02*
X156400000Y-117700000D01*
X157600000Y-118000000D02*
X157600000Y-116000000D01*
X156700000Y-118000000D02*
X157600000Y-118000000D01*
X156400000Y-117700000D02*
X156700000Y-118000000D01*
X157600000Y-116000000D02*
X156400000Y-116000000D01*
%TO.C,GND_THT2*%
X161050000Y-131950000D02*
X161050000Y-130150000D01*
X163000000Y-131950000D02*
X161050000Y-131950000D01*
X163025000Y-130150000D02*
X161075000Y-130150000D01*
X163000000Y-130200000D02*
X163000000Y-131950000D01*
%TO.C,R3*%
X131625000Y-101000000D02*
X131625000Y-103000000D01*
X131625000Y-103000000D02*
X130375000Y-103000000D01*
X130375000Y-103000000D02*
X130375000Y-101000000D01*
X130375000Y-101000000D02*
X131625000Y-101000000D01*
D15*
%TO.C,SW1*%
X152197100Y-127701800D02*
X152197100Y-124298200D01*
X147802900Y-124298200D02*
X147802900Y-127701800D01*
X147802900Y-127701800D02*
X152197100Y-127701800D01*
X152197100Y-124298200D02*
X147802900Y-124298200D01*
D12*
%TO.C,R5*%
X134375000Y-101000000D02*
X135625000Y-101000000D01*
X134375000Y-103000000D02*
X134375000Y-101000000D01*
X135625000Y-103000000D02*
X134375000Y-103000000D01*
X135625000Y-101000000D02*
X135625000Y-103000000D01*
%TO.C,pull_down1*%
X135000000Y-97375000D02*
X135000000Y-98625000D01*
X133000000Y-98625000D02*
X133000000Y-97375000D01*
X135000000Y-98625000D02*
X133000000Y-98625000D01*
X133000000Y-97375000D02*
X135000000Y-97375000D01*
%TO.C,D1*%
X118700000Y-125600000D02*
X119000000Y-125300000D01*
X119000000Y-125300000D02*
X119000000Y-124400000D01*
X117000000Y-124400000D02*
X117000000Y-125600000D01*
X117000000Y-125600000D02*
X118700000Y-125600000D01*
X119000000Y-124400000D02*
X117000000Y-124400000D01*
%TO.C,D5*%
X156025000Y-109600000D02*
X158025000Y-109600000D01*
X158025000Y-109600000D02*
X158025000Y-108400000D01*
X158025000Y-108400000D02*
X156325000Y-108400000D01*
X156025000Y-108700000D02*
X156025000Y-109600000D01*
X156325000Y-108400000D02*
X156025000Y-108700000D01*
%TO.C,R2*%
X143625000Y-103000000D02*
X142375000Y-103000000D01*
X142375000Y-103000000D02*
X142375000Y-101000000D01*
X142375000Y-101000000D02*
X143625000Y-101000000D01*
X143625000Y-101000000D02*
X143625000Y-103000000D01*
D16*
%TO.C,U2*%
X123444000Y-122428000D02*
X123444000Y-121412000D01*
X122682000Y-122428000D02*
X123444000Y-122428000D01*
X130556000Y-122428000D02*
X131292600Y-122428000D01*
X130556000Y-127508000D02*
X131318000Y-127482600D01*
X122682000Y-119888000D02*
X123444000Y-119888000D01*
X123444000Y-106172000D02*
X122682000Y-106172000D01*
X123444000Y-105156000D02*
X123444000Y-128524000D01*
X131292600Y-118872000D02*
X130556000Y-118872000D01*
X122682000Y-114808000D02*
X123444000Y-114808000D01*
X130556000Y-124968000D02*
X131318000Y-124942600D01*
X131292600Y-111252000D02*
X130556000Y-111252000D01*
X130556000Y-118872000D02*
X130556000Y-119888000D01*
X123444000Y-123952000D02*
X122682000Y-123952000D01*
X123444000Y-117348000D02*
X123444000Y-116332000D01*
X130556000Y-119888000D02*
X131292600Y-119888000D01*
X122707400Y-127508000D02*
X123444000Y-127508000D01*
X130556000Y-107188000D02*
X131292600Y-107188000D01*
X131318000Y-127482600D02*
X131318000Y-126492000D01*
X123444000Y-121412000D02*
X122682000Y-121412000D01*
X122682000Y-124968000D02*
X123444000Y-124968000D01*
X131292600Y-109728000D02*
X131292600Y-108712000D01*
X123444000Y-111252000D02*
X122682000Y-111252000D01*
X130556000Y-106172000D02*
X130556000Y-107188000D01*
X127304800Y-105156000D02*
X126695200Y-105156000D01*
X123444000Y-113792000D02*
X122682000Y-113792000D01*
X131292600Y-116332000D02*
X130556000Y-116332000D01*
X122682000Y-106172000D02*
X122682000Y-107188000D01*
X130556000Y-123952000D02*
X130556000Y-124968000D01*
X122682000Y-107188000D02*
X123444000Y-107188000D01*
X130556000Y-111252000D02*
X130556000Y-112268000D01*
X123444000Y-114808000D02*
X123444000Y-113792000D01*
X123444000Y-127508000D02*
X123444000Y-126492000D01*
X122682000Y-109728000D02*
X123444000Y-109728000D01*
X130556000Y-108712000D02*
X130556000Y-109728000D01*
X123444000Y-107188000D02*
X123444000Y-106172000D01*
X131292600Y-113792000D02*
X130556000Y-113792000D01*
X126695200Y-105156000D02*
X123444000Y-105156000D01*
X122682000Y-108712000D02*
X122682000Y-109728000D01*
X130556000Y-117348000D02*
X131292600Y-117348000D01*
X122682000Y-126517400D02*
X122707400Y-127508000D01*
X122682000Y-113792000D02*
X122682000Y-114808000D01*
X131292600Y-119888000D02*
X131292600Y-118872000D01*
X131318000Y-126492000D02*
X130556000Y-126492000D01*
X131292600Y-112268000D02*
X131292600Y-111252000D01*
X130556000Y-128524000D02*
X130556000Y-105156000D01*
X130556000Y-126492000D02*
X130556000Y-127508000D01*
X123444000Y-108712000D02*
X122682000Y-108712000D01*
X131292600Y-106172000D02*
X130556000Y-106172000D01*
X122682000Y-116332000D02*
X122682000Y-117348000D01*
X123444000Y-126492000D02*
X122682000Y-126517400D01*
X123444000Y-124968000D02*
X123444000Y-123952000D01*
X123444000Y-118872000D02*
X122682000Y-118872000D01*
X130556000Y-116332000D02*
X130556000Y-117348000D01*
X131292600Y-117348000D02*
X131292600Y-116332000D01*
X130556000Y-113792000D02*
X130556000Y-114808000D01*
X122682000Y-112268000D02*
X123444000Y-112268000D01*
X130556000Y-112268000D02*
X131292600Y-112268000D01*
X130556000Y-105156000D02*
X127304800Y-105156000D01*
X131292600Y-114808000D02*
X131292600Y-113792000D01*
X131292600Y-122428000D02*
X131292600Y-121412000D01*
X122682000Y-111252000D02*
X122682000Y-112268000D01*
X131292600Y-121412000D02*
X130556000Y-121412000D01*
X130556000Y-121412000D02*
X130556000Y-122428000D01*
X131292600Y-107188000D02*
X131292600Y-106172000D01*
X131292600Y-123952000D02*
X130556000Y-123952000D01*
X123444000Y-116332000D02*
X122682000Y-116332000D01*
X130556000Y-109728000D02*
X131292600Y-109728000D01*
X123444000Y-112268000D02*
X123444000Y-111252000D01*
X130556000Y-114808000D02*
X131292600Y-114808000D01*
X131292600Y-108712000D02*
X130556000Y-108712000D01*
X122682000Y-121412000D02*
X122682000Y-122428000D01*
X123444000Y-128524000D02*
X130556000Y-128524000D01*
X122682000Y-123952000D02*
X122682000Y-124968000D01*
X123444000Y-119888000D02*
X123444000Y-118872000D01*
X122682000Y-117348000D02*
X123444000Y-117348000D01*
X122682000Y-118872000D02*
X122682000Y-119888000D01*
X123444000Y-109728000D02*
X123444000Y-108712000D01*
X131318000Y-124942600D02*
X131292600Y-123952000D01*
D12*
X126695200Y-105156000D02*
G75*
G03*
X127304800Y-105156000I304800J0D01*
G01*
%TO.C,D4*%
X118600000Y-102000000D02*
X118600000Y-100000000D01*
X117400000Y-100000000D02*
X117400000Y-101700000D01*
X117700000Y-102000000D02*
X118600000Y-102000000D01*
X118600000Y-100000000D02*
X117400000Y-100000000D01*
X117400000Y-101700000D02*
X117700000Y-102000000D01*
%TO.C,D2*%
X117000000Y-108400000D02*
X117000000Y-109600000D01*
X119000000Y-108400000D02*
X117000000Y-108400000D01*
X119000000Y-109300000D02*
X119000000Y-108400000D01*
X117000000Y-109600000D02*
X118700000Y-109600000D01*
X118700000Y-109600000D02*
X119000000Y-109300000D01*
%TO.C,pull_down2*%
X128000000Y-98625000D02*
X128000000Y-97375000D01*
X128000000Y-97375000D02*
X130000000Y-97375000D01*
X130000000Y-98625000D02*
X128000000Y-98625000D01*
X130000000Y-97375000D02*
X130000000Y-98625000D01*
%TO.C,BZ1*%
X143500000Y-127500000D02*
X135500000Y-127500000D01*
X144500000Y-118500000D02*
X144500000Y-126500000D01*
X135500000Y-127500000D02*
X135500000Y-118500000D01*
X144500000Y-126500000D02*
X143500000Y-127500000D01*
X135500000Y-118500000D02*
X144500000Y-118500000D01*
%TO.C,pull_up1*%
X138000000Y-97375000D02*
X140000000Y-97375000D01*
X140000000Y-98625000D02*
X138000000Y-98625000D01*
X140000000Y-97375000D02*
X140000000Y-98625000D01*
X138000000Y-98625000D02*
X138000000Y-97375000D01*
%TO.C,R6*%
X126375000Y-101000000D02*
X127625000Y-101000000D01*
X126375000Y-103000000D02*
X126375000Y-101000000D01*
X127625000Y-103000000D02*
X126375000Y-103000000D01*
X127625000Y-101000000D02*
X127625000Y-103000000D01*
%TO.C,VDD_THT1*%
X113550000Y-131950000D02*
X113550000Y-130150000D01*
X115525000Y-130150000D02*
X113575000Y-130150000D01*
X115500000Y-131950000D02*
X113550000Y-131950000D01*
X115500000Y-130200000D02*
X115500000Y-131950000D01*
%TO.C,R4*%
X143000000Y-98625000D02*
X143000000Y-97375000D01*
X145000000Y-97375000D02*
X145000000Y-98625000D01*
X143000000Y-97375000D02*
X145000000Y-97375000D01*
X145000000Y-98625000D02*
X143000000Y-98625000D01*
%TO.C,pull_down3*%
X123000000Y-98625000D02*
X123000000Y-97375000D01*
X125000000Y-97375000D02*
X125000000Y-98625000D01*
X125000000Y-98625000D02*
X123000000Y-98625000D01*
X123000000Y-97375000D02*
X125000000Y-97375000D01*
%TO.C,D7*%
X156400000Y-100025000D02*
X156400000Y-101725000D01*
X156400000Y-101725000D02*
X156700000Y-102025000D01*
X157600000Y-102025000D02*
X157600000Y-100025000D01*
X156700000Y-102025000D02*
X157600000Y-102025000D01*
X157600000Y-100025000D02*
X156400000Y-100025000D01*
%TD*%
M02*
