%TF.GenerationSoftware,KiCad,Pcbnew,(6.0.9)*%
%TF.CreationDate,2023-11-13T18:20:47-08:00*%
%TF.ProjectId,music_card,6d757369-635f-4636-9172-642e6b696361,rev?*%
%TF.SameCoordinates,Original*%
%TF.FileFunction,Copper,L1,Top*%
%TF.FilePolarity,Positive*%
%FSLAX46Y46*%
G04 Gerber Fmt 4.6, Leading zero omitted, Abs format (unit mm)*
G04 Created by KiCad (PCBNEW (6.0.9)) date 2023-11-13 18:20:47*
%MOMM*%
%LPD*%
G01*
G04 APERTURE LIST*
G04 Aperture macros list*
%AMRoundRect*
0 Rectangle with rounded corners*
0 $1 Rounding radius*
0 $2 $3 $4 $5 $6 $7 $8 $9 X,Y pos of 4 corners*
0 Add a 4 corners polygon primitive as box body*
4,1,4,$2,$3,$4,$5,$6,$7,$8,$9,$2,$3,0*
0 Add four circle primitives for the rounded corners*
1,1,$1+$1,$2,$3*
1,1,$1+$1,$4,$5*
1,1,$1+$1,$6,$7*
1,1,$1+$1,$8,$9*
0 Add four rect primitives between the rounded corners*
20,1,$1+$1,$2,$3,$4,$5,0*
20,1,$1+$1,$4,$5,$6,$7,0*
20,1,$1+$1,$6,$7,$8,$9,0*
20,1,$1+$1,$8,$9,$2,$3,0*%
G04 Aperture macros list end*
%TA.AperFunction,SMDPad,CuDef*%
%ADD10RoundRect,0.250000X-0.325000X-0.450000X0.325000X-0.450000X0.325000X0.450000X-0.325000X0.450000X0*%
%TD*%
%TA.AperFunction,ComponentPad*%
%ADD11R,1.524000X1.524000*%
%TD*%
%TA.AperFunction,SMDPad,CuDef*%
%ADD12RoundRect,0.250000X-0.450000X0.350000X-0.450000X-0.350000X0.450000X-0.350000X0.450000X0.350000X0*%
%TD*%
%TA.AperFunction,SMDPad,CuDef*%
%ADD13R,2.200000X0.600000*%
%TD*%
%TA.AperFunction,SMDPad,CuDef*%
%ADD14RoundRect,0.250000X0.450000X-0.325000X0.450000X0.325000X-0.450000X0.325000X-0.450000X-0.325000X0*%
%TD*%
%TA.AperFunction,ComponentPad*%
%ADD15C,1.524000*%
%TD*%
%TA.AperFunction,SMDPad,CuDef*%
%ADD16RoundRect,0.250000X0.450000X-0.350000X0.450000X0.350000X-0.450000X0.350000X-0.450000X-0.350000X0*%
%TD*%
%TA.AperFunction,SMDPad,CuDef*%
%ADD17R,0.990600X0.711200*%
%TD*%
%TA.AperFunction,SMDPad,CuDef*%
%ADD18RoundRect,0.250000X0.350000X0.450000X-0.350000X0.450000X-0.350000X-0.450000X0.350000X-0.450000X0*%
%TD*%
%TA.AperFunction,SMDPad,CuDef*%
%ADD19RoundRect,0.250000X0.325000X0.450000X-0.325000X0.450000X-0.325000X-0.450000X0.325000X-0.450000X0*%
%TD*%
%TA.AperFunction,ComponentPad*%
%ADD20R,1.498600X1.498600*%
%TD*%
%TA.AperFunction,ComponentPad*%
%ADD21C,1.498600*%
%TD*%
%TA.AperFunction,SMDPad,CuDef*%
%ADD22R,1.300000X3.400000*%
%TD*%
%TA.AperFunction,SMDPad,CuDef*%
%ADD23RoundRect,0.250000X-0.350000X-0.450000X0.350000X-0.450000X0.350000X0.450000X-0.350000X0.450000X0*%
%TD*%
%TA.AperFunction,ViaPad*%
%ADD24C,0.800000*%
%TD*%
%TA.AperFunction,Conductor*%
%ADD25C,0.250000*%
%TD*%
G04 APERTURE END LIST*
D10*
%TO.P,D8,1,K*%
%TO.N,Net-(D4-Pad1)*%
X156000000Y-125000000D03*
%TO.P,D8,2,A*%
%TO.N,Net-(D4-Pad2)*%
X158050000Y-125000000D03*
%TD*%
D11*
%TO.P,VDD_THT2,1,THT*%
%TO.N,+5V*%
X114500000Y-94100000D03*
%TD*%
D12*
%TO.P,R7,1*%
%TO.N,Net-(R7-Pad1)*%
X123000000Y-101000000D03*
%TO.P,R7,2*%
%TO.N,Net-(R7-Pad2)*%
X123000000Y-103000000D03*
%TD*%
D13*
%TO.P,U1,1,C1-1*%
%TO.N,Net-(BZ1-Pad2)*%
X136130000Y-106555000D03*
%TO.P,U1,2,C1-2*%
%TO.N,unconnected-(U1-Pad2)*%
X136130000Y-107825000D03*
%TO.P,U1,3,C2-1*%
%TO.N,Net-(D1-Pad1)*%
X136130000Y-109095000D03*
%TO.P,U1,4,C2-2*%
%TO.N,unconnected-(U1-Pad4)*%
X136130000Y-110365000D03*
%TO.P,U1,5,C3-1*%
%TO.N,Net-(D1-Pad2)*%
X136130000Y-111635000D03*
%TO.P,U1,6,C3-2*%
%TO.N,unconnected-(U1-Pad6)*%
X136130000Y-112905000D03*
%TO.P,U1,7,C4-1*%
%TO.N,Net-(D4-Pad1)*%
X136130000Y-114175000D03*
%TO.P,U1,8,C4-2*%
%TO.N,unconnected-(U1-Pad8)*%
X136130000Y-115445000D03*
%TO.P,U1,9,B4*%
%TO.N,Net-(R7-Pad2)*%
X145140000Y-115445000D03*
%TO.P,U1,10,E4*%
%TO.N,Net-(D1-Pad1)*%
X145140000Y-114175000D03*
%TO.P,U1,11,B3*%
%TO.N,Net-(R7-Pad2)*%
X145140000Y-112905000D03*
%TO.P,U1,12,E3*%
%TO.N,Net-(D1-Pad1)*%
X145140000Y-111635000D03*
%TO.P,U1,13,B2*%
%TO.N,Net-(R6-Pad2)*%
X145140000Y-110365000D03*
%TO.P,U1,14,E2*%
%TO.N,GND*%
X145140000Y-109095000D03*
%TO.P,U1,15,B1*%
%TO.N,Net-(R1-Pad1)*%
X145140000Y-107825000D03*
%TO.P,U1,16,E1*%
%TO.N,GND*%
X145140000Y-106555000D03*
%TD*%
D14*
%TO.P,D6,1,K*%
%TO.N,Net-(D4-Pad1)*%
X118000000Y-118025000D03*
%TO.P,D6,2,A*%
%TO.N,Net-(D4-Pad2)*%
X118000000Y-115975000D03*
%TD*%
D15*
%TO.P,GND_THT1,1,THT*%
%TO.N,GND*%
X162000000Y-94100000D03*
%TD*%
D16*
%TO.P,R1,1*%
%TO.N,Net-(R1-Pad1)*%
X139000000Y-103000000D03*
%TO.P,R1,2*%
%TO.N,Net-(R1-Pad2)*%
X139000000Y-101000000D03*
%TD*%
D14*
%TO.P,D3,1,K*%
%TO.N,Net-(D1-Pad1)*%
X157000000Y-118025000D03*
%TO.P,D3,2,A*%
%TO.N,Net-(D1-Pad2)*%
X157000000Y-115975000D03*
%TD*%
D11*
%TO.P,GND_THT2,1,THT*%
%TO.N,GND*%
X162000000Y-131000000D03*
%TD*%
D16*
%TO.P,R3,1*%
%TO.N,+5V*%
X131000000Y-103000000D03*
%TO.P,R3,2*%
%TO.N,Net-(D1-Pad2)*%
X131000000Y-101000000D03*
%TD*%
D17*
%TO.P,SW1,1,1*%
%TO.N,Net-(SW1-Pad1)*%
X147749999Y-124925001D03*
%TO.P,SW1,2,2*%
%TO.N,Net-(SW1-Pad2)*%
X152250001Y-124925001D03*
%TO.P,SW1,3,3*%
%TO.N,unconnected-(SW1-Pad3)*%
X147749999Y-127074999D03*
%TO.P,SW1,4,4*%
%TO.N,GND*%
X152250001Y-127074999D03*
%TD*%
D16*
%TO.P,R5,1*%
%TO.N,+5V*%
X135000000Y-103000000D03*
%TO.P,R5,2*%
%TO.N,Net-(BZ1-Pad1)*%
X135000000Y-101000000D03*
%TD*%
D18*
%TO.P,pull_down1,1*%
%TO.N,Net-(R1-Pad2)*%
X135000000Y-98000000D03*
%TO.P,pull_down1,2*%
%TO.N,GND*%
X133000000Y-98000000D03*
%TD*%
D19*
%TO.P,D1,1,K*%
%TO.N,Net-(D1-Pad1)*%
X119025000Y-125000000D03*
%TO.P,D1,2,A*%
%TO.N,Net-(D1-Pad2)*%
X116975000Y-125000000D03*
%TD*%
D10*
%TO.P,D5,1,K*%
%TO.N,Net-(D4-Pad1)*%
X156000000Y-109000000D03*
%TO.P,D5,2,A*%
%TO.N,Net-(D4-Pad2)*%
X158050000Y-109000000D03*
%TD*%
D12*
%TO.P,R2,1*%
%TO.N,+5V*%
X143000000Y-101000000D03*
%TO.P,R2,2*%
%TO.N,Net-(D4-Pad2)*%
X143000000Y-103000000D03*
%TD*%
D20*
%TO.P,U2,1,Vref/AN2/RA2*%
%TO.N,Net-(R7-Pad1)*%
X123190000Y-106680000D03*
D21*
%TO.P,U2,2,CMP1/AN3/RA3*%
%TO.N,Net-(R6-Pad1)*%
X123190000Y-109220000D03*
%TO.P,U2,3,TOCKI/CMP2/RA4*%
%TO.N,unconnected-(U2-Pad3)*%
X123190000Y-111760000D03*
%TO.P,U2,4,~{MCLR}/Vpp/RA5*%
%TO.N,+5V*%
X123190000Y-114300000D03*
%TO.P,U2,5,VSS*%
%TO.N,GND*%
X123190000Y-116840000D03*
%TO.P,U2,6,RB0/INT*%
%TO.N,unconnected-(U2-Pad6)*%
X123190000Y-119380000D03*
%TO.P,U2,7,RB1/RX/DT*%
%TO.N,unconnected-(U2-Pad7)*%
X123190000Y-121920000D03*
%TO.P,U2,8,RB2/TX/CK*%
%TO.N,unconnected-(U2-Pad8)*%
X123190000Y-124460000D03*
%TO.P,U2,9,RB3/CCP1*%
%TO.N,Net-(R1-Pad2)*%
X123190000Y-127000000D03*
%TO.P,U2,10,RB4/PGM*%
%TO.N,unconnected-(U2-Pad10)*%
X130810000Y-127000000D03*
%TO.P,U2,11,RB5*%
%TO.N,unconnected-(U2-Pad11)*%
X130810000Y-124460000D03*
%TO.P,U2,12,RB6/T1OSC0/T1CKI/PGC*%
%TO.N,unconnected-(U2-Pad12)*%
X130810000Y-121920000D03*
%TO.P,U2,13,RB7/T1OSI/PGD*%
%TO.N,unconnected-(U2-Pad13)*%
X130810000Y-119380000D03*
%TO.P,U2,14,VDD*%
%TO.N,+5V*%
X130810000Y-116840000D03*
%TO.P,U2,15,CLKOUT/OSC2/RA6*%
%TO.N,unconnected-(U2-Pad15)*%
X130810000Y-114300000D03*
%TO.P,U2,16,CLKIN/OSC1/RA7*%
%TO.N,unconnected-(U2-Pad16)*%
X130810000Y-111760000D03*
%TO.P,U2,17,AN0/RA0*%
%TO.N,Net-(SW1-Pad1)*%
X130810000Y-109220000D03*
%TO.P,U2,18,AN1/RA1*%
%TO.N,unconnected-(U2-Pad18)*%
X130810000Y-106680000D03*
%TD*%
D14*
%TO.P,D4,1,K*%
%TO.N,Net-(D4-Pad1)*%
X118000000Y-102025000D03*
%TO.P,D4,2,A*%
%TO.N,Net-(D4-Pad2)*%
X118000000Y-99975000D03*
%TD*%
D19*
%TO.P,D2,1,K*%
%TO.N,Net-(D1-Pad1)*%
X119025000Y-109000000D03*
%TO.P,D2,2,A*%
%TO.N,Net-(D1-Pad2)*%
X116975000Y-109000000D03*
%TD*%
D18*
%TO.P,pull_down2,1*%
%TO.N,Net-(R6-Pad1)*%
X130000000Y-98000000D03*
%TO.P,pull_down2,2*%
%TO.N,GND*%
X128000000Y-98000000D03*
%TD*%
D22*
%TO.P,BZ1,1,-*%
%TO.N,Net-(BZ1-Pad1)*%
X144350000Y-123000000D03*
%TO.P,BZ1,2,+*%
%TO.N,Net-(BZ1-Pad2)*%
X135650000Y-123000000D03*
%TD*%
D23*
%TO.P,pull_up1,1*%
%TO.N,+5V*%
X138000000Y-98000000D03*
%TO.P,pull_up1,2*%
%TO.N,Net-(SW1-Pad2)*%
X140000000Y-98000000D03*
%TD*%
D12*
%TO.P,R6,1*%
%TO.N,Net-(R6-Pad1)*%
X127000000Y-101000000D03*
%TO.P,R6,2*%
%TO.N,Net-(R6-Pad2)*%
X127000000Y-103000000D03*
%TD*%
D15*
%TO.P,VDD_THT1,1,THT*%
%TO.N,+5V*%
X114500000Y-131000000D03*
%TD*%
D23*
%TO.P,R4,1*%
%TO.N,Net-(BZ1-Pad2)*%
X143000000Y-98000000D03*
%TO.P,R4,2*%
%TO.N,+5V*%
X145000000Y-98000000D03*
%TD*%
%TO.P,pull_down3,1*%
%TO.N,Net-(R7-Pad1)*%
X123000000Y-98000000D03*
%TO.P,pull_down3,2*%
%TO.N,GND*%
X125000000Y-98000000D03*
%TD*%
D14*
%TO.P,D7,1,K*%
%TO.N,Net-(D1-Pad1)*%
X157000000Y-102050000D03*
%TO.P,D7,2,A*%
%TO.N,Net-(D1-Pad2)*%
X157000000Y-100000000D03*
%TD*%
D24*
%TO.N,Net-(BZ1-Pad1)*%
X140000000Y-111000000D03*
X139487701Y-104512299D03*
X133000000Y-101000000D03*
X141487701Y-106512299D03*
%TO.N,Net-(BZ1-Pad2)*%
X139000000Y-107000000D03*
X142000000Y-97000000D03*
%TO.N,Net-(D1-Pad1)*%
X138000000Y-109000000D03*
X140500000Y-109000000D03*
X150000000Y-121000000D03*
X157000000Y-121000000D03*
%TO.N,Net-(D1-Pad2)*%
X157000000Y-115000000D03*
X158000000Y-100000000D03*
X138000000Y-113000000D03*
%TO.N,Net-(D4-Pad1)*%
X119000000Y-120000000D03*
X119000000Y-103000000D03*
X134000000Y-114000000D03*
X134000000Y-114000000D03*
X154000000Y-123000000D03*
%TO.N,Net-(D4-Pad2)*%
X117000000Y-100000000D03*
X118000000Y-115000000D03*
X145000000Y-103000000D03*
X158000000Y-107000000D03*
%TO.N,Net-(R1-Pad2)*%
X141000000Y-100000000D03*
X129000000Y-108000000D03*
X136000000Y-98000000D03*
X133000000Y-108000000D03*
%TO.N,Net-(R6-Pad1)*%
X125000000Y-100000000D03*
X121000000Y-109000000D03*
%TO.N,Net-(R7-Pad1)*%
X121000000Y-101000000D03*
X121000000Y-107000000D03*
%TO.N,Net-(SW1-Pad2)*%
X156000000Y-105000000D03*
X149000000Y-98000000D03*
%TO.N,Net-(R6-Pad2)*%
X134000000Y-99500000D03*
X134000000Y-99500000D03*
X155012299Y-102987701D03*
X155012299Y-102987701D03*
%TO.N,Net-(R7-Pad2)*%
X142000000Y-115000000D03*
X126000000Y-104881200D03*
%TO.N,Net-(SW1-Pad1)*%
X150000000Y-125500000D03*
X141500000Y-126500000D03*
%TO.N,GND*%
X139000000Y-125000000D03*
X160000000Y-95000000D03*
X132000000Y-97000000D03*
X126000000Y-97000000D03*
X144000000Y-127224500D03*
X124775500Y-118000000D03*
%TO.N,+5V*%
X122000000Y-104500000D03*
X121000000Y-114000000D03*
X139000000Y-99000000D03*
X147000000Y-98000000D03*
X130000000Y-104000000D03*
%TD*%
D25*
%TO.N,*%
X134000000Y-98000000D02*
X133925000Y-98000000D01*
%TO.N,Net-(BZ1-Pad1)*%
X141475402Y-106500000D02*
X141500000Y-106500000D01*
X135000000Y-101000000D02*
X133000000Y-101000000D01*
X139487701Y-104512299D02*
X141475402Y-106500000D01*
X144350000Y-123000000D02*
X140000000Y-118650000D01*
X140000000Y-118650000D02*
X140000000Y-111000000D01*
X141500000Y-106500000D02*
X141487701Y-106512299D01*
%TO.N,Net-(BZ1-Pad2)*%
X139000000Y-119650000D02*
X139000000Y-107000000D01*
X135650000Y-123000000D02*
X139000000Y-119650000D01*
X139000000Y-107000000D02*
X138555000Y-106555000D01*
X138555000Y-106555000D02*
X136130000Y-106555000D01*
X143000000Y-98000000D02*
X142000000Y-97000000D01*
%TO.N,Net-(D1-Pad1)*%
X122000000Y-129000000D02*
X144000000Y-129000000D01*
X146000000Y-122000000D02*
X147000000Y-121000000D01*
X120000000Y-109975000D02*
X120000000Y-124025000D01*
X146825000Y-114175000D02*
X145140000Y-114175000D01*
X147000000Y-114000000D02*
X147000000Y-121000000D01*
X119025000Y-109000000D02*
X120000000Y-109975000D01*
X146000000Y-127000000D02*
X146000000Y-122000000D01*
X138000000Y-109000000D02*
X136225000Y-109000000D01*
X119025000Y-126025000D02*
X122000000Y-129000000D01*
X147000000Y-114000000D02*
X146825000Y-114175000D01*
X147000000Y-121000000D02*
X150000000Y-121000000D01*
X144000000Y-129000000D02*
X146000000Y-127000000D01*
X147415000Y-111635000D02*
X147415000Y-113585000D01*
X120000000Y-124025000D02*
X119025000Y-125000000D01*
X142135000Y-111635000D02*
X140500000Y-110000000D01*
X136225000Y-109000000D02*
X136130000Y-109095000D01*
X119025000Y-125000000D02*
X119025000Y-126025000D01*
X157000000Y-102050000D02*
X147415000Y-111635000D01*
X147415000Y-111635000D02*
X145140000Y-111635000D01*
X145140000Y-111635000D02*
X142135000Y-111635000D01*
X140500000Y-110000000D02*
X140500000Y-109000000D01*
X147415000Y-113585000D02*
X147000000Y-114000000D01*
X157000000Y-121000000D02*
X157000000Y-118025000D01*
%TO.N,Net-(D1-Pad2)*%
X136930000Y-111635000D02*
X138000000Y-112705000D01*
X134985000Y-112000000D02*
X135350000Y-111635000D01*
X157000000Y-115000000D02*
X157000000Y-115975000D01*
X120369300Y-105605700D02*
X116975000Y-109000000D01*
X116000000Y-109975000D02*
X116000000Y-124025000D01*
X157000000Y-100000000D02*
X158000000Y-100000000D01*
X136130000Y-111635000D02*
X136930000Y-111635000D01*
X131000000Y-101000000D02*
X127000000Y-105000000D01*
X138000000Y-112705000D02*
X138000000Y-113000000D01*
X127000000Y-105000000D02*
X126394300Y-105605700D01*
X132000000Y-112000000D02*
X134985000Y-112000000D01*
X132000000Y-106350710D02*
X132000000Y-112000000D01*
X116975000Y-109000000D02*
X116000000Y-109975000D01*
X135350000Y-111635000D02*
X136130000Y-111635000D01*
X130649290Y-105000000D02*
X132000000Y-106350710D01*
X126394300Y-105605700D02*
X120369300Y-105605700D01*
X116000000Y-124025000D02*
X116975000Y-125000000D01*
X127000000Y-105000000D02*
X130649290Y-105000000D01*
%TO.N,Net-(D4-Pad1)*%
X118000000Y-102025000D02*
X118025000Y-102025000D01*
X156000000Y-125000000D02*
X155000000Y-124000000D01*
X119000000Y-120000000D02*
X119000000Y-119025000D01*
X118025000Y-102025000D02*
X119000000Y-103000000D01*
X134000000Y-114000000D02*
X135955000Y-114000000D01*
X119000000Y-119025000D02*
X118000000Y-118025000D01*
X155000000Y-124000000D02*
X155000000Y-110000000D01*
X155000000Y-110000000D02*
X156000000Y-109000000D01*
X135955000Y-114000000D02*
X136130000Y-114175000D01*
X156000000Y-125000000D02*
X154000000Y-123000000D01*
%TO.N,Net-(D4-Pad2)*%
X118000000Y-115000000D02*
X118000000Y-115975000D01*
X118000000Y-99975000D02*
X117025000Y-99975000D01*
X159000000Y-124050000D02*
X158050000Y-125000000D01*
X159000000Y-109950000D02*
X159000000Y-124050000D01*
X158050000Y-109000000D02*
X159000000Y-109950000D01*
X143000000Y-103000000D02*
X145000000Y-103000000D01*
X151500000Y-98000000D02*
X146500000Y-103000000D01*
X158000000Y-108950000D02*
X158050000Y-109000000D01*
X118000000Y-99975000D02*
X122475000Y-95500000D01*
X146500000Y-103000000D02*
X145000000Y-103000000D01*
X149000000Y-95500000D02*
X151500000Y-98000000D01*
X122475000Y-95500000D02*
X149000000Y-95500000D01*
X158000000Y-107000000D02*
X158000000Y-108950000D01*
X117025000Y-99975000D02*
X117000000Y-100000000D01*
%TO.N,Net-(R1-Pad2)*%
X141000000Y-100000000D02*
X140000000Y-100000000D01*
X140000000Y-100000000D02*
X139000000Y-101000000D01*
X133000000Y-108000000D02*
X133000000Y-107635000D01*
X123190000Y-127000000D02*
X125500000Y-124690000D01*
X135000000Y-98000000D02*
X136000000Y-98000000D01*
X125500000Y-111500000D02*
X129000000Y-108000000D01*
X125500000Y-124690000D02*
X125500000Y-111500000D01*
X138000000Y-101000000D02*
X139000000Y-101000000D01*
X133000000Y-107635000D02*
X137000000Y-103635000D01*
X137000000Y-102000000D02*
X138000000Y-101000000D01*
X137000000Y-103635000D02*
X137000000Y-102000000D01*
%TO.N,Net-(R6-Pad1)*%
X126000000Y-100000000D02*
X127000000Y-101000000D01*
X121220000Y-109220000D02*
X121000000Y-109000000D01*
X125000000Y-100000000D02*
X126000000Y-100000000D01*
X123190000Y-109220000D02*
X121220000Y-109220000D01*
X130000000Y-98000000D02*
X127000000Y-101000000D01*
%TO.N,Net-(R7-Pad1)*%
X121000000Y-107000000D02*
X122870000Y-107000000D01*
X122870000Y-107000000D02*
X123190000Y-106680000D01*
X123000000Y-98000000D02*
X123000000Y-101000000D01*
X123000000Y-101000000D02*
X121000000Y-101000000D01*
%TO.N,Net-(SW1-Pad2)*%
X152250001Y-108749999D02*
X156000000Y-105000000D01*
X152250001Y-124925001D02*
X152250001Y-108749999D01*
X141225000Y-96275000D02*
X140000000Y-97500000D01*
X147275000Y-96275000D02*
X141225000Y-96275000D01*
X140000000Y-97500000D02*
X140000000Y-98000000D01*
X149000000Y-98000000D02*
X147275000Y-96275000D01*
%TO.N,Net-(R1-Pad1)*%
X143825000Y-107825000D02*
X145140000Y-107825000D01*
X139000000Y-103000000D02*
X143825000Y-107825000D01*
%TO.N,Net-(R6-Pad2)*%
X155012299Y-102987701D02*
X147635000Y-110365000D01*
X127000000Y-103000000D02*
X130500000Y-99500000D01*
X147635000Y-110365000D02*
X145140000Y-110365000D01*
X130500000Y-99500000D02*
X134000000Y-99500000D01*
%TO.N,Net-(R7-Pad2)*%
X126000000Y-105000000D02*
X126000000Y-104881200D01*
X123000000Y-103000000D02*
X125000000Y-105000000D01*
X142445000Y-115445000D02*
X145140000Y-115445000D01*
X142000000Y-115000000D02*
X144095000Y-112905000D01*
X142000000Y-115000000D02*
X142445000Y-115445000D01*
X125000000Y-105000000D02*
X126000000Y-105000000D01*
X144095000Y-112905000D02*
X145140000Y-112905000D01*
%TO.N,Net-(SW1-Pad1)*%
X133000000Y-117500000D02*
X133000000Y-126000000D01*
X131000000Y-115500000D02*
X133000000Y-117500000D01*
X130810000Y-109220000D02*
X128000000Y-112030000D01*
X133000000Y-126000000D02*
X133500000Y-126500000D01*
X128000000Y-112030000D02*
X128000000Y-113009290D01*
X148324998Y-125500000D02*
X147749999Y-124925001D01*
X150000000Y-125500000D02*
X148324998Y-125500000D01*
X128000000Y-113009290D02*
X130490710Y-115500000D01*
X130490710Y-115500000D02*
X131000000Y-115500000D01*
X133500000Y-126500000D02*
X141500000Y-126500000D01*
%TO.N,GND*%
X142000000Y-125000000D02*
X144000000Y-127000000D01*
X126000000Y-97000000D02*
X125000000Y-98000000D01*
X147500000Y-108000000D02*
X146405000Y-109095000D01*
X160000000Y-129000000D02*
X161000000Y-130000000D01*
X139000000Y-125000000D02*
X142000000Y-125000000D01*
X123190000Y-116840000D02*
X123615500Y-116840000D01*
X146555000Y-106555000D02*
X147500000Y-107500000D01*
X152250001Y-127074999D02*
X160000000Y-127074999D01*
X160000000Y-127074999D02*
X160000000Y-95000000D01*
X147500000Y-107500000D02*
X160000000Y-95000000D01*
X133000000Y-98000000D02*
X130925000Y-98000000D01*
X147500000Y-107500000D02*
X147500000Y-108000000D01*
X160500000Y-94500000D02*
X161500000Y-94500000D01*
X145140000Y-106555000D02*
X146555000Y-106555000D01*
X125000000Y-98000000D02*
X128000000Y-98000000D01*
X133000000Y-98000000D02*
X132000000Y-97000000D01*
X160000000Y-95000000D02*
X160500000Y-94500000D01*
X160000000Y-127074999D02*
X160000000Y-129000000D01*
X146405000Y-109095000D02*
X145140000Y-109095000D01*
X144000000Y-127000000D02*
X144000000Y-127224500D01*
X123615500Y-116840000D02*
X124775500Y-118000000D01*
%TO.N,+5V*%
X135000000Y-103000000D02*
X131000000Y-103000000D01*
X122000000Y-104500000D02*
X116500000Y-104500000D01*
X114500000Y-131000000D02*
X114500000Y-106500000D01*
X138000000Y-100000000D02*
X135000000Y-103000000D01*
X115100000Y-94100000D02*
X114500000Y-94100000D01*
X116000000Y-104000000D02*
X116000000Y-95000000D01*
X143000000Y-101000000D02*
X145000000Y-99000000D01*
X114500000Y-106500000D02*
X116500000Y-104500000D01*
X138000000Y-98000000D02*
X138000000Y-100000000D01*
X145000000Y-99000000D02*
X145000000Y-98000000D01*
X139000000Y-99000000D02*
X138000000Y-98000000D01*
X146000000Y-98000000D02*
X147000000Y-98000000D01*
X145000000Y-98000000D02*
X146000000Y-98000000D01*
X116500000Y-104500000D02*
X116000000Y-104000000D01*
X116000000Y-95000000D02*
X115100000Y-94100000D01*
X131000000Y-103000000D02*
X130000000Y-104000000D01*
%TD*%
M02*
