M48
; DRILL file {KiCad (6.0.9)} date Mon Nov 13 18:21:25 2023
; FORMAT={-:-/ absolute / inch / decimal}
; #@! TF.CreationDate,2023-11-13T18:21:25-08:00
; #@! TF.GenerationSoftware,Kicad,Pcbnew,(6.0.9)
; #@! TF.FileFunction,MixedPlating,1,2
FMAT,2
INCH
; #@! TA.AperFunction,Plated,PTH,ViaDrill
T1C0.0157
; #@! TA.AperFunction,Plated,PTH,ComponentDrill
T2C0.0300
; #@! TA.AperFunction,Plated,PTH,ComponentDrill
T3C0.0390
%
G90
G05
T1
X4.6063Y-3.937
X4.6457Y-4.5276
X4.685Y-4.0551
X4.685Y-4.7244
X4.7638Y-3.9764
X4.7638Y-4.2126
X4.7638Y-4.2913
X4.7638Y-4.4882
X4.8031Y-4.1142
X4.9124Y-4.6457
X4.9213Y-3.937
X4.9606Y-3.8189
X4.9606Y-4.1292
X5.0787Y-4.252
X5.1181Y-4.0945
X5.1969Y-3.8189
X5.2362Y-3.9764
X5.2362Y-4.252
X5.2756Y-3.9173
X5.2756Y-3.9173
X5.2756Y-4.4882
X5.2756Y-4.4882
X5.3543Y-3.8583
X5.4331Y-4.2913
X5.4331Y-4.4488
X5.4724Y-3.8976
X5.4724Y-4.2126
X5.4724Y-4.9213
X5.4916Y-4.1147
X5.5118Y-4.3701
X5.5315Y-4.2913
X5.5512Y-3.937
X5.5704Y-4.1934
X5.5709Y-4.9803
X5.5906Y-3.8189
X5.5906Y-4.5276
X5.6693Y-5.0088
X5.7087Y-4.0551
X5.7874Y-3.8583
X5.8661Y-3.8583
X5.9055Y-4.7638
X5.9055Y-4.9409
X6.063Y-4.8425
X6.1028Y-4.0546
X6.1028Y-4.0546
X6.1417Y-4.1339
X6.1811Y-4.5276
X6.1811Y-4.7638
X6.2205Y-3.937
X6.2205Y-4.2126
X6.2992Y-3.7402
T2
X4.5079Y-3.7047
X4.5079Y-5.1575
X6.378Y-3.7047
X6.378Y-5.1575
T3
X4.85Y-4.2
X4.85Y-4.3
X4.85Y-4.4
X4.85Y-4.5
X4.85Y-4.6
X4.85Y-4.7
X4.85Y-4.8
X4.85Y-4.9
X4.85Y-5.0
X5.15Y-4.2
X5.15Y-4.3
X5.15Y-4.4
X5.15Y-4.5
X5.15Y-4.6
X5.15Y-4.7
X5.15Y-4.8
X5.15Y-4.9
X5.15Y-5.0
T0
M30
