%TF.GenerationSoftware,KiCad,Pcbnew,(6.0.9)*%
%TF.CreationDate,2023-11-13T18:20:47-08:00*%
%TF.ProjectId,music_card,6d757369-635f-4636-9172-642e6b696361,rev?*%
%TF.SameCoordinates,Original*%
%TF.FileFunction,Paste,Top*%
%TF.FilePolarity,Positive*%
%FSLAX46Y46*%
G04 Gerber Fmt 4.6, Leading zero omitted, Abs format (unit mm)*
G04 Created by KiCad (PCBNEW (6.0.9)) date 2023-11-13 18:20:47*
%MOMM*%
%LPD*%
G01*
G04 APERTURE LIST*
G04 Aperture macros list*
%AMRoundRect*
0 Rectangle with rounded corners*
0 $1 Rounding radius*
0 $2 $3 $4 $5 $6 $7 $8 $9 X,Y pos of 4 corners*
0 Add a 4 corners polygon primitive as box body*
4,1,4,$2,$3,$4,$5,$6,$7,$8,$9,$2,$3,0*
0 Add four circle primitives for the rounded corners*
1,1,$1+$1,$2,$3*
1,1,$1+$1,$4,$5*
1,1,$1+$1,$6,$7*
1,1,$1+$1,$8,$9*
0 Add four rect primitives between the rounded corners*
20,1,$1+$1,$2,$3,$4,$5,0*
20,1,$1+$1,$4,$5,$6,$7,0*
20,1,$1+$1,$6,$7,$8,$9,0*
20,1,$1+$1,$8,$9,$2,$3,0*%
G04 Aperture macros list end*
%ADD10RoundRect,0.250000X-0.325000X-0.450000X0.325000X-0.450000X0.325000X0.450000X-0.325000X0.450000X0*%
%ADD11RoundRect,0.250000X-0.450000X0.350000X-0.450000X-0.350000X0.450000X-0.350000X0.450000X0.350000X0*%
%ADD12R,2.200000X0.600000*%
%ADD13RoundRect,0.250000X0.450000X-0.325000X0.450000X0.325000X-0.450000X0.325000X-0.450000X-0.325000X0*%
%ADD14RoundRect,0.250000X0.450000X-0.350000X0.450000X0.350000X-0.450000X0.350000X-0.450000X-0.350000X0*%
%ADD15R,0.990600X0.711200*%
%ADD16RoundRect,0.250000X0.350000X0.450000X-0.350000X0.450000X-0.350000X-0.450000X0.350000X-0.450000X0*%
%ADD17RoundRect,0.250000X0.325000X0.450000X-0.325000X0.450000X-0.325000X-0.450000X0.325000X-0.450000X0*%
%ADD18R,1.300000X3.400000*%
%ADD19RoundRect,0.250000X-0.350000X-0.450000X0.350000X-0.450000X0.350000X0.450000X-0.350000X0.450000X0*%
G04 APERTURE END LIST*
D10*
%TO.C,D8*%
X156000000Y-125000000D03*
X158050000Y-125000000D03*
%TD*%
D11*
%TO.C,R7*%
X123000000Y-101000000D03*
X123000000Y-103000000D03*
%TD*%
D12*
%TO.C,U1*%
X136130000Y-106555000D03*
X136130000Y-107825000D03*
X136130000Y-109095000D03*
X136130000Y-110365000D03*
X136130000Y-111635000D03*
X136130000Y-112905000D03*
X136130000Y-114175000D03*
X136130000Y-115445000D03*
X145140000Y-115445000D03*
X145140000Y-114175000D03*
X145140000Y-112905000D03*
X145140000Y-111635000D03*
X145140000Y-110365000D03*
X145140000Y-109095000D03*
X145140000Y-107825000D03*
X145140000Y-106555000D03*
%TD*%
D13*
%TO.C,D6*%
X118000000Y-118025000D03*
X118000000Y-115975000D03*
%TD*%
D14*
%TO.C,R1*%
X139000000Y-103000000D03*
X139000000Y-101000000D03*
%TD*%
D13*
%TO.C,D3*%
X157000000Y-118025000D03*
X157000000Y-115975000D03*
%TD*%
D14*
%TO.C,R3*%
X131000000Y-103000000D03*
X131000000Y-101000000D03*
%TD*%
D15*
%TO.C,SW1*%
X147749999Y-124925001D03*
X152250001Y-124925001D03*
X147749999Y-127074999D03*
X152250001Y-127074999D03*
%TD*%
D14*
%TO.C,R5*%
X135000000Y-103000000D03*
X135000000Y-101000000D03*
%TD*%
D16*
%TO.C,pull_down1*%
X135000000Y-98000000D03*
X133000000Y-98000000D03*
%TD*%
D17*
%TO.C,D1*%
X119025000Y-125000000D03*
X116975000Y-125000000D03*
%TD*%
D10*
%TO.C,D5*%
X156000000Y-109000000D03*
X158050000Y-109000000D03*
%TD*%
D11*
%TO.C,R2*%
X143000000Y-101000000D03*
X143000000Y-103000000D03*
%TD*%
D13*
%TO.C,D4*%
X118000000Y-102025000D03*
X118000000Y-99975000D03*
%TD*%
D17*
%TO.C,D2*%
X119025000Y-109000000D03*
X116975000Y-109000000D03*
%TD*%
D16*
%TO.C,pull_down2*%
X130000000Y-98000000D03*
X128000000Y-98000000D03*
%TD*%
D18*
%TO.C,BZ1*%
X144350000Y-123000000D03*
X135650000Y-123000000D03*
%TD*%
D19*
%TO.C,pull_up1*%
X138000000Y-98000000D03*
X140000000Y-98000000D03*
%TD*%
D11*
%TO.C,R6*%
X127000000Y-101000000D03*
X127000000Y-103000000D03*
%TD*%
D19*
%TO.C,R4*%
X143000000Y-98000000D03*
X145000000Y-98000000D03*
%TD*%
%TO.C,pull_down3*%
X123000000Y-98000000D03*
X125000000Y-98000000D03*
%TD*%
D13*
%TO.C,D7*%
X157000000Y-102050000D03*
X157000000Y-100000000D03*
%TD*%
M02*
